<svg width="539" height="30" viewBox="0 0 539 30" fill="none" xmlns="http://www.w3.org/2000/svg">
<path d="M2.832 10.8382L6.48 17.3662L10.128 10.8382L10.96 18.4062H12.32L10.96 6.64625L6.48 14.7582L2 6.64625L0.64 18.4062H2L2.832 10.8382ZM13.5131 14.7262C13.5131 15.4622 13.6785 16.1236 14.0091 16.7102C14.3505 17.2862 14.8091 17.7396 15.3851 18.0702C15.9611 18.4009 16.6065 18.5663 17.3211 18.5663C18.0465 18.5663 18.6918 18.4009 19.2571 18.0702C19.8331 17.7396 20.2865 17.2862 20.6171 16.7102C20.9585 16.1236 21.1291 15.4622 21.1291 14.7262C21.1291 13.9796 20.9585 13.3182 20.6171 12.7422C20.2865 12.1662 19.8331 11.7129 19.2571 11.3822C18.6918 11.0516 18.0465 10.8862 17.3211 10.8862C16.6065 10.8862 15.9611 11.0516 15.3851 11.3822C14.8091 11.7129 14.3505 12.1662 14.0091 12.7422C13.6785 13.3182 13.5131 13.9796 13.5131 14.7262ZM14.8091 14.7262C14.8091 14.2142 14.9158 13.7609 15.1291 13.3662C15.3531 12.9609 15.6518 12.6462 16.0251 12.4222C16.4091 12.1982 16.8411 12.0862 17.3211 12.0862C17.8011 12.0862 18.2278 12.1982 18.6011 12.4222C18.9851 12.6462 19.2838 12.9609 19.4971 13.3662C19.7211 13.7609 19.8331 14.2142 19.8331 14.7262C19.8331 15.2382 19.7211 15.6916 19.4971 16.0862C19.2838 16.4809 18.9851 16.7956 18.6011 17.0302C18.2278 17.2542 17.8011 17.3662 17.3211 17.3662C16.8411 17.3662 16.4091 17.2542 16.0251 17.0302C15.6518 16.7956 15.3531 16.4809 15.1291 16.0862C14.9158 15.6916 14.8091 15.2382 14.8091 14.7262ZM28.4075 5.92625V18.4062H29.6875V5.92625H28.4075ZM22.2475 14.7262C22.2475 15.5156 22.4128 16.1982 22.7435 16.7742C23.0742 17.3502 23.5168 17.7929 24.0715 18.1022C24.6262 18.4116 25.2342 18.5663 25.8955 18.5663C26.5142 18.5663 27.0528 18.4116 27.5115 18.1022C27.9702 17.7929 28.3275 17.3502 28.5835 16.7742C28.8502 16.1982 28.9835 15.5156 28.9835 14.7262C28.9835 13.9262 28.8502 13.2436 28.5835 12.6782C28.3275 12.1022 27.9702 11.6596 27.5115 11.3502C27.0528 11.0409 26.5142 10.8862 25.8955 10.8862C25.2342 10.8862 24.6262 11.0409 24.0715 11.3502C23.5168 11.6596 23.0742 12.1022 22.7435 12.6782C22.4128 13.2436 22.2475 13.9262 22.2475 14.7262ZM23.5435 14.7262C23.5435 14.1609 23.6555 13.6809 23.8795 13.2862C24.1142 12.8916 24.4235 12.5929 24.8075 12.3902C25.1915 12.1876 25.6075 12.0862 26.0555 12.0862C26.4288 12.0862 26.7968 12.1876 27.1595 12.3902C27.5222 12.5929 27.8208 12.8916 28.0555 13.2862C28.2902 13.6809 28.4075 14.1609 28.4075 14.7262C28.4075 15.2916 28.2902 15.7716 28.0555 16.1662C27.8208 16.5609 27.5222 16.8596 27.1595 17.0622C26.7968 17.2649 26.4288 17.3662 26.0555 17.3662C25.6075 17.3662 25.1915 17.2649 24.8075 17.0622C24.4235 16.8596 24.1142 16.5609 23.8795 16.1662C23.6555 15.7716 23.5435 15.2916 23.5435 14.7262ZM34.8605 18.5663C35.6498 18.5663 36.3325 18.4116 36.9085 18.1022C37.4952 17.7822 37.9805 17.3129 38.3645 16.6942L37.3245 16.0382C37.0578 16.4862 36.7325 16.8222 36.3485 17.0462C35.9645 17.2596 35.5218 17.3662 35.0205 17.3662C34.5192 17.3662 34.0925 17.2596 33.7405 17.0462C33.3885 16.8329 33.1218 16.5236 32.9405 16.1182C32.7592 15.7129 32.6685 15.2222 32.6685 14.6462C32.6792 14.0809 32.7752 13.6062 32.9565 13.2222C33.1485 12.8276 33.4152 12.5289 33.7565 12.3262C34.1085 12.1129 34.5298 12.0062 35.0205 12.0062C35.4365 12.0062 35.7992 12.0969 36.1085 12.2782C36.4178 12.4596 36.6578 12.7102 36.8285 13.0302C37.0098 13.3502 37.1005 13.7289 37.1005 14.1662C37.1005 14.2409 37.0845 14.3369 37.0525 14.4542C37.0205 14.5609 36.9885 14.6409 36.9565 14.6942L37.4685 13.9582H32.1885V15.0462H38.4765C38.4765 15.0249 38.4765 14.9769 38.4765 14.9022C38.4872 14.8169 38.4925 14.7369 38.4925 14.6622C38.4925 13.8836 38.3538 13.2116 38.0765 12.6462C37.7992 12.0809 37.3992 11.6489 36.8765 11.3502C36.3645 11.0409 35.7458 10.8862 35.0205 10.8862C34.2952 10.8862 33.6552 11.0462 33.1005 11.3662C32.5565 11.6862 32.1298 12.1342 31.8205 12.7102C31.5218 13.2862 31.3725 13.9582 31.3725 14.7262C31.3725 15.4836 31.5165 16.1502 31.8045 16.7262C32.1032 17.3022 32.5138 17.7556 33.0365 18.0862C33.5698 18.4062 34.1778 18.5663 34.8605 18.5663ZM40.5509 16.1502L39.5429 16.7742C39.6815 17.0622 39.8842 17.3449 40.1509 17.6222C40.4282 17.8996 40.7642 18.1289 41.1589 18.3102C41.5535 18.4809 41.9962 18.5663 42.4869 18.5663C43.2442 18.5663 43.8522 18.3529 44.3109 17.9262C44.7802 17.4996 45.0149 16.9662 45.0149 16.3262C45.0149 15.8889 44.9082 15.5316 44.6949 15.2542C44.4922 14.9769 44.2149 14.7422 43.8629 14.5502C43.5109 14.3476 43.1215 14.1609 42.6949 13.9902C42.4389 13.8836 42.1935 13.7716 41.9589 13.6542C41.7242 13.5369 41.5322 13.4036 41.3829 13.2542C41.2335 13.1049 41.1589 12.9342 41.1589 12.7422C41.1589 12.4969 41.2549 12.3156 41.4469 12.1982C41.6389 12.0809 41.8682 12.0222 42.1349 12.0222C42.5189 12.0222 42.8602 12.1129 43.1589 12.2942C43.4682 12.4756 43.7242 12.7049 43.9269 12.9822L44.9509 12.3262C44.8015 12.0489 44.5935 11.8036 44.3269 11.5902C44.0602 11.3769 43.7509 11.2062 43.3989 11.0782C43.0575 10.9502 42.6895 10.8862 42.2949 10.8862C41.9002 10.8862 41.5162 10.9556 41.1429 11.0942C40.7802 11.2329 40.4815 11.4462 40.2469 11.7342C40.0229 12.0222 39.9109 12.3849 39.9109 12.8222C39.9109 13.2489 40.0175 13.6062 40.2309 13.8942C40.4549 14.1716 40.7269 14.4009 41.0469 14.5822C41.3775 14.7529 41.7029 14.9022 42.0229 15.0302C42.3109 15.1369 42.5829 15.2542 42.8389 15.3822C43.0949 15.4996 43.3029 15.6489 43.4629 15.8302C43.6335 16.0009 43.7189 16.2142 43.7189 16.4702C43.7189 16.7582 43.6122 16.9876 43.3989 17.1582C43.1962 17.3182 42.9135 17.3982 42.5509 17.3982C42.2522 17.3982 41.9749 17.3449 41.7189 17.2382C41.4735 17.1209 41.2549 16.9662 41.0629 16.7742C40.8709 16.5822 40.7002 16.3742 40.5509 16.1502ZM57.0169 5.92625V18.4062H58.2969V5.92625H57.0169ZM50.8569 14.7262C50.8569 15.5156 51.0222 16.1982 51.3529 16.7742C51.6835 17.3502 52.1262 17.7929 52.6809 18.1022C53.2355 18.4116 53.8435 18.5663 54.5049 18.5663C55.1235 18.5663 55.6622 18.4116 56.1209 18.1022C56.5795 17.7929 56.9369 17.3502 57.1929 16.7742C57.4595 16.1982 57.5929 15.5156 57.5929 14.7262C57.5929 13.9262 57.4595 13.2436 57.1929 12.6782C56.9369 12.1022 56.5795 11.6596 56.1209 11.3502C55.6622 11.0409 55.1235 10.8862 54.5049 10.8862C53.8435 10.8862 53.2355 11.0409 52.6809 11.3502C52.1262 11.6596 51.6835 12.1022 51.3529 12.6782C51.0222 13.2436 50.8569 13.9262 50.8569 14.7262ZM52.1529 14.7262C52.1529 14.1609 52.2649 13.6809 52.4889 13.2862C52.7235 12.8916 53.0329 12.5929 53.4169 12.3902C53.8009 12.1876 54.2169 12.0862 54.6649 12.0862C55.0382 12.0862 55.4062 12.1876 55.7689 12.3902C56.1315 12.5929 56.4302 12.8916 56.6649 13.2862C56.8995 13.6809 57.0169 14.1609 57.0169 14.7262C57.0169 15.2916 56.8995 15.7716 56.6649 16.1662C56.4302 16.5609 56.1315 16.8596 55.7689 17.0622C55.4062 17.2649 55.0382 17.3662 54.6649 17.3662C54.2169 17.3662 53.8009 17.2649 53.4169 17.0622C53.0329 16.8596 52.7235 16.5609 52.4889 16.1662C52.2649 15.7716 52.1529 15.2916 52.1529 14.7262ZM63.4699 18.5663C64.2592 18.5663 64.9419 18.4116 65.5179 18.1022C66.1045 17.7822 66.5899 17.3129 66.9739 16.6942L65.9339 16.0382C65.6672 16.4862 65.3419 16.8222 64.9579 17.0462C64.5739 17.2596 64.1312 17.3662 63.6299 17.3662C63.1285 17.3662 62.7019 17.2596 62.3499 17.0462C61.9979 16.8329 61.7312 16.5236 61.5499 16.1182C61.3685 15.7129 61.2779 15.2222 61.2779 14.6462C61.2885 14.0809 61.3845 13.6062 61.5659 13.2222C61.7579 12.8276 62.0245 12.5289 62.3659 12.3262C62.7179 12.1129 63.1392 12.0062 63.6299 12.0062C64.0459 12.0062 64.4085 12.0969 64.7179 12.2782C65.0272 12.4596 65.2672 12.7102 65.4379 13.0302C65.6192 13.3502 65.7099 13.7289 65.7099 14.1662C65.7099 14.2409 65.6939 14.3369 65.6619 14.4542C65.6299 14.5609 65.5979 14.6409 65.5659 14.6942L66.0779 13.9582H60.7979V15.0462H67.0859C67.0859 15.0249 67.0859 14.9769 67.0859 14.9022C67.0965 14.8169 67.1019 14.7369 67.1019 14.6622C67.1019 13.8836 66.9632 13.2116 66.6859 12.6462C66.4085 12.0809 66.0085 11.6489 65.4859 11.3502C64.9739 11.0409 64.3552 10.8862 63.6299 10.8862C62.9045 10.8862 62.2645 11.0462 61.7099 11.3662C61.1659 11.6862 60.7392 12.1342 60.4299 12.7102C60.1312 13.2862 59.9819 13.9582 59.9819 14.7262C59.9819 15.4836 60.1259 16.1502 60.4139 16.7262C60.7125 17.3022 61.1232 17.7556 61.6459 18.0862C62.1792 18.4062 62.7872 18.5663 63.4699 18.5663ZM74.8531 21.9263V11.0462H73.5731V21.9263H74.8531ZM81.0131 14.7262C81.0131 13.9262 80.8478 13.2436 80.5171 12.6782C80.1865 12.1022 79.7438 11.6596 79.1891 11.3502C78.6451 11.0409 78.0371 10.8862 77.3651 10.8862C76.7571 10.8862 76.2185 11.0409 75.7491 11.3502C75.2905 11.6596 74.9278 12.1022 74.6611 12.6782C74.4051 13.2436 74.2771 13.9262 74.2771 14.7262C74.2771 15.5156 74.4051 16.1982 74.6611 16.7742C74.9278 17.3502 75.2905 17.7929 75.7491 18.1022C76.2185 18.4116 76.7571 18.5663 77.3651 18.5663C78.0371 18.5663 78.6451 18.4116 79.1891 18.1022C79.7438 17.7929 80.1865 17.3502 80.5171 16.7742C80.8478 16.1982 81.0131 15.5156 81.0131 14.7262ZM79.7171 14.7262C79.7171 15.2916 79.5998 15.7716 79.3651 16.1662C79.1411 16.5609 78.8371 16.8596 78.4531 17.0622C78.0798 17.2649 77.6638 17.3662 77.2051 17.3662C76.8318 17.3662 76.4638 17.2649 76.1011 17.0622C75.7385 16.8596 75.4398 16.5609 75.2051 16.1662C74.9705 15.7716 74.8531 15.2916 74.8531 14.7262C74.8531 14.1609 74.9705 13.6809 75.2051 13.2862C75.4398 12.8916 75.7385 12.5929 76.1011 12.3902C76.4638 12.1876 76.8318 12.0862 77.2051 12.0862C77.6638 12.0862 78.0798 12.1876 78.4531 12.3902C78.8371 12.5929 79.1411 12.8916 79.3651 13.2862C79.5998 13.6809 79.7171 14.1609 79.7171 14.7262ZM83.3541 16.1342C83.3541 15.8676 83.4181 15.6382 83.5461 15.4462C83.6741 15.2542 83.8661 15.1049 84.1221 14.9982C84.3888 14.8916 84.7301 14.8382 85.1461 14.8382C85.5941 14.8382 86.0155 14.8969 86.4101 15.0142C86.8048 15.1209 87.1888 15.3022 87.5621 15.5582V14.8062C87.4875 14.7102 87.3435 14.5876 87.1301 14.4382C86.9168 14.2782 86.6288 14.1396 86.2661 14.0222C85.9141 13.8942 85.4715 13.8302 84.9381 13.8302C84.0315 13.8302 83.3221 14.0489 82.8101 14.4862C82.3088 14.9129 82.0581 15.4836 82.0581 16.1982C82.0581 16.6996 82.1755 17.1262 82.4101 17.4782C82.6448 17.8302 82.9541 18.1022 83.3381 18.2942C83.7328 18.4756 84.1541 18.5663 84.6021 18.5663C85.0075 18.5663 85.4128 18.4916 85.8181 18.3422C86.2341 18.1929 86.5808 17.9636 86.8581 17.6542C87.1461 17.3449 87.2901 16.9556 87.2901 16.4862L87.0341 15.5262C87.0341 15.9102 86.9381 16.2516 86.7461 16.5502C86.5648 16.8382 86.3141 17.0622 85.9941 17.2222C85.6848 17.3822 85.3328 17.4622 84.9381 17.4622C84.6288 17.4622 84.3515 17.4142 84.1061 17.3182C83.8715 17.2116 83.6848 17.0569 83.5461 16.8542C83.4181 16.6516 83.3541 16.4116 83.3541 16.1342ZM83.1621 12.7422C83.2795 12.6569 83.4395 12.5556 83.6421 12.4382C83.8448 12.3209 84.0901 12.2196 84.3781 12.1342C84.6768 12.0489 85.0075 12.0062 85.3701 12.0062C85.5941 12.0062 85.8075 12.0276 86.0101 12.0702C86.2128 12.1129 86.3888 12.1822 86.5381 12.2782C86.6981 12.3742 86.8208 12.5076 86.9061 12.6782C86.9915 12.8382 87.0341 13.0462 87.0341 13.3022V18.4062H88.3141V13.1262C88.3141 12.6462 88.1915 12.2409 87.9461 11.9102C87.7115 11.5796 87.3755 11.3289 86.9381 11.1582C86.5115 10.9769 86.0101 10.8862 85.4341 10.8862C84.7515 10.8862 84.1648 10.9876 83.6741 11.1902C83.1941 11.3929 82.8155 11.5956 82.5381 11.7982L83.1621 12.7422ZM90.4813 8.00625C90.4813 8.24092 90.5666 8.44892 90.7373 8.63025C90.9186 8.80092 91.1266 8.88625 91.3613 8.88625C91.6066 8.88625 91.8146 8.80092 91.9853 8.63025C92.1559 8.44892 92.2413 8.24092 92.2413 8.00625C92.2413 7.76092 92.1559 7.55292 91.9853 7.38225C91.8146 7.21158 91.6066 7.12625 91.3613 7.12625C91.1266 7.12625 90.9186 7.21158 90.7373 7.38225C90.5666 7.55292 90.4813 7.76092 90.4813 8.00625ZM90.7213 11.0462V18.4062H92.0013V11.0462H90.7213ZM97.4855 18.5663C98.2748 18.5663 98.9575 18.4116 99.5335 18.1022C100.12 17.7822 100.606 17.3129 100.99 16.6942L99.9495 16.0382C99.6828 16.4862 99.3575 16.8222 98.9735 17.0462C98.5895 17.2596 98.1468 17.3662 97.6455 17.3662C97.1442 17.3662 96.7175 17.2596 96.3655 17.0462C96.0135 16.8329 95.7468 16.5236 95.5655 16.1182C95.3842 15.7129 95.2935 15.2222 95.2935 14.6462C95.3042 14.0809 95.4002 13.6062 95.5815 13.2222C95.7735 12.8276 96.0402 12.5289 96.3815 12.3262C96.7335 12.1129 97.1548 12.0062 97.6455 12.0062C98.0615 12.0062 98.4242 12.0969 98.7335 12.2782C99.0428 12.4596 99.2828 12.7102 99.4535 13.0302C99.6348 13.3502 99.7255 13.7289 99.7255 14.1662C99.7255 14.2409 99.7095 14.3369 99.6775 14.4542C99.6455 14.5609 99.6135 14.6409 99.5815 14.6942L100.094 13.9582H94.8135V15.0462H101.102C101.102 15.0249 101.102 14.9769 101.102 14.9022C101.112 14.8169 101.118 14.7369 101.118 14.6622C101.118 13.8836 100.979 13.2116 100.702 12.6462C100.424 12.0809 100.024 11.6489 99.5015 11.3502C98.9895 11.0409 98.3708 10.8862 97.6455 10.8862C96.9202 10.8862 96.2802 11.0462 95.7255 11.3662C95.1815 11.6862 94.7548 12.1342 94.4455 12.7102C94.1468 13.2862 93.9975 13.9582 93.9975 14.7262C93.9975 15.4836 94.1415 16.1502 94.4295 16.7262C94.7282 17.3022 95.1388 17.7556 95.6615 18.0862C96.1948 18.4062 96.8028 18.5663 97.4855 18.5663ZM112.952 13.7662C112.952 13.1582 112.856 12.6409 112.664 12.2142C112.483 11.7769 112.216 11.4462 111.864 11.2222C111.512 10.9982 111.085 10.8862 110.584 10.8862C110.093 10.8862 109.656 11.0036 109.272 11.2382C108.888 11.4622 108.568 11.8036 108.312 12.2622C108.141 11.8249 107.869 11.4889 107.496 11.2542C107.133 11.0089 106.696 10.8862 106.184 10.8862C105.725 10.8862 105.325 10.9876 104.984 11.1902C104.653 11.3929 104.376 11.7022 104.152 12.1182V11.0462H102.872V18.4062H104.152V13.9262C104.152 13.5422 104.221 13.2116 104.36 12.9342C104.499 12.6569 104.696 12.4489 104.952 12.3102C105.208 12.1609 105.512 12.0862 105.864 12.0862C106.344 12.0862 106.696 12.2356 106.92 12.5342C107.155 12.8329 107.272 13.2969 107.272 13.9262V18.4062H108.552V13.9262C108.552 13.5422 108.621 13.2116 108.76 12.9342C108.899 12.6569 109.096 12.4489 109.352 12.3102C109.608 12.1609 109.912 12.0862 110.264 12.0862C110.744 12.0862 111.096 12.2356 111.32 12.5342C111.555 12.8329 111.672 13.2969 111.672 13.9262V18.4062H112.952V13.7662ZM118.204 18.5663C118.994 18.5663 119.676 18.4116 120.252 18.1022C120.839 17.7822 121.324 17.3129 121.708 16.6942L120.668 16.0382C120.402 16.4862 120.076 16.8222 119.692 17.0462C119.308 17.2596 118.866 17.3662 118.364 17.3662C117.863 17.3662 117.436 17.2596 117.084 17.0462C116.732 16.8329 116.466 16.5236 116.284 16.1182C116.103 15.7129 116.012 15.2222 116.012 14.6462C116.023 14.0809 116.119 13.6062 116.3 13.2222C116.492 12.8276 116.759 12.5289 117.1 12.3262C117.452 12.1129 117.874 12.0062 118.364 12.0062C118.78 12.0062 119.143 12.0969 119.452 12.2782C119.762 12.4596 120.002 12.7102 120.172 13.0302C120.354 13.3502 120.444 13.7289 120.444 14.1662C120.444 14.2409 120.428 14.3369 120.396 14.4542C120.364 14.5609 120.332 14.6409 120.3 14.6942L120.812 13.9582H115.532V15.0462H121.82C121.82 15.0249 121.82 14.9769 121.82 14.9022C121.831 14.8169 121.836 14.7369 121.836 14.6622C121.836 13.8836 121.698 13.2116 121.42 12.6462C121.143 12.0809 120.743 11.6489 120.22 11.3502C119.708 11.0409 119.09 10.8862 118.364 10.8862C117.639 10.8862 116.999 11.0462 116.444 11.3662C115.9 11.6862 115.474 12.1342 115.164 12.7102C114.866 13.2862 114.716 13.9582 114.716 14.7262C114.716 15.4836 114.86 16.1502 115.148 16.7262C115.447 17.3022 115.858 17.7556 116.38 18.0862C116.914 18.4062 117.522 18.5663 118.204 18.5663ZM128.311 13.9262V18.4062H129.591V13.7662C129.591 12.8809 129.361 12.1822 128.903 11.6702C128.455 11.1476 127.841 10.8862 127.063 10.8862C126.583 10.8862 126.156 10.9929 125.783 11.2062C125.42 11.4196 125.116 11.7502 124.871 12.1982V11.0462H123.591V18.4062H124.871V13.9262C124.871 13.5636 124.945 13.2436 125.095 12.9662C125.255 12.6889 125.473 12.4756 125.751 12.3262C126.039 12.1662 126.369 12.0862 126.743 12.0862C127.255 12.0862 127.644 12.2409 127.911 12.5502C128.177 12.8596 128.311 13.3182 128.311 13.9262ZM130.877 11.0462V12.2462H134.557V11.0462H130.877ZM132.077 8.48625V18.4062H133.357V8.48625H132.077ZM136.145 16.1502L135.137 16.7742C135.275 17.0622 135.478 17.3449 135.745 17.6222C136.022 17.8996 136.358 18.1289 136.753 18.3102C137.147 18.4809 137.59 18.5663 138.081 18.5663C138.838 18.5663 139.446 18.3529 139.905 17.9262C140.374 17.4996 140.609 16.9662 140.609 16.3262C140.609 15.8889 140.502 15.5316 140.289 15.2542C140.086 14.9769 139.809 14.7422 139.457 14.5502C139.105 14.3476 138.715 14.1609 138.289 13.9902C138.033 13.8836 137.787 13.7716 137.553 13.6542C137.318 13.5369 137.126 13.4036 136.977 13.2542C136.827 13.1049 136.753 12.9342 136.753 12.7422C136.753 12.4969 136.849 12.3156 137.041 12.1982C137.233 12.0809 137.462 12.0222 137.729 12.0222C138.113 12.0222 138.454 12.1129 138.753 12.2942C139.062 12.4756 139.318 12.7049 139.521 12.9822L140.545 12.3262C140.395 12.0489 140.187 11.8036 139.921 11.5902C139.654 11.3769 139.345 11.2062 138.993 11.0782C138.651 10.9502 138.283 10.8862 137.889 10.8862C137.494 10.8862 137.11 10.9556 136.737 11.0942C136.374 11.2329 136.075 11.4462 135.841 11.7342C135.617 12.0222 135.505 12.3849 135.505 12.8222C135.505 13.2489 135.611 13.6062 135.825 13.8942C136.049 14.1716 136.321 14.4009 136.641 14.5822C136.971 14.7529 137.297 14.9022 137.617 15.0302C137.905 15.1369 138.177 15.2542 138.433 15.3822C138.689 15.4996 138.897 15.6489 139.057 15.8302C139.227 16.0009 139.313 16.2142 139.313 16.4702C139.313 16.7582 139.206 16.9876 138.993 17.1582C138.79 17.3182 138.507 17.3982 138.145 17.3982C137.846 17.3982 137.569 17.3449 137.313 17.2382C137.067 17.1209 136.849 16.9662 136.657 16.7742C136.465 16.5822 136.294 16.3742 136.145 16.1502ZM147.411 17.7662C147.411 18.0009 147.496 18.2089 147.667 18.3902C147.848 18.5609 148.056 18.6463 148.291 18.6463C148.536 18.6463 148.744 18.5609 148.915 18.3902C149.085 18.2089 149.171 18.0009 149.171 17.7662C149.171 17.5209 149.085 17.3129 148.915 17.1422C148.744 16.9716 148.536 16.8862 148.291 16.8862C148.056 16.8862 147.848 16.9716 147.667 17.1422C147.496 17.3129 147.411 17.5209 147.411 17.7662ZM147.411 11.6862C147.411 11.9209 147.496 12.1289 147.667 12.3102C147.848 12.4809 148.056 12.5662 148.291 12.5662C148.536 12.5662 148.744 12.4809 148.915 12.3102C149.085 12.1289 149.171 11.9209 149.171 11.6862C149.171 11.4409 149.085 11.2329 148.915 11.0622C148.744 10.8916 148.536 10.8062 148.291 10.8062C148.056 10.8062 147.848 10.8916 147.667 11.0622C147.496 11.2329 147.411 11.4409 147.411 11.6862Z" fill="#0C0C0D"/>
<rect x="169" y="6.26221" width="32" height="17" rx="8.5" fill="url(#paint0_linear_3_6006)"/>
<path d="M186.139 15.073H193.632C194.822 15.073 195.786 16.0374 195.786 17.227C195.786 18.4167 194.822 19.3811 193.632 19.3811H186.139V15.073Z" fill="white"/>
<path d="M186.139 10.1606H193.636C194.824 10.1606 195.786 11.1234 195.786 12.3111C195.786 13.4988 194.824 14.4616 193.636 14.4616H186.139V10.1606Z" fill="white"/>
<g clip-path="url(#clip0_3_6006)">
<path d="M179.863 15.0706V14.4593H185.509C185.342 11.8827 183.077 9.84229 180.307 9.84229H179.419C176.54 9.84229 174.207 12.0465 174.207 14.7653C174.207 17.484 176.54 19.6882 179.419 19.6882H180.307C183.077 19.6882 185.342 17.6474 185.509 15.0712L179.863 15.0706Z" fill="white"/>
</g>
<rect x="211" y="6.26221" width="32" height="17" rx="8.5" fill="#1434CB"/>
<path d="M225.561 18.236H223.743L224.88 11.1826H226.698L225.561 18.236Z" fill="white"/>
<path d="M232.151 11.355C231.793 11.2123 231.224 11.0547 230.521 11.0547C228.725 11.0547 227.461 12.0151 227.453 13.3882C227.438 14.4013 228.358 14.9639 229.047 15.3017C229.75 15.6469 229.989 15.8722 229.989 16.1799C229.982 16.6524 229.421 16.8702 228.897 16.8702C228.171 16.8702 227.782 16.7579 227.191 16.495L226.952 16.3823L226.698 17.9656C227.124 18.1605 227.91 18.3334 228.725 18.341C230.633 18.341 231.875 17.3955 231.89 15.9322C231.897 15.1293 231.411 14.514 230.363 14.0113C229.728 13.6886 229.338 13.471 229.338 13.1408C229.346 12.8406 229.668 12.5331 230.385 12.5331C230.976 12.518 231.411 12.6606 231.74 12.8032L231.904 12.8781L232.151 11.355Z" fill="white"/>
<path d="M234.568 15.7372C234.717 15.332 235.294 13.7638 235.294 13.7638C235.286 13.7788 235.443 13.3511 235.533 13.0885L235.66 13.6962C235.66 13.6962 236.004 15.3846 236.079 15.7372C235.795 15.7372 234.927 15.7372 234.568 15.7372ZM236.812 11.1826H235.406C234.972 11.1826 234.642 11.3101 234.455 11.7678L231.755 18.2359H233.662C233.662 18.2359 233.977 17.3653 234.044 17.1778C234.253 17.1778 236.109 17.1778 236.378 17.1778C236.431 17.4255 236.595 18.2359 236.595 18.2359H238.279L236.812 11.1826Z" fill="white"/>
<path d="M222.224 11.1826L220.443 15.9923L220.249 15.0169C219.92 13.8913 218.887 12.6684 217.735 12.0603L219.366 18.2285H221.289L224.146 11.1826H222.224Z" fill="white"/>
<path d="M218.79 11.1826H215.865L215.835 11.3251C218.117 11.9105 219.628 13.3213 220.249 15.0172L219.613 11.7755C219.508 11.325 219.187 11.1975 218.79 11.1826Z" fill="white"/>
<rect x="253" y="6.26221" width="31" height="17" rx="8.5" fill="#FAFAFA"/>
<path d="M263.308 20.6972V19.906C263.308 19.6033 263.113 19.4051 262.777 19.4051C262.609 19.4051 262.427 19.4574 262.301 19.6295C262.203 19.485 262.063 19.4051 261.853 19.4051C261.713 19.4051 261.573 19.4451 261.462 19.5895V19.4313H261.168V20.6972H261.462V19.9982C261.462 19.7739 261.587 19.6679 261.783 19.6679C261.978 19.6679 262.076 19.7862 262.076 19.9982V20.6972H262.37V19.9982C262.37 19.7739 262.51 19.6679 262.691 19.6679C262.886 19.6679 262.984 19.7862 262.984 19.9982V20.6972H263.308ZM267.661 19.4313H267.185V19.0487H266.891V19.4313H266.626V19.6817H266.891V20.2624C266.891 20.5528 267.017 20.7233 267.352 20.7233C267.478 20.7233 267.618 20.6834 267.716 20.6311L267.631 20.393C267.546 20.4453 267.449 20.4591 267.379 20.4591C267.238 20.4591 267.183 20.3792 267.183 20.2486V19.6817H267.659V19.4313H267.661ZM270.151 19.4036C269.983 19.4036 269.871 19.4835 269.801 19.588V19.4297H269.507V20.6957H269.801V19.9828C269.801 19.7723 269.899 19.6525 270.081 19.6525C270.137 19.6525 270.207 19.6663 270.264 19.6786L270.348 19.4144C270.29 19.4036 270.207 19.4036 270.151 19.4036ZM266.388 19.5357C266.247 19.4436 266.052 19.4036 265.841 19.4036C265.506 19.4036 265.282 19.5619 265.282 19.8123C265.282 20.0228 265.45 20.1426 265.744 20.181L265.884 20.1948C266.037 20.2209 266.122 20.2609 266.122 20.327C266.122 20.4191 266.009 20.4852 265.814 20.4852C265.618 20.4852 265.463 20.4191 265.366 20.3531L265.225 20.5635C265.379 20.6696 265.589 20.7218 265.799 20.7218C266.19 20.7218 266.415 20.5497 266.415 20.3131C266.415 20.0888 266.233 19.9705 265.954 19.9306L265.814 19.9167C265.688 19.9029 265.59 19.8768 265.59 19.7985C265.59 19.7063 265.688 19.654 265.843 19.654C266.011 19.654 266.179 19.7201 266.264 19.76L266.388 19.5357ZM274.194 19.4036C274.026 19.4036 273.913 19.4835 273.843 19.588V19.4297H273.55V20.6957H273.843V19.9828C273.843 19.7723 273.941 19.6525 274.123 19.6525C274.179 19.6525 274.249 19.6663 274.306 19.6786L274.391 19.4174C274.334 19.4036 274.251 19.4036 274.194 19.4036ZM270.445 20.0642C270.445 20.4468 270.725 20.7233 271.159 20.7233C271.354 20.7233 271.494 20.6834 271.634 20.5789L271.494 20.3546C271.382 20.4345 271.271 20.4729 271.144 20.4729C270.906 20.4729 270.738 20.3147 270.738 20.0642C270.738 19.8261 270.906 19.6679 271.144 19.6556C271.269 19.6556 271.382 19.6955 271.494 19.7739L271.634 19.5496C271.494 19.4436 271.354 19.4051 271.159 19.4051C270.725 19.4036 270.445 19.6817 270.445 20.0642ZM273.159 20.0642V19.4313H272.865V19.5895C272.767 19.4712 272.627 19.4051 272.445 19.4051C272.066 19.4051 271.773 19.6817 271.773 20.0642C271.773 20.4468 272.066 20.7233 272.445 20.7233C272.64 20.7233 272.78 20.6573 272.865 20.539V20.6972H273.159V20.0642ZM272.081 20.0642C272.081 19.8399 272.234 19.6556 272.487 19.6556C272.725 19.6556 272.893 19.8276 272.893 20.0642C272.893 20.2885 272.725 20.4729 272.487 20.4729C272.236 20.4591 272.081 20.287 272.081 20.0642ZM268.57 19.4036C268.179 19.4036 267.899 19.6679 267.899 20.0627C267.899 20.4591 268.179 20.7218 268.585 20.7218C268.78 20.7218 268.976 20.6696 269.131 20.5497L268.991 20.3515C268.878 20.4314 268.738 20.4837 268.599 20.4837C268.417 20.4837 268.236 20.4038 268.194 20.181H269.186C269.186 20.1411 269.186 20.1149 269.186 20.075C269.199 19.6679 268.947 19.4036 268.57 19.4036ZM268.57 19.6417C268.753 19.6417 268.878 19.7478 268.906 19.9444H268.207C268.234 19.7739 268.36 19.6417 268.57 19.6417ZM275.859 20.0642V18.9304H275.566V19.5895C275.468 19.4712 275.328 19.4051 275.146 19.4051C274.767 19.4051 274.474 19.6817 274.474 20.0642C274.474 20.4468 274.767 20.7233 275.146 20.7233C275.341 20.7233 275.481 20.6573 275.566 20.539V20.6972H275.859V20.0642ZM274.782 20.0642C274.782 19.8399 274.935 19.6556 275.188 19.6556C275.426 19.6556 275.594 19.8276 275.594 20.0642C275.594 20.2885 275.426 20.4729 275.188 20.4729C274.935 20.4591 274.782 20.287 274.782 20.0642ZM264.96 20.0642V19.4313H264.666V19.5895C264.568 19.4712 264.428 19.4051 264.246 19.4051C263.868 19.4051 263.574 19.6817 263.574 20.0642C263.574 20.4468 263.868 20.7233 264.246 20.7233C264.441 20.7233 264.581 20.6573 264.666 20.539V20.6972H264.96V20.0642ZM263.869 20.0642C263.869 19.8399 264.022 19.6556 264.275 19.6556C264.513 19.6556 264.681 19.8276 264.681 20.0642C264.681 20.2885 264.513 20.4729 264.275 20.4729C264.022 20.4591 263.869 20.287 263.869 20.0642Z" fill="#0C0C0D"/>
<path d="M270.697 9.81689H266.29V17.2804H270.697V9.81689Z" fill="#FF5A00"/>
<path d="M266.583 13.5486C266.583 12.0322 267.339 10.6864 268.5 9.81679C267.646 9.18382 266.568 8.80127 265.393 8.80127C262.609 8.80127 260.357 10.9245 260.357 13.5486C260.357 16.1726 262.609 18.2958 265.393 18.2958C266.568 18.2958 267.646 17.9133 268.5 17.2803C267.338 16.423 266.583 15.0649 266.583 13.5486Z" fill="#EB001B"/>
<path d="M276.643 13.5486C276.643 16.1726 274.391 18.2958 271.607 18.2958C270.432 18.2958 269.354 17.9133 268.5 17.2803C269.675 16.4092 270.417 15.0649 270.417 13.5486C270.417 12.0322 269.661 10.6864 268.5 9.81679C269.352 9.18382 270.43 8.80127 271.605 8.80127C274.391 8.80127 276.643 10.9383 276.643 13.5486Z" fill="#F79E1B"/>
<rect x="294" y="6.26221" width="32" height="17" rx="8.5" fill="#FAFAFA"/>
<path d="M312.3 17.1356H307.753V9.47754H312.3V17.1356Z" fill="#7375CF"/>
<path d="M308.047 13.3065C308.047 11.7544 308.82 10.3678 310.031 9.47749C309.148 8.82356 308.03 8.4375 306.82 8.4375C303.954 8.4375 301.627 10.6199 301.627 13.3065C301.627 15.9932 303.954 18.1756 306.82 18.1756C308.03 18.1756 309.148 17.7895 310.031 17.1356C308.82 16.2453 308.047 14.8586 308.047 13.3065Z" fill="#EB001B"/>
<path d="M318.435 13.3065C318.435 15.9932 316.107 18.1756 313.241 18.1756C312.031 18.1756 310.913 17.7895 310.031 17.1356C311.241 16.2453 312.014 14.8586 312.014 13.3065C312.014 11.7544 311.241 10.3678 310.031 9.47749C310.913 8.82356 312.031 8.4375 313.241 8.4375C316.107 8.4375 318.435 10.6199 318.435 13.3065Z" fill="#00A2E5"/>
<path d="M313.829 19.3022C313.888 19.3022 313.98 19.3101 314.039 19.3337L313.947 19.6016C313.88 19.5779 313.821 19.5701 313.762 19.5701C313.569 19.5701 313.468 19.6882 313.468 19.901V20.6258H313.165V19.3337H313.459V19.4913C313.543 19.3731 313.661 19.3022 313.829 19.3022ZM312.72 19.5858H312.232V20.1688C312.232 20.2949 312.283 20.3816 312.434 20.3816C312.51 20.3816 312.611 20.3579 312.703 20.3107L312.787 20.5549C312.695 20.6179 312.543 20.6573 312.409 20.6573C312.056 20.6573 311.93 20.4761 311.93 20.1767V19.5858H311.653V19.3258H311.93V18.9319H312.232V19.3258H312.72V19.5858ZM308.879 19.8616C308.913 19.6725 309.03 19.5464 309.249 19.5464C309.442 19.5464 309.568 19.6567 309.602 19.8616H308.879ZM309.913 19.9798C309.913 19.5779 309.644 19.3022 309.257 19.3022C308.854 19.3022 308.568 19.5779 308.568 19.9798C308.568 20.3894 308.862 20.6573 309.274 20.6573C309.484 20.6573 309.669 20.61 309.837 20.4761L309.686 20.2713C309.568 20.3579 309.425 20.4052 309.283 20.4052C309.089 20.4052 308.913 20.3185 308.871 20.0901H309.896C309.904 20.0507 309.913 20.0191 309.913 19.9798ZM311.232 19.6646C311.148 19.6173 310.98 19.5543 310.804 19.5543C310.636 19.5543 310.543 19.6095 310.543 19.704C310.543 19.7907 310.644 19.8143 310.779 19.8301L310.921 19.8458C311.224 19.8852 311.4 20.0034 311.4 20.2319C311.4 20.4761 311.173 20.6573 310.77 20.6573C310.543 20.6573 310.333 20.6022 310.173 20.4919L310.316 20.2713C310.417 20.3422 310.568 20.4052 310.779 20.4052C310.98 20.4052 311.089 20.3501 311.089 20.2476C311.089 20.1767 311.014 20.1373 310.846 20.1137L310.703 20.0979C310.392 20.0585 310.224 19.9246 310.224 19.7198C310.224 19.4598 310.451 19.3022 310.795 19.3022C311.014 19.3022 311.216 19.3495 311.358 19.4361L311.232 19.6646ZM314.93 19.5622C314.871 19.5622 314.812 19.5701 314.762 19.5937C314.712 19.6173 314.661 19.641 314.628 19.6804C314.594 19.7198 314.56 19.7591 314.535 19.8143C314.51 19.8616 314.501 19.9246 314.501 19.9798C314.501 20.0428 314.51 20.0979 314.535 20.1452C314.56 20.1925 314.585 20.2398 314.628 20.2791C314.67 20.3185 314.712 20.3422 314.762 20.3658C314.812 20.3894 314.871 20.3973 314.93 20.3973C314.989 20.3973 315.048 20.3894 315.098 20.3658C315.149 20.3422 315.199 20.3185 315.233 20.2791C315.275 20.2398 315.3 20.2004 315.325 20.1452C315.35 20.0979 315.359 20.0349 315.359 19.9798C315.359 19.9167 315.35 19.8616 315.325 19.8143C315.3 19.767 315.275 19.7198 315.233 19.6804C315.191 19.641 315.149 19.6173 315.098 19.5937C315.048 19.5779 314.989 19.5622 314.93 19.5622ZM314.93 19.3022C315.039 19.3022 315.14 19.3179 315.224 19.3573C315.317 19.3889 315.392 19.4361 315.46 19.4992C315.527 19.5622 315.577 19.6331 315.619 19.7119C315.653 19.7985 315.678 19.8852 315.678 19.9798C315.678 20.0743 315.661 20.1688 315.619 20.2476C315.586 20.3343 315.527 20.4052 315.46 20.4604C315.392 20.5234 315.317 20.5707 315.224 20.6022C315.132 20.6337 315.031 20.6573 314.93 20.6573C314.821 20.6573 314.72 20.6416 314.636 20.6022C314.543 20.5707 314.468 20.5234 314.401 20.4604C314.333 20.3973 314.283 20.3264 314.241 20.2476C314.207 20.161 314.182 20.0743 314.182 19.9798C314.182 19.8852 314.199 19.7907 314.241 19.7119C314.275 19.6252 314.333 19.5543 314.401 19.4992C314.468 19.4361 314.543 19.3889 314.636 19.3573C314.72 19.3179 314.821 19.3022 314.93 19.3022ZM307.131 19.9798C307.131 19.7513 307.291 19.5622 307.551 19.5622C307.803 19.5622 307.963 19.7434 307.963 19.9798C307.963 20.2161 307.795 20.3894 307.551 20.3894C307.291 20.3894 307.131 20.2082 307.131 19.9798ZM308.249 19.9798V19.3337H307.946V19.4913C307.854 19.3731 307.711 19.3022 307.509 19.3022C307.123 19.3022 306.82 19.5858 306.82 19.9798C306.82 20.3737 307.123 20.6573 307.509 20.6573C307.703 20.6573 307.846 20.5864 307.946 20.4682V20.6258H308.249V19.9798ZM306.56 20.6258V19.8143C306.56 19.507 306.35 19.3022 306.013 19.3022C305.837 19.3022 305.652 19.3495 305.526 19.5307C305.434 19.3889 305.282 19.3022 305.072 19.3022C304.929 19.3022 304.778 19.3416 304.669 19.4913V19.3337H304.366V20.6258H304.669V19.9088C304.669 19.6882 304.803 19.5622 305.005 19.5622C305.207 19.5622 305.308 19.6804 305.308 19.901V20.6179H305.61V19.901C305.61 19.6804 305.753 19.5543 305.946 19.5543C306.148 19.5543 306.249 19.6725 306.249 19.8931V20.61H306.56V20.6258Z" fill="#0C0C0D"/>
<rect x="336" y="6.26221" width="32" height="17" rx="8.5" fill="#FAFAFA"/>
<path d="M349.83 19.9557L350.035 18.7226L349.577 18.7126H347.391L348.91 9.61316C348.915 9.58569 348.93 9.56007 348.953 9.54188C348.975 9.52369 349.004 9.51367 349.034 9.51367H352.72C353.944 9.51367 354.789 9.75421 355.23 10.229C355.437 10.4517 355.568 10.6845 355.632 10.9406C355.699 11.2093 355.7 11.5304 355.635 11.9221L355.63 11.9506V12.2016L355.837 12.3122C356.011 12.3994 356.149 12.4993 356.255 12.6136C356.432 12.8041 356.547 13.0461 356.595 13.333C356.645 13.6281 356.628 13.9793 356.547 14.3769C356.452 14.8342 356.3 15.2325 356.094 15.5584C355.904 15.8587 355.663 16.1078 355.377 16.3008C355.103 16.4842 354.778 16.6234 354.41 16.7125C354.054 16.8001 353.648 16.8443 353.203 16.8443H352.916C352.711 16.8443 352.512 16.9141 352.355 17.0392C352.198 17.1669 352.095 17.3413 352.063 17.5321L352.041 17.6431L351.678 19.8165L351.661 19.8963C351.657 19.9216 351.65 19.9342 351.639 19.9427C351.629 19.9505 351.615 19.9557 351.601 19.9557H349.83Z" fill="#253B80"/>
<path d="M356.033 11.9795C356.022 12.0459 356.009 12.1139 355.995 12.1837C355.509 14.5412 353.845 15.3556 351.721 15.3556H350.639C350.379 15.3556 350.16 15.5338 350.12 15.7758L349.566 19.0929L349.409 20.0332C349.383 20.1921 349.513 20.3354 349.683 20.3354H351.601C351.828 20.3354 352.021 20.1795 352.057 19.9679L352.076 19.8758L352.437 17.7109L352.46 17.5922C352.496 17.3798 352.689 17.2239 352.916 17.2239H353.203C355.062 17.2239 356.517 16.5112 356.942 14.4488C357.12 13.5872 357.028 12.8678 356.558 12.3618C356.415 12.2093 356.239 12.0827 356.033 11.9795Z" fill="#179BD7"/>
<path d="M355.524 11.7881C355.45 11.7677 355.373 11.7491 355.294 11.7324C355.215 11.7161 355.134 11.7016 355.051 11.689C354.759 11.6444 354.44 11.6233 354.098 11.6233H351.208C351.137 11.6233 351.069 11.6385 351.009 11.666C350.875 11.7265 350.776 11.8456 350.752 11.9915L350.138 15.6687L350.12 15.776C350.16 15.534 350.379 15.3558 350.639 15.3558H351.721C353.845 15.3558 355.509 14.541 355.995 12.1838C356.009 12.114 356.022 12.0461 356.033 11.9797C355.91 11.918 355.776 11.8653 355.633 11.8204C355.597 11.8093 355.561 11.7985 355.524 11.7881Z" fill="#222D65"/>
<path d="M350.752 11.9915C350.776 11.8456 350.875 11.7264 351.009 11.6663C351.07 11.6388 351.137 11.6236 351.208 11.6236H354.098C354.44 11.6236 354.759 11.6448 355.051 11.6893C355.134 11.7019 355.215 11.7164 355.294 11.7327C355.373 11.7494 355.45 11.768 355.524 11.7884C355.561 11.7988 355.597 11.8096 355.633 11.8203C355.777 11.8653 355.91 11.9183 356.033 11.9796C356.178 11.1084 356.032 10.5152 355.533 9.97804C354.983 9.38671 353.991 9.13354 352.721 9.13354H349.034C348.775 9.13354 348.553 9.31172 348.513 9.55412L346.978 18.7471C346.947 18.929 347.096 19.093 347.29 19.093H349.566L350.138 15.6687L350.752 11.9915Z" fill="#253B80"/>
<rect x="378" y="6.26221" width="32" height="17" rx="8.5" fill="#FAFAFA"/>
<path d="M393.952 18.9696H385.718C385.544 18.9696 385.544 18.9696 385.544 18.8034C385.544 18.5264 385.548 18.2497 385.542 17.973C385.54 17.8774 385.576 17.8533 385.671 17.8543C386.161 17.8579 386.648 17.856 387.136 17.856H402.19C402.39 17.856 402.372 17.8414 402.373 18.0314C402.373 18.3021 402.373 18.5727 402.373 18.8433C402.373 18.9691 402.373 18.9696 402.226 18.9696H393.952Z" fill="#E8494E"/>
<path d="M397.97 15.4772H396.951C396.949 15.4389 396.946 15.4041 396.946 15.3684C396.946 14.7164 396.946 14.0647 396.945 13.4128C396.946 13.3115 396.938 13.2103 396.921 13.1103C396.845 12.7031 396.572 12.6197 396.243 12.6455C395.836 12.6771 395.635 12.947 395.61 13.2913C395.585 13.6403 395.596 13.9917 395.594 14.3419C395.592 14.6802 395.594 15.0184 395.594 15.3567V15.4735H394.576V15.3691C394.576 14.705 394.58 14.0406 394.573 13.3765C394.574 13.2418 394.552 13.1079 394.509 12.9794C394.411 12.6992 394.192 12.6352 393.939 12.6452C393.825 12.6487 393.714 12.6717 393.609 12.7129C393.382 12.8058 393.284 12.9957 393.245 13.2142C393.229 13.3052 393.222 13.3973 393.223 13.4894C393.221 14.1136 393.223 14.7378 393.223 15.362V15.4757H392.214V11.9066H393.145V12.3065C393.408 11.9227 393.803 11.8166 394.244 11.8149C394.69 11.8132 395.074 11.9483 395.322 12.2953C395.506 12.1797 395.669 12.0451 395.857 11.965C396.361 11.7516 396.876 11.736 397.365 12.0045C397.699 12.1872 397.859 12.4948 397.926 12.8419C397.956 13.0114 397.97 13.1832 397.969 13.3551C397.973 14.0224 397.97 14.6897 397.97 15.3569V15.4772Z" fill="#004261"/>
<path d="M402.132 15.4808C401.838 15.4808 401.558 15.482 401.279 15.4779C401.261 15.4779 401.228 15.4368 401.228 15.4134C401.222 15.316 401.225 15.2187 401.225 15.0992C401.158 15.1661 401.11 15.2209 401.054 15.2696C400.858 15.4368 400.618 15.5061 400.363 15.5409C400.028 15.5871 399.694 15.5777 399.373 15.4662C399.084 15.3662 398.887 15.172 398.78 14.9033C398.651 14.5877 398.653 14.2375 398.786 13.9233C398.893 13.6627 399.115 13.5128 399.384 13.4159C399.705 13.2998 400.042 13.2796 400.381 13.2726C400.628 13.2675 400.875 13.2726 401.121 13.2726C401.194 12.9772 401.055 12.7026 400.758 12.6452C400.516 12.5985 400.273 12.5856 400.042 12.6898C399.91 12.7489 399.835 12.8533 399.793 12.9818C399.784 13.0081 399.746 13.0436 399.721 13.0438C399.419 13.0477 399.116 13.0458 398.813 13.045C398.8 13.0426 398.788 13.0386 398.776 13.0331C398.797 12.8229 398.871 12.6204 398.992 12.4425C399.267 12.0337 399.687 11.8675 400.175 11.8292C400.553 11.7996 400.929 11.8093 401.292 11.9334C401.77 12.0967 402.035 12.4221 402.112 12.8888C402.127 12.9952 402.134 13.1026 402.132 13.21C402.134 13.9265 402.134 14.6428 402.132 15.3591V15.4808ZM401.129 14.0036C400.883 14.0036 400.637 13.9951 400.391 14.0068C400.227 14.0173 400.064 14.0412 399.904 14.0781C399.838 14.0944 399.78 14.1312 399.739 14.1827C399.576 14.4018 399.683 14.712 399.956 14.7736C400.125 14.8118 400.309 14.8089 400.485 14.7979C400.972 14.769 401.153 14.4402 401.129 14.0036Z" fill="#004261"/>
<path d="M388.239 13.2708C388.225 13.1464 388.226 13.0318 388.197 12.9242C388.18 12.8657 388.149 12.812 388.104 12.7682C388.06 12.7244 388.005 12.6919 387.944 12.6738C387.691 12.5898 387.432 12.5806 387.179 12.668C387.005 12.7286 386.905 12.858 386.872 13.0383H385.871C385.94 12.43 386.354 11.9919 386.991 11.8702C387.442 11.7831 387.893 11.7882 388.339 11.9175C388.837 12.062 389.201 12.4655 389.213 12.96C389.233 13.7874 389.221 14.6136 389.222 15.4403C389.221 15.4519 389.218 15.4633 389.214 15.4743H388.325V15.0874C388.274 15.1429 388.24 15.1809 388.204 15.2166C388.019 15.4006 387.784 15.4892 387.525 15.531C387.221 15.5797 386.917 15.5831 386.616 15.5116C386.156 15.4025 385.887 15.1166 385.811 14.6842C385.78 14.4962 385.782 14.305 385.817 14.1176C385.878 13.7579 386.126 13.5355 386.481 13.4119C386.797 13.3017 387.127 13.2788 387.46 13.2715C387.709 13.2664 387.96 13.2708 388.239 13.2708ZM388.215 14.0103C388.207 14.0066 388.199 14.004 388.19 14.0028C387.958 14.0028 387.726 13.9947 387.497 14.0064C387.329 14.0158 387.162 14.0398 386.998 14.078C386.925 14.1 386.862 14.1453 386.82 14.2062C386.787 14.2555 386.765 14.3113 386.758 14.3695C386.751 14.4277 386.759 14.4867 386.779 14.5418C386.8 14.597 386.834 14.6468 386.879 14.6876C386.924 14.7283 386.978 14.7588 387.037 14.7766C387.221 14.8358 387.408 14.8151 387.597 14.7995C388.106 14.7572 388.263 14.3522 388.215 14.0103Z" fill="#004261"/>
<path d="M391.534 14.6665V15.4749C391.305 15.508 391.071 15.5054 390.843 15.4674C390.375 15.3859 390.183 15.1201 390.14 14.6945C390.127 14.5694 390.124 14.4431 390.123 14.3173C390.122 13.0356 390.122 11.754 390.123 10.4723V10.3547H391.133C391.135 10.3946 391.139 10.4363 391.139 10.4764C391.139 11.743 391.139 13.0096 391.139 14.2762V14.3224C391.139 14.6144 391.189 14.6612 391.503 14.6592C391.513 14.6609 391.524 14.6634 391.534 14.6665Z" fill="#004261"/>
<rect x="420" y="6.26221" width="33" height="17" rx="8.5" fill="#FAFAFA"/>
<mask id="mask0_3_6006" style="mask-type:alpha" maskUnits="userSpaceOnUse" x="431" y="8" width="9" height="14">
<path d="M431.104 8.37085H439.745V21.1535H431.104V8.37085Z" fill="white"/>
</mask>
<g mask="url(#mask0_3_6006)">
<path fill-rule="evenodd" clip-rule="evenodd" d="M438.955 8.37085C438.818 8.37085 438.689 8.40319 438.578 8.45989H438.577C438.577 8.45989 431.505 12.1965 431.501 12.1989C431.273 12.316 431.104 12.5319 431.104 12.7888V19.8183C431.104 20.1183 431.354 20.3637 431.656 20.4473L434.422 21.1279C434.487 21.1443 434.556 21.1535 434.628 21.1535C435.033 21.1535 435.406 20.8684 435.405 20.5091V19.5242L433.909 19.3541C433.547 19.307 433.277 19.004 433.275 18.6569V13.611C433.287 13.3289 433.478 13.0896 433.746 12.9834L439.745 10.7504V9.028C439.713 8.66036 439.365 8.37085 438.955 8.37085Z" fill="#1DDBA9"/>
</g>
<path fill-rule="evenodd" clip-rule="evenodd" d="M436.01 14.1952C435.667 14.2808 435.406 14.5524 435.406 14.8909V19.5242L436.8 19.6827C437.236 19.7362 437.58 19.3629 437.58 18.9684L437.586 16.4072C437.585 16.0613 437.905 15.7876 438.279 15.7377L441.234 15.3967C441.235 15.3966 441.235 15.3963 441.236 15.3963C441.591 15.3509 441.896 15.0993 441.896 14.7707V10.9126C441.896 10.5553 441.519 10.2932 441.123 10.2932C441.028 10.2932 440.937 10.3098 440.852 10.3384L439.746 10.7504V12.7429C439.746 13.0625 439.506 13.3327 439.189 13.4239L436.01 14.1952Z" fill="#0D1640"/>
<rect x="463" y="6.26221" width="33" height="17" rx="8.5" fill="#FAFAFA"/>
<g clip-path="url(#clip1_3_6006)">
<path d="M472.36 11.6285C472.097 11.9138 471.674 12.1388 471.252 12.1066C471.2 11.7209 471.406 11.3112 471.648 11.058C471.912 10.7648 472.374 10.5559 472.747 10.5398C472.791 10.9415 472.62 11.3353 472.36 11.6285ZM472.743 12.1829C472.132 12.1508 471.609 12.5003 471.318 12.5003C471.024 12.5003 470.58 12.199 470.096 12.207C469.467 12.2151 468.883 12.5405 468.562 13.0588C467.902 14.0953 468.39 15.6299 469.028 16.4736C469.34 16.8914 469.714 17.3494 470.206 17.3334C470.672 17.3173 470.857 17.0561 471.419 17.0561C471.987 17.0561 472.149 17.3334 472.642 17.3253C473.152 17.3173 473.473 16.9075 473.785 16.4897C474.141 16.0156 474.286 15.5536 474.295 15.5295C474.286 15.5215 473.31 15.18 473.301 14.1515C473.292 13.2918 474.071 12.882 474.106 12.8579C473.666 12.2633 472.98 12.199 472.743 12.1829ZM476.273 11.0179V17.2811H477.337V15.1398H478.81C480.155 15.1398 481.1 14.2961 481.1 13.0748C481.1 11.8535 480.173 11.0179 478.845 11.0179H476.273ZM477.337 11.8374H478.564C479.487 11.8374 480.015 12.2874 480.015 13.0788C480.015 13.8703 479.487 14.3243 478.559 14.3243H477.337V11.8374ZM483.044 17.3293C483.712 17.3293 484.332 17.02 484.613 16.5299H484.635V17.2811H485.62V14.1636C485.62 13.2596 484.829 12.6771 483.611 12.6771C482.481 12.6771 481.646 13.2677 481.615 14.0792H482.573C482.652 13.6935 483.044 13.4404 483.58 13.4404C484.231 13.4404 484.596 13.7176 484.596 14.2278V14.5733L483.268 14.6457C482.033 14.714 481.364 15.176 481.364 15.9795C481.364 16.791 482.055 17.3293 483.044 17.3293ZM483.329 16.5861C482.762 16.5861 482.402 16.337 482.402 15.9554C482.402 15.5616 482.749 15.3326 483.413 15.2965L484.596 15.2282V15.5817C484.596 16.1683 484.05 16.5861 483.329 16.5861ZM486.935 18.9845C487.972 18.9845 488.46 18.623 488.887 17.5262L490.755 12.7374H489.674L488.421 16.4375H488.399L487.146 12.7374H486.033L487.836 17.2972L487.739 17.5744C487.576 18.0444 487.313 18.2252 486.842 18.2252C486.759 18.2252 486.596 18.2172 486.53 18.2092V18.9604C486.592 18.9765 486.855 18.9845 486.935 18.9845Z" fill="black"/>
</g>
<rect x="506" y="6.26221" width="33" height="17" rx="8.5" fill="#FAFAFA"/>
<g clip-path="url(#clip2_3_6006)">
<path d="M521.847 14.6598V17.2809H520.956V10.8081H523.32C523.602 10.8026 523.883 10.8492 524.146 10.9454C524.408 11.0416 524.648 11.1854 524.851 11.3684C525.056 11.5404 525.219 11.7512 525.329 11.9868C525.44 12.2225 525.495 12.4774 525.49 12.7345C525.496 12.9929 525.442 13.2495 525.332 13.4866C525.221 13.7237 525.057 13.9358 524.851 14.1082C524.438 14.476 523.927 14.6596 523.32 14.6593H521.847V14.6598ZM521.847 11.605V13.8645H523.342C523.506 13.869 523.669 13.8416 523.821 13.7839C523.973 13.7263 524.11 13.6398 524.224 13.5298C524.338 13.427 524.428 13.304 524.489 13.1682C524.551 13.0323 524.582 12.8863 524.582 12.7388C524.582 12.5914 524.551 12.4454 524.489 12.3095C524.428 12.1737 524.338 12.0507 524.224 11.9479C524.112 11.8356 523.975 11.7469 523.823 11.6877C523.671 11.6285 523.507 11.6001 523.342 11.6044H521.847V11.605Z" fill="#5F6368"/>
<path d="M527.544 12.7075C528.203 12.7075 528.723 12.8718 529.105 13.2002C529.486 13.5287 529.676 13.979 529.676 14.5513V17.2808H528.823V16.6662H528.785C528.416 17.1723 527.925 17.4254 527.312 17.4254C526.789 17.4254 526.351 17.2808 525.999 16.9916C525.83 16.8588 525.695 16.6926 525.604 16.505C525.512 16.3173 525.467 16.113 525.471 15.907C525.471 15.4487 525.657 15.0843 526.028 14.8136C526.399 14.543 526.895 14.4074 527.515 14.4067C528.044 14.4067 528.48 14.4971 528.823 14.6778V14.4878C528.824 14.3473 528.791 14.2084 528.728 14.0811C528.664 13.9538 528.571 13.8413 528.455 13.7518C528.219 13.5534 527.912 13.4452 527.594 13.4486C527.096 13.4486 526.702 13.6446 526.412 14.0364L525.627 13.5752C526.059 12.9967 526.698 12.7075 527.544 12.7075ZM526.391 15.9251C526.391 16.0309 526.417 16.1353 526.469 16.2296C526.52 16.324 526.595 16.4055 526.687 16.4674C526.884 16.612 527.129 16.6886 527.379 16.6843C527.756 16.6837 528.116 16.544 528.382 16.2959C528.677 16.0366 528.825 15.7324 528.825 15.3833C528.547 15.1767 528.16 15.0734 527.662 15.0734C527.3 15.0734 526.998 15.1549 526.757 15.3177C526.512 15.483 526.391 15.6839 526.391 15.9251Z" fill="#5F6368"/>
<path d="M534.57 12.8521L531.594 19.2329H530.674L531.778 17.0003L529.821 12.8521H530.79L532.204 16.0335H532.224L533.6 12.8521H534.57Z" fill="#5F6368"/>
<path d="M518.245 14.0947C518.246 13.8413 518.223 13.5884 518.177 13.3386H514.418V14.7708H516.571C516.527 14.9995 516.433 15.2175 516.297 15.4118C516.16 15.606 515.982 15.7723 515.775 15.9008V16.8304H517.06C517.812 16.1833 518.245 15.2263 518.245 14.0947Z" fill="#4285F4"/>
<path d="M514.418 17.7285C515.493 17.7285 516.399 17.399 517.06 16.8309L515.775 15.9013C515.417 16.1275 514.956 16.2566 514.418 16.2566C513.378 16.2566 512.495 15.6028 512.18 14.7217H510.856V15.6797C511.188 16.2956 511.697 16.8133 512.326 17.1751C512.954 17.5369 513.679 17.7285 514.418 17.7285Z" fill="#34A853"/>
<path d="M512.18 14.7217C512.013 14.26 512.013 13.7601 512.18 13.2984V12.3403H510.856C510.577 12.8584 510.432 13.4302 510.432 14.0101C510.432 14.5899 510.577 15.1617 510.856 15.6798L512.18 14.7217Z" fill="#FBBC04"/>
<path d="M514.418 11.7634C514.986 11.7548 515.535 11.9551 515.947 12.3212L517.085 11.2599C516.363 10.6278 515.407 10.2807 514.418 10.2915C513.679 10.2915 512.954 10.4831 512.326 10.8449C511.697 11.2067 511.188 11.7244 510.856 12.3403L512.18 13.2983C512.495 12.4173 513.378 11.7634 514.418 11.7634Z" fill="#EA4335"/>
</g>
<defs>
<linearGradient id="paint0_linear_3_6006" x1="170.703" y1="26.6566" x2="199.417" y2="1.93432" gradientUnits="userSpaceOnUse">
<stop stop-color="#4E855C"/>
<stop offset="0.486217" stop-color="#356D99"/>
<stop offset="1" stop-color="#112758"/>
</linearGradient>
<clipPath id="clip0_3_6006">
<rect width="11.3027" height="9.84593" fill="white" transform="translate(174.207 9.8418)"/>
</clipPath>
<clipPath id="clip1_3_6006">
<rect width="22.5099" height="8.44474" fill="white" transform="translate(468.245 10.5398)"/>
</clipPath>
<clipPath id="clip2_3_6006">
<rect width="24.1371" height="8.94149" fill="white" transform="translate(510.431 10.2915)"/>
</clipPath>
</defs>
</svg>
