<svg width="162" height="40" viewBox="0 0 162 40" fill="none" xmlns="http://www.w3.org/2000/svg">
<path d="M17.0003 17.9935C17.0887 16.1071 17.8653 14.3287 19.1689 13.0268C20.4726 11.7249 22.2036 10.9992 24.0032 11C25.8028 11.0008 27.5332 11.7282 28.8357 13.0313C30.1383 14.3345 30.9133 16.1136 31.0002 18" stroke="#0C0C0D" stroke-width="1.5" stroke-linecap="round" stroke-linejoin="round"/>
<path d="M17.0003 23V25.9206C17.0003 26.4721 17.1998 27.001 17.5548 27.391C17.9099 27.7809 18.3914 28 18.8936 28H21.0003" stroke="#0C0C0D" stroke-width="1.5" stroke-linecap="round" stroke-linejoin="round"/>
<path d="M15.0002 19C15.0002 18.4477 15.448 18 16.0002 18H18.0002V23H16.0002C15.448 23 15.0002 22.5523 15.0002 22V19Z" stroke="#0C0C0D" stroke-width="1.5"/>
<rect x="21.0002" y="27" width="6" height="2" rx="1" stroke="#0C0C0D" stroke-width="1.5"/>
<path d="M30.0001 18H32.0001C32.5523 18 33.0001 18.4477 33.0001 19V22C33.0001 22.5523 32.5523 23 32.0001 23H30.0001V18Z" stroke="#0C0C0D" stroke-width="1.5"/>
<path d="M46.6694 11.8C46.6694 11.144 46.8134 10.572 47.1014 10.084C47.3974 9.588 47.7814 9.2 48.2534 8.92C48.7254 8.64 49.2374 8.5 49.7894 8.5C50.1894 8.5 50.5534 8.552 50.8814 8.656C51.2174 8.76 51.5214 8.908 51.7934 9.1C52.0654 9.284 52.2974 9.5 52.4894 9.748V8.404C52.1374 8.092 51.7534 7.86 51.3374 7.708C50.9214 7.556 50.4054 7.48 49.7894 7.48C49.2054 7.48 48.6574 7.588 48.1454 7.804C47.6414 8.012 47.1974 8.312 46.8134 8.704C46.4294 9.088 46.1294 9.544 45.9134 10.072C45.6974 10.6 45.5894 11.176 45.5894 11.8C45.5894 12.424 45.6974 13 45.9134 13.528C46.1294 14.056 46.4294 14.516 46.8134 14.908C47.1974 15.292 47.6414 15.592 48.1454 15.808C48.6574 16.016 49.2054 16.12 49.7894 16.12C50.4054 16.12 50.9214 16.044 51.3374 15.892C51.7534 15.74 52.1374 15.508 52.4894 15.196V13.852C52.2974 14.1 52.0654 14.32 51.7934 14.512C51.5214 14.696 51.2174 14.84 50.8814 14.944C50.5534 15.048 50.1894 15.1 49.7894 15.1C49.2374 15.1 48.7254 14.96 48.2534 14.68C47.7814 14.4 47.3974 14.012 47.1014 13.516C46.8134 13.02 46.6694 12.448 46.6694 11.8ZM53.7442 13.24C53.7442 13.792 53.8682 14.288 54.1162 14.728C54.3722 15.16 54.7162 15.5 55.1482 15.748C55.5802 15.996 56.0642 16.12 56.6002 16.12C57.1442 16.12 57.6282 15.996 58.0522 15.748C58.4842 15.5 58.8242 15.16 59.0722 14.728C59.3282 14.288 59.4562 13.792 59.4562 13.24C59.4562 12.68 59.3282 12.184 59.0722 11.752C58.8242 11.32 58.4842 10.98 58.0522 10.732C57.6282 10.484 57.1442 10.36 56.6002 10.36C56.0642 10.36 55.5802 10.484 55.1482 10.732C54.7162 10.98 54.3722 11.32 54.1162 11.752C53.8682 12.184 53.7442 12.68 53.7442 13.24ZM54.7162 13.24C54.7162 12.856 54.7962 12.516 54.9562 12.22C55.1242 11.916 55.3482 11.68 55.6282 11.512C55.9162 11.344 56.2402 11.26 56.6002 11.26C56.9602 11.26 57.2802 11.344 57.5602 11.512C57.8482 11.68 58.0722 11.916 58.2322 12.22C58.4002 12.516 58.4842 12.856 58.4842 13.24C58.4842 13.624 58.4002 13.964 58.2322 14.26C58.0722 14.556 57.8482 14.792 57.5602 14.968C57.2802 15.136 56.9602 15.22 56.6002 15.22C56.2402 15.22 55.9162 15.136 55.6282 14.968C55.3482 14.792 55.1242 14.556 54.9562 14.26C54.7962 13.964 54.7162 13.624 54.7162 13.24ZM64.315 12.64V16H65.275V12.52C65.275 11.856 65.103 11.332 64.759 10.948C64.423 10.556 63.963 10.36 63.379 10.36C63.019 10.36 62.699 10.44 62.419 10.6C62.147 10.76 61.919 11.008 61.735 11.344V10.48H60.775V16H61.735V12.64C61.735 12.368 61.791 12.128 61.903 11.92C62.023 11.712 62.187 11.552 62.395 11.44C62.611 11.32 62.859 11.26 63.139 11.26C63.523 11.26 63.815 11.376 64.015 11.608C64.215 11.84 64.315 12.184 64.315 12.64ZM67.3077 14.308L66.5517 14.776C66.6557 14.992 66.8077 15.204 67.0077 15.412C67.2157 15.62 67.4677 15.792 67.7637 15.928C68.0597 16.056 68.3917 16.12 68.7597 16.12C69.3277 16.12 69.7837 15.96 70.1277 15.64C70.4797 15.32 70.6557 14.92 70.6557 14.44C70.6557 14.112 70.5757 13.844 70.4157 13.636C70.2637 13.428 70.0557 13.252 69.7917 13.108C69.5277 12.956 69.2357 12.816 68.9157 12.688C68.7237 12.608 68.5397 12.524 68.3637 12.436C68.1877 12.348 68.0437 12.248 67.9317 12.136C67.8197 12.024 67.7637 11.896 67.7637 11.752C67.7637 11.568 67.8357 11.432 67.9797 11.344C68.1237 11.256 68.2957 11.212 68.4957 11.212C68.7837 11.212 69.0397 11.28 69.2637 11.416C69.4957 11.552 69.6877 11.724 69.8397 11.932L70.6077 11.44C70.4957 11.232 70.3397 11.048 70.1397 10.888C69.9397 10.728 69.7077 10.6 69.4437 10.504C69.1877 10.408 68.9117 10.36 68.6157 10.36C68.3197 10.36 68.0317 10.412 67.7517 10.516C67.4797 10.62 67.2557 10.78 67.0797 10.996C66.9117 11.212 66.8277 11.484 66.8277 11.812C66.8277 12.132 66.9077 12.4 67.0677 12.616C67.2357 12.824 67.4397 12.996 67.6797 13.132C67.9277 13.26 68.1717 13.372 68.4117 13.468C68.6277 13.548 68.8317 13.636 69.0237 13.732C69.2157 13.82 69.3717 13.932 69.4917 14.068C69.6197 14.196 69.6837 14.356 69.6837 14.548C69.6837 14.764 69.6037 14.936 69.4437 15.064C69.2917 15.184 69.0797 15.244 68.8077 15.244C68.5837 15.244 68.3757 15.204 68.1837 15.124C67.9997 15.036 67.8357 14.92 67.6917 14.776C67.5477 14.632 67.4197 14.476 67.3077 14.308ZM74.0555 16.12C74.6475 16.12 75.1595 16.004 75.5915 15.772C76.0315 15.532 76.3955 15.18 76.6835 14.716L75.9035 14.224C75.7035 14.56 75.4595 14.812 75.1715 14.98C74.8835 15.14 74.5515 15.22 74.1755 15.22C73.7995 15.22 73.4795 15.14 73.2155 14.98C72.9515 14.82 72.7515 14.588 72.6155 14.284C72.4795 13.98 72.4115 13.612 72.4115 13.18C72.4195 12.756 72.4915 12.4 72.6275 12.112C72.7715 11.816 72.9715 11.592 73.2275 11.44C73.4915 11.28 73.8075 11.2 74.1755 11.2C74.4875 11.2 74.7595 11.268 74.9915 11.404C75.2235 11.54 75.4035 11.728 75.5315 11.968C75.6675 12.208 75.7355 12.492 75.7355 12.82C75.7355 12.876 75.7235 12.948 75.6995 13.036C75.6755 13.116 75.6515 13.176 75.6275 13.216L76.0115 12.664H72.0515V13.48H76.7675C76.7675 13.464 76.7675 13.428 76.7675 13.372C76.7755 13.308 76.7795 13.248 76.7795 13.192C76.7795 12.608 76.6755 12.104 76.4675 11.68C76.2595 11.256 75.9595 10.932 75.5675 10.708C75.1835 10.476 74.7195 10.36 74.1755 10.36C73.6315 10.36 73.1515 10.48 72.7355 10.72C72.3275 10.96 72.0075 11.296 71.7755 11.728C71.5515 12.16 71.4395 12.664 71.4395 13.24C71.4395 13.808 71.5475 14.308 71.7635 14.74C71.9875 15.172 72.2955 15.512 72.6875 15.76C73.0875 16 73.5435 16.12 74.0555 16.12ZM78.0953 8.2C78.0953 8.376 78.1593 8.532 78.2873 8.668C78.4233 8.796 78.5793 8.86 78.7553 8.86C78.9393 8.86 79.0953 8.796 79.2233 8.668C79.3513 8.532 79.4153 8.376 79.4153 8.2C79.4153 8.016 79.3513 7.86 79.2233 7.732C79.0953 7.604 78.9393 7.54 78.7553 7.54C78.5793 7.54 78.4233 7.604 78.2873 7.732C78.1593 7.86 78.0953 8.016 78.0953 8.2ZM78.2753 10.48V16H79.2353V10.48H78.2753ZM81.2125 6.64V16H82.1725V6.64H81.2125ZM88.0078 14.296C88.0078 14.096 88.0558 13.924 88.1518 13.78C88.2478 13.636 88.3918 13.524 88.5838 13.444C88.7838 13.364 89.0398 13.324 89.3518 13.324C89.6878 13.324 90.0038 13.368 90.2998 13.456C90.5958 13.536 90.8838 13.672 91.1638 13.864V13.3C91.1078 13.228 90.9998 13.136 90.8398 13.024C90.6798 12.904 90.4638 12.8 90.1918 12.712C89.9278 12.616 89.5958 12.568 89.1958 12.568C88.5158 12.568 87.9838 12.732 87.5998 13.06C87.2238 13.38 87.0358 13.808 87.0358 14.344C87.0358 14.72 87.1238 15.04 87.2998 15.304C87.4758 15.568 87.7078 15.772 87.9958 15.916C88.2918 16.052 88.6078 16.12 88.9438 16.12C89.2478 16.12 89.5518 16.064 89.8558 15.952C90.1678 15.84 90.4278 15.668 90.6358 15.436C90.8518 15.204 90.9598 14.912 90.9598 14.56L90.7678 13.84C90.7678 14.128 90.6958 14.384 90.5518 14.608C90.4158 14.824 90.2278 14.992 89.9878 15.112C89.7558 15.232 89.4918 15.292 89.1958 15.292C88.9638 15.292 88.7558 15.256 88.5718 15.184C88.3958 15.104 88.2558 14.988 88.1518 14.836C88.0558 14.684 88.0078 14.504 88.0078 14.296ZM87.8638 11.752C87.9518 11.688 88.0718 11.612 88.2238 11.524C88.3758 11.436 88.5598 11.36 88.7758 11.296C88.9998 11.232 89.2478 11.2 89.5198 11.2C89.6878 11.2 89.8478 11.216 89.9998 11.248C90.1518 11.28 90.2838 11.332 90.3958 11.404C90.5158 11.476 90.6078 11.576 90.6718 11.704C90.7358 11.824 90.7678 11.98 90.7678 12.172V16H91.7278V12.04C91.7278 11.68 91.6358 11.376 91.4518 11.128C91.2758 10.88 91.0238 10.692 90.6958 10.564C90.3758 10.428 89.9998 10.36 89.5678 10.36C89.0558 10.36 88.6158 10.436 88.2478 10.588C87.8878 10.74 87.6038 10.892 87.3958 11.044L87.8638 11.752ZM92.3945 10.48L95.0345 16.42L97.6745 10.48H96.5945L95.0345 14.38L93.4745 10.48H92.3945ZM99.0117 14.296C99.0117 14.096 99.0597 13.924 99.1557 13.78C99.2517 13.636 99.3957 13.524 99.5877 13.444C99.7877 13.364 100.044 13.324 100.356 13.324C100.692 13.324 101.008 13.368 101.304 13.456C101.6 13.536 101.888 13.672 102.168 13.864V13.3C102.112 13.228 102.004 13.136 101.844 13.024C101.684 12.904 101.468 12.8 101.196 12.712C100.932 12.616 100.6 12.568 100.2 12.568C99.5197 12.568 98.9877 12.732 98.6037 13.06C98.2277 13.38 98.0397 13.808 98.0397 14.344C98.0397 14.72 98.1277 15.04 98.3037 15.304C98.4797 15.568 98.7117 15.772 98.9997 15.916C99.2957 16.052 99.6117 16.12 99.9477 16.12C100.252 16.12 100.556 16.064 100.86 15.952C101.172 15.84 101.432 15.668 101.64 15.436C101.856 15.204 101.964 14.912 101.964 14.56L101.772 13.84C101.772 14.128 101.7 14.384 101.556 14.608C101.42 14.824 101.232 14.992 100.992 15.112C100.76 15.232 100.496 15.292 100.2 15.292C99.9677 15.292 99.7597 15.256 99.5757 15.184C99.3997 15.104 99.2597 14.988 99.1557 14.836C99.0597 14.684 99.0117 14.504 99.0117 14.296ZM98.8677 11.752C98.9557 11.688 99.0757 11.612 99.2277 11.524C99.3797 11.436 99.5637 11.36 99.7797 11.296C100.004 11.232 100.252 11.2 100.524 11.2C100.692 11.2 100.852 11.216 101.004 11.248C101.156 11.28 101.288 11.332 101.4 11.404C101.52 11.476 101.612 11.576 101.676 11.704C101.74 11.824 101.772 11.98 101.772 12.172V16H102.732V12.04C102.732 11.68 102.64 11.376 102.456 11.128C102.28 10.88 102.028 10.692 101.7 10.564C101.38 10.428 101.004 10.36 100.572 10.36C100.06 10.36 99.6197 10.436 99.2517 10.588C98.8917 10.74 98.6077 10.892 98.3997 11.044L98.8677 11.752ZM107.897 12.64V16H108.857V12.52C108.857 11.856 108.685 11.332 108.341 10.948C108.005 10.556 107.545 10.36 106.961 10.36C106.601 10.36 106.281 10.44 106.001 10.6C105.729 10.76 105.501 11.008 105.317 11.344V10.48H104.357V16H105.317V12.64C105.317 12.368 105.373 12.128 105.485 11.92C105.605 11.712 105.769 11.552 105.977 11.44C106.193 11.32 106.441 11.26 106.721 11.26C107.105 11.26 107.397 11.376 107.597 11.608C107.797 11.84 107.897 12.184 107.897 12.64ZM109.822 10.48V11.38H112.582V10.48H109.822ZM110.722 8.56V16H111.682V8.56H110.722ZM116.242 10.48L118.882 16.42L121.522 10.48H120.442L118.882 14.38L117.322 10.48H116.242ZM124.388 16.12C124.98 16.12 125.492 16.004 125.924 15.772C126.364 15.532 126.728 15.18 127.016 14.716L126.236 14.224C126.036 14.56 125.792 14.812 125.504 14.98C125.216 15.14 124.884 15.22 124.508 15.22C124.132 15.22 123.812 15.14 123.548 14.98C123.284 14.82 123.084 14.588 122.948 14.284C122.812 13.98 122.744 13.612 122.744 13.18C122.752 12.756 122.824 12.4 122.96 12.112C123.104 11.816 123.304 11.592 123.56 11.44C123.824 11.28 124.14 11.2 124.508 11.2C124.82 11.2 125.092 11.268 125.324 11.404C125.556 11.54 125.736 11.728 125.864 11.968C126 12.208 126.068 12.492 126.068 12.82C126.068 12.876 126.056 12.948 126.032 13.036C126.008 13.116 125.984 13.176 125.96 13.216L126.344 12.664H122.384V13.48H127.1C127.1 13.464 127.1 13.428 127.1 13.372C127.108 13.308 127.112 13.248 127.112 13.192C127.112 12.608 127.008 12.104 126.8 11.68C126.592 11.256 126.292 10.932 125.9 10.708C125.516 10.476 125.052 10.36 124.508 10.36C123.964 10.36 123.484 10.48 123.068 10.72C122.66 10.96 122.34 11.296 122.108 11.728C121.884 12.16 121.772 12.664 121.772 13.24C121.772 13.808 121.88 14.308 122.096 14.74C122.32 15.172 122.628 15.512 123.02 15.76C123.42 16 123.876 16.12 124.388 16.12ZM131.967 12.64V16H132.927V12.52C132.927 11.856 132.755 11.332 132.411 10.948C132.075 10.556 131.615 10.36 131.031 10.36C130.671 10.36 130.351 10.44 130.071 10.6C129.799 10.76 129.571 11.008 129.387 11.344V10.48H128.427V16H129.387V12.64C129.387 12.368 129.443 12.128 129.555 11.92C129.675 11.712 129.839 11.552 130.047 11.44C130.263 11.32 130.511 11.26 130.791 11.26C131.175 11.26 131.467 11.376 131.667 11.608C131.867 11.84 131.967 12.184 131.967 12.64ZM133.892 10.48V11.38H136.652V10.48H133.892ZM134.792 8.56V16H135.752V8.56H134.792ZM139.751 16.12C140.343 16.12 140.855 16.004 141.287 15.772C141.727 15.532 142.091 15.18 142.379 14.716L141.599 14.224C141.399 14.56 141.155 14.812 140.867 14.98C140.579 15.14 140.247 15.22 139.871 15.22C139.495 15.22 139.175 15.14 138.911 14.98C138.647 14.82 138.447 14.588 138.311 14.284C138.175 13.98 138.107 13.612 138.107 13.18C138.115 12.756 138.187 12.4 138.323 12.112C138.467 11.816 138.667 11.592 138.923 11.44C139.187 11.28 139.503 11.2 139.871 11.2C140.183 11.2 140.455 11.268 140.687 11.404C140.919 11.54 141.099 11.728 141.227 11.968C141.363 12.208 141.431 12.492 141.431 12.82C141.431 12.876 141.419 12.948 141.395 13.036C141.371 13.116 141.347 13.176 141.323 13.216L141.707 12.664H137.747V13.48H142.463C142.463 13.464 142.463 13.428 142.463 13.372C142.471 13.308 142.475 13.248 142.475 13.192C142.475 12.608 142.371 12.104 142.163 11.68C141.955 11.256 141.655 10.932 141.263 10.708C140.879 10.476 140.415 10.36 139.871 10.36C139.327 10.36 138.847 10.48 138.431 10.72C138.023 10.96 137.703 11.296 137.471 11.728C137.247 12.16 137.135 12.664 137.135 13.24C137.135 13.808 137.243 14.308 137.459 14.74C137.683 15.172 137.991 15.512 138.383 15.76C138.783 16 139.239 16.12 139.751 16.12ZM42.989 29.576H49.301V28.076H42.989V29.576ZM45.341 25.664V31.988H46.949V25.664H45.341ZM53.3 27.908C53.932 27.908 54.496 27.824 54.992 27.656C55.488 27.488 55.88 27.244 56.168 26.924C56.456 26.596 56.6 26.204 56.6 25.748C56.6 25.324 56.492 24.94 56.276 24.596C56.06 24.252 55.744 23.976 55.328 23.768C54.92 23.56 54.424 23.456 53.84 23.456C53.288 23.456 52.804 23.564 52.388 23.78C51.972 23.996 51.644 24.292 51.404 24.668C51.172 25.036 51.056 25.46 51.056 25.94H52.652C52.652 25.628 52.764 25.372 52.988 25.172C53.22 24.964 53.504 24.86 53.84 24.86C54.08 24.86 54.276 24.9 54.428 24.98C54.58 25.06 54.696 25.176 54.776 25.328C54.856 25.48 54.896 25.656 54.896 25.856C54.896 26.016 54.856 26.172 54.776 26.324C54.704 26.468 54.6 26.6 54.464 26.72C54.328 26.832 54.16 26.92 53.96 26.984C53.768 27.048 53.548 27.08 53.3 27.08V27.908ZM53.768 32.168C54.392 32.168 54.932 32.068 55.388 31.868C55.852 31.66 56.208 31.372 56.456 31.004C56.712 30.636 56.84 30.212 56.84 29.732C56.84 29.308 56.752 28.948 56.576 28.652C56.4 28.348 56.152 28.1 55.832 27.908C55.512 27.708 55.136 27.564 54.704 27.476C54.28 27.388 53.812 27.344 53.3 27.344V28.256C53.596 28.256 53.856 28.288 54.08 28.352C54.312 28.408 54.504 28.492 54.656 28.604C54.816 28.716 54.936 28.856 55.016 29.024C55.096 29.184 55.136 29.36 55.136 29.552C55.136 29.816 55.08 30.036 54.968 30.212C54.856 30.388 54.7 30.524 54.5 30.62C54.308 30.708 54.08 30.752 53.816 30.752C53.56 30.752 53.324 30.704 53.108 30.608C52.892 30.504 52.72 30.356 52.592 30.164C52.464 29.972 52.4 29.74 52.4 29.468H50.696C50.696 29.828 50.768 30.172 50.912 30.5C51.056 30.82 51.26 31.108 51.524 31.364C51.788 31.612 52.108 31.808 52.484 31.952C52.86 32.096 53.288 32.168 53.768 32.168ZM60.4601 27.908C61.0921 27.908 61.6561 27.824 62.1521 27.656C62.6481 27.488 63.0401 27.244 63.3281 26.924C63.6161 26.596 63.7601 26.204 63.7601 25.748C63.7601 25.324 63.6521 24.94 63.4361 24.596C63.2201 24.252 62.9041 23.976 62.4881 23.768C62.0801 23.56 61.5841 23.456 61.0001 23.456C60.4481 23.456 59.9641 23.564 59.5481 23.78C59.1321 23.996 58.8041 24.292 58.5641 24.668C58.3321 25.036 58.2161 25.46 58.2161 25.94H59.8121C59.8121 25.628 59.9241 25.372 60.1481 25.172C60.3801 24.964 60.6641 24.86 61.0001 24.86C61.2401 24.86 61.4361 24.9 61.5881 24.98C61.7401 25.06 61.8561 25.176 61.9361 25.328C62.0161 25.48 62.0561 25.656 62.0561 25.856C62.0561 26.016 62.0161 26.172 61.9361 26.324C61.8641 26.468 61.7601 26.6 61.6241 26.72C61.4881 26.832 61.3201 26.92 61.1201 26.984C60.9281 27.048 60.7081 27.08 60.4601 27.08V27.908ZM60.9281 32.168C61.5521 32.168 62.0921 32.068 62.5481 31.868C63.0121 31.66 63.3681 31.372 63.6161 31.004C63.8721 30.636 64.0001 30.212 64.0001 29.732C64.0001 29.308 63.9121 28.948 63.7361 28.652C63.5601 28.348 63.3121 28.1 62.9921 27.908C62.6721 27.708 62.2961 27.564 61.8641 27.476C61.4401 27.388 60.9721 27.344 60.4601 27.344V28.256C60.7561 28.256 61.0161 28.288 61.2401 28.352C61.4721 28.408 61.6641 28.492 61.8161 28.604C61.9761 28.716 62.0961 28.856 62.1761 29.024C62.2561 29.184 62.2961 29.36 62.2961 29.552C62.2961 29.816 62.2401 30.036 62.1281 30.212C62.0161 30.388 61.8601 30.524 61.6601 30.62C61.4681 30.708 61.2401 30.752 60.9761 30.752C60.7201 30.752 60.4841 30.704 60.2681 30.608C60.0521 30.504 59.8801 30.356 59.7521 30.164C59.6241 29.972 59.5601 29.74 59.5601 29.468H57.8561C57.8561 29.828 57.9281 30.172 58.0721 30.5C58.2161 30.82 58.4201 31.108 58.6841 31.364C58.9481 31.612 59.2681 31.808 59.6441 31.952C60.0201 32.096 60.4481 32.168 60.9281 32.168ZM68.854 25.784L70.87 25.256V32H72.538V23.456L68.854 24.236V25.784ZM77.8541 25.208H81.8861L78.5141 32H80.3621L84.4061 23.6H77.8541V25.208ZM86.7234 29.108C86.7234 28.796 86.7914 28.52 86.9274 28.28C87.0634 28.032 87.2474 27.844 87.4794 27.716C87.7194 27.58 87.9874 27.512 88.2834 27.512C88.5794 27.512 88.8434 27.58 89.0754 27.716C89.3154 27.844 89.5034 28.032 89.6394 28.28C89.7754 28.52 89.8434 28.796 89.8434 29.108C89.8434 29.428 89.7754 29.708 89.6394 29.948C89.5034 30.18 89.3154 30.364 89.0754 30.5C88.8434 30.628 88.5794 30.692 88.2834 30.692C87.9874 30.692 87.7194 30.628 87.4794 30.5C87.2474 30.364 87.0634 30.18 86.9274 29.948C86.7914 29.708 86.7234 29.428 86.7234 29.108ZM88.4274 23.624L85.8834 26.96C85.6434 27.264 85.4434 27.596 85.2834 27.956C85.1234 28.308 85.0434 28.692 85.0434 29.108C85.0434 29.764 85.1874 30.32 85.4754 30.776C85.7714 31.232 86.1634 31.58 86.6514 31.82C87.1394 32.052 87.6834 32.168 88.2834 32.168C88.8834 32.168 89.4274 32.052 89.9154 31.82C90.4034 31.58 90.7914 31.232 91.0794 30.776C91.3754 30.32 91.5234 29.764 91.5234 29.108C91.5234 28.7 91.4514 28.328 91.3074 27.992C91.1634 27.656 90.9714 27.368 90.7314 27.128C90.4914 26.888 90.2154 26.704 89.9034 26.576C89.5994 26.448 89.2874 26.384 88.9674 26.384C88.6714 26.384 88.4194 26.416 88.2114 26.48C88.0114 26.544 87.8074 26.684 87.5994 26.9L87.9114 26.792L90.5994 23.624H88.4274ZM98.9328 27.908C99.5648 27.908 100.129 27.824 100.625 27.656C101.121 27.488 101.513 27.244 101.801 26.924C102.089 26.596 102.233 26.204 102.233 25.748C102.233 25.324 102.125 24.94 101.909 24.596C101.693 24.252 101.377 23.976 100.961 23.768C100.553 23.56 100.057 23.456 99.4728 23.456C98.9208 23.456 98.4368 23.564 98.0208 23.78C97.6048 23.996 97.2768 24.292 97.0368 24.668C96.8048 25.036 96.6888 25.46 96.6888 25.94H98.2848C98.2848 25.628 98.3968 25.372 98.6208 25.172C98.8528 24.964 99.1368 24.86 99.4728 24.86C99.7128 24.86 99.9088 24.9 100.061 24.98C100.213 25.06 100.329 25.176 100.409 25.328C100.489 25.48 100.529 25.656 100.529 25.856C100.529 26.016 100.489 26.172 100.409 26.324C100.337 26.468 100.233 26.6 100.097 26.72C99.9608 26.832 99.7928 26.92 99.5928 26.984C99.4008 27.048 99.1808 27.08 98.9328 27.08V27.908ZM99.4008 32.168C100.025 32.168 100.565 32.068 101.021 31.868C101.485 31.66 101.841 31.372 102.089 31.004C102.345 30.636 102.473 30.212 102.473 29.732C102.473 29.308 102.385 28.948 102.209 28.652C102.033 28.348 101.785 28.1 101.465 27.908C101.145 27.708 100.769 27.564 100.337 27.476C99.9128 27.388 99.4448 27.344 98.9328 27.344V28.256C99.2288 28.256 99.4888 28.288 99.7128 28.352C99.9448 28.408 100.137 28.492 100.289 28.604C100.449 28.716 100.569 28.856 100.649 29.024C100.729 29.184 100.769 29.36 100.769 29.552C100.769 29.816 100.713 30.036 100.601 30.212C100.489 30.388 100.333 30.524 100.133 30.62C99.9408 30.708 99.7128 30.752 99.4488 30.752C99.1928 30.752 98.9568 30.704 98.7408 30.608C98.5248 30.504 98.3528 30.356 98.2248 30.164C98.0968 29.972 98.0328 29.74 98.0328 29.468H96.3288C96.3288 29.828 96.4008 30.172 96.5448 30.5C96.6888 30.82 96.8928 31.108 97.1568 31.364C97.4208 31.612 97.7408 31.808 98.1168 31.952C98.4928 32.096 98.9208 32.168 99.4008 32.168ZM105.157 29.108C105.157 28.796 105.225 28.52 105.361 28.28C105.497 28.032 105.681 27.844 105.913 27.716C106.153 27.58 106.421 27.512 106.717 27.512C107.013 27.512 107.277 27.58 107.509 27.716C107.749 27.844 107.937 28.032 108.073 28.28C108.209 28.52 108.277 28.796 108.277 29.108C108.277 29.428 108.209 29.708 108.073 29.948C107.937 30.18 107.749 30.364 107.509 30.5C107.277 30.628 107.013 30.692 106.717 30.692C106.421 30.692 106.153 30.628 105.913 30.5C105.681 30.364 105.497 30.18 105.361 29.948C105.225 29.708 105.157 29.428 105.157 29.108ZM106.861 23.624L104.317 26.96C104.077 27.264 103.877 27.596 103.717 27.956C103.557 28.308 103.477 28.692 103.477 29.108C103.477 29.764 103.621 30.32 103.909 30.776C104.205 31.232 104.597 31.58 105.085 31.82C105.573 32.052 106.117 32.168 106.717 32.168C107.317 32.168 107.861 32.052 108.349 31.82C108.837 31.58 109.225 31.232 109.513 30.776C109.809 30.32 109.957 29.764 109.957 29.108C109.957 28.7 109.885 28.328 109.741 27.992C109.597 27.656 109.405 27.368 109.165 27.128C108.925 26.888 108.649 26.704 108.337 26.576C108.033 26.448 107.721 26.384 107.401 26.384C107.105 26.384 106.853 26.416 106.645 26.48C106.445 26.544 106.241 26.684 106.033 26.9L106.345 26.792L109.033 23.624H106.861ZM115.002 25.784L117.018 25.256V32H118.686V23.456L115.002 24.236V25.784ZM120.285 32H127.041V30.428H123.525L125.709 28.364C126.061 28.044 126.345 27.688 126.561 27.296C126.777 26.904 126.885 26.484 126.885 26.036C126.885 25.732 126.821 25.428 126.693 25.124C126.573 24.82 126.385 24.544 126.129 24.296C125.881 24.04 125.565 23.836 125.181 23.684C124.805 23.524 124.365 23.444 123.861 23.444C123.181 23.444 122.605 23.588 122.133 23.876C121.669 24.156 121.317 24.536 121.077 25.016C120.837 25.496 120.717 26.036 120.717 26.636H122.397C122.397 26.3 122.453 26.004 122.565 25.748C122.685 25.492 122.849 25.296 123.057 25.16C123.273 25.016 123.529 24.944 123.825 24.944C124.033 24.944 124.217 24.98 124.377 25.052C124.537 25.116 124.673 25.204 124.785 25.316C124.897 25.428 124.981 25.556 125.037 25.7C125.093 25.844 125.121 25.992 125.121 26.144C125.121 26.36 125.081 26.568 125.001 26.768C124.921 26.968 124.805 27.168 124.653 27.368C124.501 27.568 124.317 27.784 124.101 28.016L120.285 32ZM134.405 27.908C135.037 27.908 135.601 27.824 136.097 27.656C136.593 27.488 136.985 27.244 137.273 26.924C137.561 26.596 137.705 26.204 137.705 25.748C137.705 25.324 137.597 24.94 137.381 24.596C137.165 24.252 136.849 23.976 136.433 23.768C136.025 23.56 135.529 23.456 134.945 23.456C134.393 23.456 133.909 23.564 133.493 23.78C133.077 23.996 132.749 24.292 132.509 24.668C132.277 25.036 132.161 25.46 132.161 25.94H133.757C133.757 25.628 133.869 25.372 134.093 25.172C134.325 24.964 134.609 24.86 134.945 24.86C135.185 24.86 135.381 24.9 135.533 24.98C135.685 25.06 135.801 25.176 135.881 25.328C135.961 25.48 136.001 25.656 136.001 25.856C136.001 26.016 135.961 26.172 135.881 26.324C135.809 26.468 135.705 26.6 135.569 26.72C135.433 26.832 135.265 26.92 135.065 26.984C134.873 27.048 134.653 27.08 134.405 27.08V27.908ZM134.873 32.168C135.497 32.168 136.037 32.068 136.493 31.868C136.957 31.66 137.313 31.372 137.561 31.004C137.817 30.636 137.945 30.212 137.945 29.732C137.945 29.308 137.857 28.948 137.681 28.652C137.505 28.348 137.257 28.1 136.937 27.908C136.617 27.708 136.241 27.564 135.809 27.476C135.385 27.388 134.917 27.344 134.405 27.344V28.256C134.701 28.256 134.961 28.288 135.185 28.352C135.417 28.408 135.609 28.492 135.761 28.604C135.921 28.716 136.041 28.856 136.121 29.024C136.201 29.184 136.241 29.36 136.241 29.552C136.241 29.816 136.185 30.036 136.073 30.212C135.961 30.388 135.805 30.524 135.605 30.62C135.413 30.708 135.185 30.752 134.921 30.752C134.665 30.752 134.429 30.704 134.213 30.608C133.997 30.504 133.825 30.356 133.697 30.164C133.569 29.972 133.505 29.74 133.505 29.468H131.801C131.801 29.828 131.873 30.172 132.017 30.5C132.161 30.82 132.365 31.108 132.629 31.364C132.893 31.612 133.213 31.808 133.589 31.952C133.965 32.096 134.393 32.168 134.873 32.168ZM145.31 29.288C145.31 28.712 145.19 28.22 144.95 27.812C144.718 27.396 144.41 27.076 144.026 26.852C143.642 26.628 143.222 26.516 142.766 26.516C142.518 26.516 142.274 26.54 142.034 26.588C141.802 26.628 141.582 26.704 141.374 26.816L141.878 25.088H145.178V23.6H140.606L139.454 28.328C139.742 28.168 140.014 28.048 140.27 27.968C140.534 27.88 140.79 27.82 141.038 27.788C141.286 27.748 141.522 27.728 141.746 27.728C142.05 27.728 142.33 27.784 142.586 27.896C142.85 28 143.058 28.156 143.21 28.364C143.37 28.572 143.45 28.828 143.45 29.132C143.45 29.444 143.382 29.708 143.246 29.924C143.11 30.132 142.914 30.292 142.658 30.404C142.41 30.516 142.106 30.572 141.746 30.572C141.514 30.572 141.27 30.528 141.014 30.44C140.758 30.344 140.51 30.216 140.27 30.056C140.038 29.896 139.822 29.716 139.622 29.516L138.818 30.848C139.05 31.08 139.318 31.296 139.622 31.496C139.926 31.688 140.278 31.844 140.678 31.964C141.086 32.084 141.546 32.144 142.058 32.144C142.466 32.144 142.862 32.088 143.246 31.976C143.63 31.864 143.978 31.692 144.29 31.46C144.602 31.228 144.85 30.932 145.034 30.572C145.218 30.212 145.31 29.784 145.31 29.288Z" fill="#0C0C0D"/>
</svg>
