<svg width="40" height="40" viewBox="0 0 40 40" fill="none" xmlns="http://www.w3.org/2000/svg">
<rect width="40" height="40" rx="10" fill="white"/>
<path d="M27 27.9867V25.8889C27 24.8575 26.6312 23.8683 25.9749 23.139C25.3185 22.4097 24.4283 22 23.5 22H16.5C15.5717 22 14.6815 22.4097 14.0251 23.139C13.3687 23.8683 13 24.8575 13 25.8889V27.9867" stroke="#0C0C0D" stroke-width="1.5" stroke-linecap="round" stroke-linejoin="round"/>
<path d="M20 18.9999C21.933 18.9999 23.5 17.4329 23.5 15.4999C23.5 13.5669 21.933 11.9999 20 11.9999C18.067 11.9999 16.5 13.5669 16.5 15.4999C16.5 17.4329 18.067 18.9999 20 18.9999Z" stroke="#0C0C0D" stroke-width="1.5" stroke-linecap="round" stroke-linejoin="round"/>
</svg>
