<svg width="32" height="32" viewBox="0 0 32 32" fill="none" xmlns="http://www.w3.org/2000/svg">
<path d="M7.08122 21.3333H4.77516C4.56974 21.3333 4.37272 21.2535 4.22742 21.1114C4.08212 20.9694 4.00043 20.7767 4.00031 20.5758V7.42422C4.00043 7.22328 4.08212 7.03062 4.22742 6.88858C4.37272 6.74654 4.56974 6.66675 4.77516 6.66675L17.8921 6.66675C18.0975 6.66675 18.2946 6.74654 18.4399 6.88858C18.5852 7.03062 18.6668 7.22328 18.667 7.42422V12.5754C18.667 12.7764 18.7486 12.9692 18.8939 13.1114C19.0392 13.2535 19.2363 13.3333 19.4418 13.3333H26.667" stroke="#0C0C0D" stroke-width="1.5" stroke-linecap="round" stroke-linejoin="round"/>
<path d="M18.667 21.3333H13.3336" stroke="#0C0C0D" stroke-width="1.5" stroke-linecap="round" stroke-linejoin="round"/>
<path d="M28.0006 14.6665L28.0004 20.5578C28.0004 20.7634 27.9187 20.9606 27.7733 21.106C27.6279 21.2514 27.4307 21.3331 27.2251 21.3331H24.1738" stroke="#0C0C0D" stroke-width="1.5" stroke-linecap="round" stroke-linejoin="round"/>
<path d="M18.667 8L23.978 8C24.1167 7.99973 24.2531 8.0365 24.3739 8.10671C24.4947 8.17693 24.5956 8.27818 24.667 8.40058L28.0003 14.6666" stroke="#0C0C0D" stroke-width="1.5" stroke-linecap="round" stroke-linejoin="round"/>
<path d="M10.667 23.9999C12.1397 23.9999 13.3336 22.8106 13.3336 21.3436C13.3336 19.8765 12.1397 18.6873 10.667 18.6873C9.19421 18.6873 8.00031 19.8765 8.00031 21.3436C8.00031 22.8106 9.19421 23.9999 10.667 23.9999Z" stroke="#0C0C0D" stroke-width="1.5" stroke-linecap="round" stroke-linejoin="round"/>
<path d="M21.3337 23.9999C22.8064 23.9999 24.0003 22.8106 24.0003 21.3436C24.0003 19.8765 22.8064 18.6873 21.3337 18.6873C19.8609 18.6873 18.667 19.8765 18.667 21.3436C18.667 22.8106 19.8609 23.9999 21.3337 23.9999Z" stroke="#0C0C0D" stroke-width="1.5" stroke-linecap="round" stroke-linejoin="round"/>
</svg>
