<svg width="25" height="26" viewBox="0 0 25 26" fill="none" xmlns="http://www.w3.org/2000/svg">
<path d="M15.9468 2.395C15.0535 1.30748 13.7558 1.12788 13.2907 1.63191C12.8257 2.13594 13.2028 3.74347 11.7293 4.15582C10.2557 4.56816 11.2144 5.28002 9.90166 5.3261C8.58891 5.37217 7.91749 4.22682 7.03355 4.6086C6.14961 4.99039 7.23197 5.28048 6.9113 6.51658C6.59064 7.75268 5.21865 6.39436 4.14898 6.45548C3.46752 6.47521 2.79305 6.59872 2.14882 6.82175C1.54887 7.00136 1.02038 7.93606 2.14882 8.86701C3.27726 9.79796 3.55326 9.2488 4.34693 9.84404C5.14059 10.4393 7.06411 12.4846 7.18636 13.8434C7.30861 15.2022 6.57277 15.9094 6.7284 17.0185C6.88403 18.1277 5.81249 20.5918 5.81249 20.5918C5.81249 20.5918 5.07994 21.6911 7.21692 22.9427L8.70928 23.7364C8.70928 23.7364 9.10941 23.9042 9.84242 23.2784C10.5754 22.6526 10.575 22.9427 11.4909 24.2249C11.4909 24.2249 12.0081 24.9574 13.445 24.988C13.445 24.988 14.6966 25.1803 14.7577 23.9804C14.7685 23.7712 14.2998 23.0034 15.9802 22.2708C16.303 22.0995 16.6609 22.0049 17.0263 21.9943C17.3916 21.9837 17.7544 22.0574 18.0866 22.2097C18.866 22.6678 19.777 22.85 20.6726 22.7269C21.1837 22.7275 21.6824 22.5695 22.0999 22.2748C22.5174 21.9801 22.8332 21.5631 23.0038 21.0813C23.0038 21.0813 23.4923 20.4099 22.3624 19.6162C21.6665 18.9997 21.6459 17.5136 22.1791 17.2653C22.7123 17.0171 22.8519 17.0693 22.3672 15.8186C21.8824 14.5679 22.1198 14.6704 21.1447 14.3441C20.1695 14.0178 21.1127 11.8334 22.0775 11.3049C23.0423 10.7764 23.8064 11.3392 23.7603 9.4157C23.7029 8.83219 23.8002 8.24386 24.0424 7.7099C24.443 6.86358 22.9662 6.62239 22.1476 6.55374C21.329 6.4851 20.8254 5.27157 19.2456 5.07692C17.6658 4.88226 16.8402 3.48064 15.9468 2.395Z" stroke="#0C0C0D" stroke-width="1.5" stroke-linecap="round" stroke-linejoin="round"/>
</svg>
