<svg width="33" height="32" viewBox="0 0 33 32" fill="none" xmlns="http://www.w3.org/2000/svg">
<path d="M25.7403 8.11605L17.2246 4.14935C17.0134 4.05097 16.7832 4 16.5502 4C16.3172 4 16.0871 4.05097 15.8759 4.14935L7.36013 8.11605C7.06443 8.25466 6.81577 8.4768 6.64483 8.75506C6.47389 9.03333 6.38815 9.35554 6.39819 9.68196C6.77173 23.2141 13.9487 27.0571 16.0043 27.8825C16.358 28.0254 16.7509 28.0381 17.1131 27.9184C19.1909 27.2309 26.3283 23.1286 26.7023 9.68243C26.7125 9.35592 26.6268 9.03358 26.4558 8.75521C26.2849 8.47684 26.0361 8.25464 25.7403 8.11605V8.11605Z" stroke="#0C0C0D" stroke-width="1.5" stroke-linecap="round" stroke-linejoin="round"/>
<path d="M12.4991 14.9745L15.427 17.9934L20.7103 12.6658" stroke="#0C0C0D" stroke-width="1.5" stroke-linecap="round" stroke-linejoin="round"/>
</svg>
