<svg xmlns="http://www.w3.org/2000/svg" width="375" viewBox="0 0 375 375" height="375" version="1.0"><defs><clipPath id="a"><path d="M 116 152.265625 L 162 152.265625 L 162 237.179688 L 116 237.179688 Z M 116 152.265625"/></clipPath><clipPath id="b"><path d="M 126 177 L 156 177 L 156 186 L 126 186 Z M 126 177"/></clipPath><clipPath id="c"><path d="M 174.277344 156.726562 L 148.695312 185.160156 L 126.394531 165.097656 L 151.976562 136.660156 Z M 174.277344 156.726562"/></clipPath><clipPath id="d"><path d="M 226.183594 182.558594 L 149.9375 267.308594 L 86.375 210.128906 L 162.621094 125.375 Z M 226.183594 182.558594"/></clipPath><clipPath id="e"><path d="M 127 150 L 175 150 L 175 186 L 127 186 Z M 127 150"/></clipPath><clipPath id="f"><path d="M 174.277344 156.726562 L 148.695312 185.160156 L 126.394531 165.097656 L 151.976562 136.660156 Z M 174.277344 156.726562"/></clipPath><clipPath id="g"><path d="M 226.183594 182.558594 L 149.9375 267.308594 L 86.375 210.128906 L 162.621094 125.375 Z M 226.183594 182.558594"/></clipPath><clipPath id="h"><path d="M 158 150 L 200 150 L 200 184 L 158 184 Z M 158 150"/></clipPath><clipPath id="i"><path d="M 196.566406 183.40625 L 158.480469 179.847656 L 161.273438 149.976562 L 199.359375 153.539062 Z M 196.566406 183.40625"/></clipPath><clipPath id="j"><path d="M 206.804688 240.476562 L 93.300781 229.863281 L 101.261719 144.734375 L 214.765625 155.347656 Z M 206.804688 240.476562"/></clipPath><clipPath id="k"><path d="M 152.527344 194 L 165.277344 194 L 165.277344 205.167969 L 152.527344 205.167969 Z M 152.527344 194"/></clipPath><clipPath id="l"><path d="M 155 183.417969 L 164 183.417969 L 164 200 L 155 200 Z M 155 183.417969"/></clipPath><clipPath id="m"><path d="M 170 162 L 244 162 L 244 230 L 170 230 Z M 170 162"/></clipPath><clipPath id="n"><path d="M 170.378906 203.996094 L 229.996094 150.28125 L 253.089844 175.910156 L 193.472656 229.628906 Z M 170.378906 203.996094"/></clipPath><clipPath id="o"><path d="M 152.414062 220.183594 L 229.863281 150.398438 L 252.957031 176.03125 L 175.507812 245.8125 Z M 152.414062 220.183594"/></clipPath><clipPath id="p"><path d="M 152.414062 220.183594 L 229.863281 150.398438 L 252.957031 176.03125 L 175.507812 245.8125 Z M 152.414062 220.183594"/></clipPath><clipPath id="q"><path d="M 167 205 L 193 205 L 193 215 L 167 215 Z M 167 205"/></clipPath><clipPath id="r"><path d="M 147.609375 230.828125 L 173.066406 205.371094 L 192.6875 224.996094 L 167.230469 250.449219 Z M 147.609375 230.828125"/></clipPath><clipPath id="s"><path d="M 100.648438 204.273438 L 175.421875 129.5 L 231.636719 185.714844 L 156.863281 260.488281 Z M 100.648438 204.273438"/></clipPath><clipPath id="t"><path d="M 147 205 L 192 205 L 192 238 L 147 238 Z M 147 205"/></clipPath><clipPath id="u"><path d="M 147.609375 230.828125 L 173.066406 205.371094 L 192.6875 224.996094 L 167.230469 250.449219 Z M 147.609375 230.828125"/></clipPath><clipPath id="v"><path d="M 100.648438 204.273438 L 175.421875 129.5 L 231.636719 185.714844 L 156.863281 260.488281 Z M 100.648438 204.273438"/></clipPath></defs><path fill="#233DFF" d="M 158.546875 198.207031 C 155.78125 197.707031 153.765625 195.191406 154.269531 192.425781 C 154.773438 189.660156 157.289062 187.648438 160.058594 188.152344 C 160.5625 188.152344 160.816406 188.402344 161.316406 188.402344 L 161.316406 197.707031 C 160.3125 198.207031 159.304688 198.207031 158.296875 197.957031 Z M 158.546875 198.207031"/><g clip-path="url(#a)"><path d="M 161.570312 178.34375 L 161.570312 149.429688 C 140.171875 148.925781 121.035156 164.265625 117.261719 185.886719 C 113.230469 209.773438 129.34375 232.402344 153.261719 236.425781 C 156.03125 236.929688 158.800781 237.179688 161.570312 236.929688 L 161.570312 208.015625 C 160.5625 208.015625 159.554688 208.015625 158.546875 207.761719 C 150.242188 206.503906 144.703125 198.710938 145.960938 190.664062 C 147.21875 183.375 154.015625 178.09375 161.570312 178.34375 Z M 141.429688 179.097656 L 143.441406 180.105469 C 141.679688 184.128906 140.925781 188.652344 141.175781 192.929688 C 141.429688 197.453125 142.941406 201.980469 145.207031 206.003906 L 143.191406 206.757812 C 140.675781 202.484375 139.164062 197.707031 138.910156 192.929688 C 138.660156 188.152344 139.414062 183.375 141.429688 178.847656 Z M 136.140625 176.585938 C 133.875 181.867188 132.617188 187.648438 133.121094 193.429688 C 133.371094 198.960938 135.136719 204.496094 137.90625 209.269531 L 135.890625 210.277344 C 133.121094 205.25 131.359375 199.464844 131.105469 193.683594 C 130.855469 187.398438 131.863281 181.363281 134.378906 175.578125 L 136.394531 176.585938 Z M 125.316406 193.933594 C 125.566406 200.21875 127.582031 206.503906 130.601562 212.039062 L 128.589844 212.792969 C 125.566406 207.007812 123.554688 200.472656 123.300781 193.933594 C 122.800781 186.640625 124.058594 179.351562 127.078125 172.8125 L 129.09375 173.820312 C 126.324219 180.355469 125.066406 187.144531 125.566406 193.933594 Z M 125.316406 193.933594"/></g><g fill="#FFF"><g><g><path d="M 2.953125 -5.6875 C 2.953125 -7.789062 3.570312 -9.410156 4.8125 -10.546875 C 6.0625 -11.691406 7.875 -12.265625 10.25 -12.265625 C 12.507812 -12.265625 14.242188 -11.691406 15.453125 -10.546875 C 16.660156 -9.410156 17.265625 -7.789062 17.265625 -5.6875 C 17.265625 -3.632812 16.640625 -2.03125 15.390625 -0.875 C 14.148438 0.28125 12.4375 0.859375 10.25 0.859375 C 7.988281 0.859375 6.207031 0.289062 4.90625 -0.84375 C 3.601562 -1.988281 2.953125 -3.601562 2.953125 -5.6875 Z M 2.953125 -5.6875" transform="translate(147.984 200.327)"/></g></g></g><g clip-path="url(#b)"><g clip-path="url(#c)"><g clip-path="url(#d)"><path d="M 154.496094 193.746094 C 155.40625 194.566406 155.476562 195.953125 154.65625 196.863281 C 153.835938 197.773438 152.453125 197.847656 151.542969 197.03125 C 143.347656 189.65625 130.882812 190.324219 123.503906 198.527344 C 116.121094 206.734375 116.773438 219.195312 124.96875 226.570312 C 125.878906 227.390625 125.949219 228.773438 125.128906 229.683594 C 124.308594 230.597656 122.925781 230.671875 122.015625 229.851562 C 112.726562 221.496094 111.636719 207.320312 118.929688 197.382812 L 110.371094 189.683594 L 105.285156 195.335938 C 104.464844 196.246094 103.078125 196.320312 102.167969 195.503906 C 101.257812 194.683594 101.1875 193.296875 102.007812 192.386719 L 114.964844 177.980469 C 115.785156 177.070312 117.167969 176.996094 118.082031 177.816406 C 118.992188 178.632812 119.0625 180.019531 118.242188 180.929688 L 113.15625 186.582031 L 121.71875 194.285156 C 130.648438 185.820312 145.042969 185.574219 154.332031 193.929688 Z M 154.496094 193.746094"/></g></g></g><g clip-path="url(#e)"><g clip-path="url(#f)"><g clip-path="url(#g)"><path d="M 169.578125 203.355469 L 190.523438 222.199219 C 204.828125 207.027344 206.1875 183.175781 192.984375 166.347656 C 178.304688 147.867188 151.414062 144.789062 132.917969 159.492188 C 130.75 161.167969 128.761719 163.011719 127.140625 165.179688 L 148.085938 184.023438 C 148.742188 183.292969 149.398438 182.5625 150.234375 182 C 156.558594 176.800781 165.816406 177.867188 170.824219 184.023438 C 175.285156 189.6875 174.679688 198.050781 169.578125 203.355469 Z M 182.152344 188.277344 L 180.113281 189.082031 C 178.347656 185.183594 175.558594 181.6875 172.300781 179.082031 C 168.859375 176.316406 164.59375 174.460938 160.203125 173.480469 L 160.96875 171.53125 C 165.707031 172.492188 170.152344 174.511719 173.777344 177.441406 C 177.402344 180.375 180.371094 184.035156 182.335938 188.441406 Z M 187.417969 186.085938 C 185.070312 181.003906 181.703125 176.324219 177.183594 172.921875 C 173.015625 169.5 167.859375 167.171875 162.59375 166.0625 L 163.179688 163.949219 C 168.625 165.21875 173.960938 167.710938 178.316406 171.296875 C 183.03125 175.210938 186.746094 179.875 189.296875 185.464844 L 187.253906 186.269531 Z M 181.90625 166.941406 C 177.1875 163.027344 171.324219 160.390625 165.347656 158.972656 L 166.113281 157.023438 C 172.269531 158.601562 178.320312 161.402344 183.21875 165.480469 C 188.828125 169.867188 193.289062 175.53125 196.058594 181.980469 L 194.015625 182.785156 C 191.085938 176.519531 186.988281 171.183594 181.742188 167.125 Z M 181.90625 166.941406"/></g></g></g><g clip-path="url(#h)"><g clip-path="url(#i)"><g clip-path="url(#j)"><path d="M 156.339844 207.460938 L 153.71875 235.511719 C 174.429688 237.941406 194.378906 224.796875 200.003906 204.160156 C 206.078125 181.355469 192.5 157.9375 169.667969 151.867188 C 167.027344 151.128906 164.363281 150.632812 161.652344 150.625 L 159.03125 178.675781 C 160.007812 178.769531 160.984375 178.859375 161.9375 179.195312 C 169.882812 181.167969 174.550781 189.230469 172.597656 196.921875 C 170.714844 203.882812 163.644531 208.390625 156.339844 207.460938 Z M 175.945312 208.554688 L 174.082031 207.394531 C 176.15625 203.652344 177.300781 199.332031 177.445312 195.160156 C 177.609375 190.75 176.554688 186.222656 174.722656 182.113281 L 176.746094 181.5625 C 178.796875 185.9375 179.832031 190.710938 179.640625 195.367188 C 179.453125 200.023438 178.285156 204.589844 175.921875 208.796875 Z M 180.84375 211.472656 C 183.523438 206.554688 185.265625 201.0625 185.304688 195.40625 C 185.5625 190.015625 184.355469 184.488281 182.101562 179.605469 L 184.144531 178.8125 C 186.375 183.941406 187.558594 189.710938 187.28125 195.34375 C 186.953125 201.464844 185.429688 207.226562 182.464844 212.609375 L 180.601562 211.449219 Z M 192.917969 195.625 C 193.246094 189.503906 191.863281 183.222656 189.433594 177.582031 L 191.457031 177.035156 C 193.863281 182.917969 195.222656 189.441406 194.875 195.808594 C 194.699219 202.925781 192.816406 209.886719 189.292969 215.953125 L 187.433594 214.796875 C 190.710938 208.707031 192.546875 202.234375 192.675781 195.601562 Z M 192.917969 195.625"/></g></g></g><path fill="#FFF" d="M 159.8125 174.976562 C 149.664062 174.976562 141.4375 183.203125 141.4375 193.351562 C 141.4375 203.5 149.664062 211.726562 159.8125 211.726562 C 169.960938 211.726562 178.1875 203.5 178.1875 193.351562 C 178.1875 183.203125 169.960938 174.976562 159.8125 174.976562"/><g clip-path="url(#k)"><path d="M 152.929688 195.148438 C 152.929688 194.828125 153.1875 194.570312 153.507812 194.570312 C 153.832031 194.570312 154.089844 194.828125 154.089844 195.148438 C 154.089844 198.050781 156.414062 200.371094 159.320312 200.371094 C 162.222656 200.371094 164.546875 198.050781 164.546875 195.148438 C 164.546875 194.828125 164.804688 194.570312 165.128906 194.570312 C 165.453125 194.570312 165.710938 194.828125 165.710938 195.148438 C 165.710938 198.4375 163.128906 201.144531 159.898438 201.46875 L 159.898438 204.496094 L 161.902344 204.496094 C 162.222656 204.496094 162.480469 204.753906 162.480469 205.078125 C 162.480469 205.398438 162.222656 205.65625 161.902344 205.65625 L 156.800781 205.65625 C 156.480469 205.65625 156.21875 205.398438 156.21875 205.078125 C 156.21875 204.753906 156.480469 204.496094 156.800781 204.496094 L 158.804688 204.496094 L 158.804688 201.46875 C 155.574219 201.210938 152.992188 198.4375 152.992188 195.148438 Z M 152.929688 195.148438"/></g><g clip-path="url(#l)"><path d="M 156.480469 192.699219 C 156.929688 192.699219 157.316406 192.3125 157.316406 191.859375 C 157.316406 191.410156 156.929688 191.023438 156.480469 191.023438 L 155.1875 191.023438 L 155.1875 189.667969 L 156.480469 189.667969 C 156.929688 189.667969 157.316406 189.28125 157.316406 188.832031 C 157.316406 188.378906 156.929688 187.992188 156.480469 187.992188 L 155.1875 187.992188 L 155.1875 187.476562 C 155.1875 185.222656 156.996094 183.414062 159.253906 183.414062 C 161.515625 183.414062 163.320312 185.222656 163.320312 187.476562 L 163.320312 187.992188 L 162.03125 187.992188 C 161.578125 187.992188 161.191406 188.378906 161.191406 188.832031 C 161.191406 189.28125 161.578125 189.667969 162.03125 189.667969 L 163.320312 189.667969 L 163.320312 191.023438 L 162.03125 191.023438 C 161.578125 191.023438 161.191406 191.410156 161.191406 191.859375 C 161.191406 192.3125 161.578125 192.699219 162.03125 192.699219 L 163.320312 192.699219 L 163.320312 195.148438 C 163.320312 197.40625 161.515625 199.210938 159.253906 199.210938 C 156.996094 199.210938 155.1875 197.40625 155.1875 195.148438 L 155.1875 192.699219 Z M 156.480469 192.699219"/></g><path fill="#FFF" d="M 170.058594 183.925781 L 201.527344 172.433594 L 195.746094 205.433594 Z M 170.058594 183.925781"/><path d="M 122.9375 171 L 140.1875 171 L 140.1875 188.25 L 122.9375 188.25 L 122.9375 171"/><path d="M 121.890625 186.296875 L 139.140625 186.296875 L 139.140625 203.546875 L 121.890625 203.546875 L 121.890625 186.296875"/><path d="M 128.1875 171 L 145.4375 171 L 145.4375 188.25 L 128.1875 188.25 L 128.1875 171"/><path d="M 126.511719 186.296875 L 143.761719 186.296875 L 143.761719 203.546875 L 126.511719 203.546875 L 126.511719 186.296875"/><path d="M 122.9375 197.886719 L 140.1875 197.886719 L 140.1875 215.136719 L 122.9375 215.136719 L 122.9375 197.886719"/><path d="M 128.1875 188.136719 L 145.4375 188.136719 L 145.4375 215.132812 L 128.1875 215.132812 L 128.1875 188.136719"/><path d="M 159.007812 208.265625 L 163.507812 208.265625 L 163.507812 235.976562 L 159.007812 235.976562 L 159.007812 208.265625"/><path d="M 160.855469 235.652344 L 162.355469 235.652344 L 162.355469 237.152344 L 160.855469 237.152344 L 160.855469 235.652344"/><path fill="#FFF" d="M 166.355469 234.902344 C 163.039062 234.902344 160.355469 237.585938 160.355469 240.902344 C 160.355469 244.214844 163.039062 246.902344 166.355469 246.902344 C 169.667969 246.902344 172.355469 244.214844 172.355469 240.902344 C 172.355469 237.585938 169.667969 234.902344 166.355469 234.902344"/><path fill="#FFF" d="M 167.089844 205.410156 C 167.238281 205.410156 167.386719 205.441406 167.535156 205.503906 C 168.121094 205.753906 168.398438 206.425781 168.148438 207.011719 C 167.492188 208.574219 165.980469 209.578125 164.289062 209.578125 C 162.601562 209.578125 161.085938 208.574219 160.425781 207.011719 C 160.175781 206.425781 160.453125 205.746094 161.039062 205.503906 C 161.625 205.253906 162.300781 205.527344 162.546875 206.113281 C 162.84375 206.8125 163.53125 207.269531 164.289062 207.269531 C 165.050781 207.269531 165.730469 206.8125 166.027344 206.113281 C 166.210938 205.675781 166.640625 205.410156 167.089844 205.410156 Z M 167.089844 205.410156"/><g clip-path="url(#m)"><g clip-path="url(#n)"><g clip-path="url(#o)"><g clip-path="url(#p)"><path d="M 241.253906 163.039062 L 241.203125 162.988281 C 240.476562 162.820312 239.667969 163.21875 239.304688 163.867188 C 239.390625 164.140625 239.5 164.40625 239.640625 164.65625 C 239.886719 164.625 240.121094 164.550781 240.359375 164.484375 C 240.417969 164.605469 240.433594 164.742188 240.476562 164.867188 C 239.9375 165.109375 239.410156 165.367188 238.882812 165.625 C 238.863281 165.585938 238.820312 165.507812 238.800781 165.46875 C 238.746094 165.414062 238.691406 165.363281 238.640625 165.308594 C 238.863281 165.175781 239.082031 165.027344 239.277344 164.855469 C 239.144531 164.605469 239.015625 164.351562 238.882812 164.101562 C 238.152344 163.917969 237.324219 164.320312 236.964844 164.976562 C 237.050781 165.25 237.15625 165.515625 237.300781 165.765625 C 237.550781 165.726562 237.796875 165.667969 238.035156 165.582031 C 238.0625 165.71875 238.09375 165.851562 238.136719 165.980469 C 237.617188 166.230469 237.09375 166.484375 236.570312 166.734375 C 236.546875 166.6875 236.503906 166.597656 236.480469 166.550781 C 236.425781 166.507812 236.375 166.460938 236.320312 166.414062 C 236.546875 166.277344 236.765625 166.128906 236.96875 165.957031 C 236.839844 165.734375 236.742188 165.5 236.609375 165.28125 C 236.542969 165.148438 236.367188 165.167969 236.242188 165.15625 C 235.660156 165.15625 235.070312 165.453125 234.738281 165.933594 C 234.695312 165.996094 234.648438 166.0625 234.679688 166.136719 C 234.738281 166.398438 234.859375 166.640625 234.996094 166.871094 C 235.246094 166.824219 235.492188 166.765625 235.734375 166.683594 C 235.742188 166.75 235.75 166.820312 235.761719 166.890625 C 235.785156 166.957031 235.808594 167.023438 235.835938 167.089844 C 235.304688 167.34375 234.773438 167.597656 234.242188 167.855469 C 234.171875 167.738281 234.085938 167.632812 233.988281 167.535156 C 234.210938 167.402344 234.429688 167.253906 234.621094 167.078125 C 234.480469 166.839844 234.382812 166.574219 234.222656 166.34375 C 233.996094 166.242188 233.734375 166.273438 233.496094 166.324219 C 233.007812 166.449219 232.550781 166.753906 232.3125 167.207031 C 232.394531 167.480469 232.503906 167.746094 232.644531 167.996094 C 232.894531 167.972656 233.132812 167.859375 233.375 167.839844 C 233.425781 167.960938 233.441406 168.09375 233.488281 168.214844 C 232.953125 168.484375 232.410156 168.726562 231.878906 169 C 231.800781 168.878906 231.707031 168.773438 231.613281 168.667969 C 231.835938 168.539062 232.050781 168.390625 232.246094 168.222656 C 232.121094 167.96875 231.988281 167.71875 231.863281 167.464844 C 231.292969 167.3125 230.667969 167.542969 230.246094 167.9375 C 230.132812 168.058594 229.988281 168.183594 229.957031 168.355469 C 230.011719 168.625 230.128906 168.882812 230.273438 169.113281 C 230.523438 169.117188 230.765625 169.019531 231.003906 168.945312 C 231.035156 169.085938 231.074219 169.222656 231.121094 169.359375 C 230.609375 169.609375 230.097656 169.855469 229.585938 170.09375 C 229.511719 169.96875 229.425781 169.851562 229.324219 169.75 C 229.546875 169.621094 229.753906 169.472656 229.960938 169.3125 C 229.828125 169.066406 229.71875 168.808594 229.570312 168.574219 C 229.421875 168.476562 229.222656 168.496094 229.046875 168.503906 C 228.53125 168.578125 228.015625 168.839844 227.730469 169.285156 C 227.695312 169.34375 227.644531 169.40625 227.671875 169.476562 C 227.730469 169.738281 227.855469 169.976562 227.984375 170.210938 C 228.230469 170.167969 228.480469 170.113281 228.71875 170.027344 C 228.742188 170.175781 228.78125 170.320312 228.839844 170.457031 C 228.386719 170.667969 227.941406 170.898438 227.488281 171.101562 C 227.140625 171.257812 226.777344 171.519531 226.71875 171.925781 C 226.640625 172.445312 226.828125 172.984375 226.640625 173.492188 C 226.546875 173.765625 226.324219 173.957031 226.113281 174.136719 C 224.996094 175.113281 223.898438 176.113281 222.773438 177.082031 C 221.511719 178.167969 220.285156 179.292969 219.023438 180.378906 C 218.117188 181.160156 217.234375 181.964844 216.335938 182.757812 C 215.097656 183.808594 213.894531 184.90625 212.667969 185.980469 C 211.59375 186.898438 210.546875 187.839844 209.492188 188.78125 C 208.351562 189.757812 207.226562 190.753906 206.105469 191.757812 C 204.882812 192.808594 203.679688 193.878906 202.480469 194.953125 C 201.097656 196.125 199.765625 197.347656 198.398438 198.535156 C 197.230469 199.53125 196.105469 200.578125 194.9375 201.578125 C 194.675781 201.789062 194.453125 202.085938 194.105469 202.144531 C 193.769531 202.234375 193.386719 202.160156 193.140625 201.902344 C 192.769531 201.511719 192.628906 200.976562 192.488281 200.472656 C 192.207031 199.363281 191.835938 198.28125 191.355469 197.246094 C 191.394531 197.285156 191.480469 197.367188 191.519531 197.40625 C 191.601562 197.3125 191.582031 197.1875 191.574219 197.074219 L 191.53125 197.03125 C 191.597656 196.984375 191.664062 196.941406 191.730469 196.898438 C 191.75 196.925781 191.792969 196.984375 191.8125 197.011719 C 192.027344 197.066406 192.242188 197.125 192.457031 197.175781 C 192.472656 197.070312 192.46875 196.957031 192.414062 196.863281 C 192.21875 196.476562 192 196.105469 191.757812 195.75 C 191.699219 195.652344 191.601562 195.59375 191.5 195.546875 C 191.453125 195.800781 191.316406 196.050781 191.371094 196.316406 C 191.3125 196.355469 191.253906 196.390625 191.199219 196.425781 C 191.148438 196.390625 191.097656 196.351562 191.042969 196.3125 C 191.023438 196.289062 190.980469 196.246094 190.957031 196.222656 C 190.933594 196.238281 190.882812 196.273438 190.855469 196.289062 C 190.867188 196.355469 190.882812 196.421875 190.898438 196.488281 C 190.496094 195.964844 190.054688 195.460938 189.496094 195.105469 C 188.566406 194.5 187.394531 194.261719 186.300781 194.488281 C 185.476562 194.65625 184.726562 195.078125 184.070312 195.59375 C 183.003906 196.445312 182.164062 197.539062 181.433594 198.679688 C 180.914062 199.507812 180.441406 200.367188 180.035156 201.253906 C 179.566406 202.328125 178.957031 203.34375 178.164062 204.207031 C 177.304688 205.160156 176.230469 205.910156 175.0625 206.425781 C 174.21875 206.808594 173.320312 207.035156 172.441406 207.316406 C 170.640625 207.855469 168.828125 208.359375 167.066406 209.023438 C 165.035156 209.796875 163.035156 210.753906 161.378906 212.183594 C 160.070312 213.300781 159.027344 214.742188 158.464844 216.367188 C 157.910156 217.9375 157.785156 219.632812 157.925781 221.277344 C 157.996094 222 158.21875 222.699219 158.488281 223.367188 C 158.980469 224.554688 159.648438 225.664062 160.367188 226.726562 C 161.402344 228.246094 162.558594 229.675781 163.761719 231.0625 C 163.992188 231.324219 164.214844 231.59375 164.460938 231.839844 C 164.367188 231.792969 164.269531 231.730469 164.171875 231.824219 C 164.488281 232.125 164.777344 232.453125 165.054688 232.792969 C 165.148438 232.714844 165.109375 232.609375 165.074219 232.511719 C 165.757812 233.320312 166.496094 234.085938 167.230469 234.851562 C 168.800781 236.453125 170.449219 238.023438 172.378906 239.191406 C 173.285156 239.726562 174.265625 240.179688 175.316406 240.324219 C 176.871094 240.53125 178.476562 240.480469 180 240.070312 C 181.1875 239.75 182.3125 239.203125 183.304688 238.476562 C 185.03125 237.210938 186.351562 235.484375 187.433594 233.65625 C 188.59375 231.679688 189.511719 229.570312 190.351562 227.441406 C 190.589844 226.792969 190.953125 226.199219 191.273438 225.585938 C 191.839844 224.566406 192.476562 223.566406 193.351562 222.777344 C 194.34375 221.859375 195.578125 221.253906 196.824219 220.761719 C 197.769531 220.417969 198.71875 220.082031 199.632812 219.660156 C 201.085938 218.976562 202.507812 218.144531 203.601562 216.945312 C 204.347656 216.144531 204.902344 215.121094 204.972656 214.019531 C 205.019531 213.519531 204.84375 212.996094 204.457031 212.671875 C 204.023438 212.304688 203.414062 212.128906 202.851562 212.257812 C 202.121094 212.386719 201.449219 212.726562 200.777344 213.03125 C 199.925781 213.398438 199.023438 213.65625 198.097656 213.71875 C 197.753906 213.738281 197.402344 213.765625 197.0625 213.695312 C 196.214844 213.550781 195.34375 213.222656 194.792969 212.539062 C 194.316406 211.964844 194.195312 211.160156 194.378906 210.449219 C 194.535156 209.851562 194.828125 209.277344 195.261719 208.835938 C 196.242188 207.949219 197.199219 207.039062 198.167969 206.140625 C 198.761719 205.609375 199.34375 205.066406 199.925781 204.523438 C 201.101562 203.398438 202.335938 202.332031 203.503906 201.195312 C 204.160156 200.613281 204.789062 200 205.449219 199.425781 C 206.582031 198.316406 207.777344 197.277344 208.929688 196.1875 C 209.980469 195.191406 211.066406 194.234375 212.117188 193.238281 C 213.046875 192.351562 214.019531 191.507812 214.949219 190.617188 C 215.851562 189.753906 216.792969 188.933594 217.699219 188.074219 C 218.917969 186.917969 220.183594 185.804688 221.394531 184.640625 C 222.355469 183.757812 223.328125 182.890625 224.269531 181.984375 C 225.261719 181.0625 226.28125 180.160156 227.257812 179.21875 C 227.894531 178.628906 228.535156 178.039062 229.183594 177.460938 C 230.179688 176.4375 231.386719 175.628906 232.667969 175.011719 C 233.46875 174.621094 234.304688 174.324219 235.128906 173.992188 C 236.167969 173.570312 237.191406 173.042969 237.988281 172.234375 C 238.496094 171.734375 238.890625 171.117188 239.144531 170.453125 C 239.257812 170.183594 239.296875 169.851562 239.546875 169.664062 C 240.152344 169.222656 240.933594 169.355469 241.609375 169.136719 C 242.25 168.949219 242.828125 168.519531 243.136719 167.921875 C 243.46875 167.285156 243.589844 166.519531 243.355469 165.832031 C 243.171875 165.285156 242.769531 164.808594 242.246094 164.5625 C 241.929688 164.417969 241.566406 164.46875 241.242188 164.558594 C 241.203125 164.484375 241.167969 164.414062 241.132812 164.339844 C 241.078125 164.296875 241.027344 164.253906 240.972656 164.210938 C 241.199219 164.070312 241.414062 163.921875 241.617188 163.753906 C 241.496094 163.515625 241.375 163.277344 241.253906 163.039062 Z M 241.253906 163.039062"/></g></g></g></g><path d="M 174.28125 188.800781 C 174.3125 188.179688 174.472656 187.566406 174.765625 186.957031 C 175.929688 184.578125 178.789062 183.582031 181.175781 184.746094 C 187.515625 187.804688 191.367188 194.3125 191 201.332031 C 190.632812 208.351562 186.128906 214.429688 179.503906 216.835938 C 177.011719 217.746094 174.242188 216.457031 173.359375 213.96875 C 172.449219 211.480469 173.738281 208.71875 176.226562 207.835938 C 179.195312 206.742188 181.238281 203.992188 181.402344 200.832031 C 181.566406 197.671875 179.820312 194.753906 176.980469 193.359375 C 175.203125 192.511719 174.183594 190.667969 174.28125 188.800781 Z M 174.28125 188.800781"/><path d="M 178.9375 191.636719 C 178.671875 191.378906 178.464844 191.066406 178.304688 190.699219 C 177.703125 189.246094 178.378906 187.585938 179.832031 186.976562 C 183.675781 185.351562 188.082031 186.1875 191.0625 189.097656 C 194.046875 192.007812 194.988281 196.390625 193.464844 200.285156 C 192.894531 201.75 191.238281 202.480469 189.785156 201.898438 C 188.320312 201.332031 187.59375 199.675781 188.175781 198.222656 C 188.851562 196.472656 188.425781 194.484375 187.082031 193.175781 C 185.742188 191.863281 183.757812 191.5 182.023438 192.21875 C 180.953125 192.675781 179.730469 192.410156 178.9375 191.636719 Z M 178.9375 191.636719"/><path d="M 178.621094 190.78125 C 178.765625 190.175781 179.039062 189.601562 179.4375 189.058594 C 181.019531 186.933594 184.015625 186.484375 186.144531 188.066406 C 191.816406 192.234375 194.402344 199.34375 192.75 206.175781 C 191.101562 213.007812 185.554688 218.152344 178.597656 219.296875 C 175.980469 219.734375 173.5 217.960938 173.085938 215.351562 C 172.648438 212.738281 174.421875 210.257812 177.035156 209.847656 C 180.152344 209.324219 182.667969 206.996094 183.410156 203.917969 C 184.152344 200.84375 182.972656 197.652344 180.4375 195.757812 C 178.847656 194.597656 178.183594 192.597656 178.621094 190.78125 Z M 178.621094 190.78125"/><path d="M 176.46875 188.894531 C 176.203125 188.636719 175.992188 188.324219 175.835938 187.957031 C 175.230469 186.507812 175.910156 184.84375 177.359375 184.238281 C 181.207031 182.609375 185.609375 183.445312 188.59375 186.355469 C 191.574219 189.265625 192.519531 193.648438 190.996094 197.542969 C 190.425781 199.007812 188.769531 199.738281 187.316406 199.160156 C 185.851562 198.589844 185.125 196.933594 185.707031 195.480469 C 186.382812 193.730469 185.957031 191.742188 184.613281 190.433594 C 183.269531 189.121094 181.285156 188.757812 179.554688 189.476562 C 178.480469 189.9375 177.261719 189.667969 176.46875 188.894531 Z M 176.46875 188.894531"/><g clip-path="url(#q)"><g clip-path="url(#r)"><g clip-path="url(#s)"><path d="M 167.671875 197.492188 C 166.867188 196.683594 166.867188 195.398438 167.671875 194.59375 C 168.476562 193.789062 169.765625 193.789062 170.570312 194.59375 C 177.816406 201.84375 189.410156 201.847656 196.648438 194.609375 C 203.890625 187.367188 203.882812 175.777344 196.632812 168.53125 C 195.828125 167.722656 195.828125 166.4375 196.632812 165.632812 C 197.4375 164.828125 198.726562 164.828125 199.53125 165.632812 C 207.746094 173.847656 208.074219 187.050781 200.835938 195.898438 L 208.40625 203.46875 L 213.394531 198.480469 C 214.199219 197.675781 215.484375 197.679688 216.292969 198.484375 C 217.097656 199.289062 217.097656 200.578125 216.292969 201.382812 L 203.582031 214.09375 C 202.777344 214.894531 201.488281 214.894531 200.683594 214.089844 C 199.878906 213.285156 199.878906 211.996094 200.683594 211.191406 L 205.671875 206.203125 L 198.101562 198.632812 C 189.410156 206.035156 176.050781 205.542969 167.835938 197.328125 Z M 167.671875 197.492188"/></g></g></g><g clip-path="url(#t)"><g clip-path="url(#u)"><g clip-path="url(#v)"><path d="M 154.144531 187.824219 L 135.621094 169.300781 C 121.625 182.65625 119.222656 204.707031 130.660156 220.972656 C 143.386719 238.851562 168.179688 243.050781 186.042969 230.339844 C 188.136719 228.894531 190.066406 227.285156 191.675781 225.355469 L 173.152344 206.832031 C 172.507812 207.472656 171.863281 208.117188 171.058594 208.601562 C 164.945312 213.105469 156.414062 211.652344 152.0625 205.691406 C 148.195312 200.214844 149.15625 192.488281 154.144531 187.824219 Z M 141.757812 201.179688 L 143.6875 200.535156 C 145.140625 204.238281 147.554688 207.621094 150.453125 210.199219 C 153.515625 212.9375 157.378906 214.871094 161.40625 216 L 160.601562 217.769531 C 156.253906 216.640625 152.226562 214.546875 149.007812 211.648438 C 145.785156 208.746094 143.207031 205.203125 141.597656 201.019531 Z M 136.765625 202.945312 C 138.703125 207.777344 141.601562 212.285156 145.628906 215.667969 C 149.332031 219.050781 154.003906 221.46875 158.832031 222.761719 L 158.191406 224.691406 C 153.199219 223.238281 148.367188 220.660156 144.503906 217.117188 C 140.316406 213.25 137.09375 208.742188 134.996094 203.429688 L 136.929688 202.785156 Z M 140.964844 220.980469 C 145.152344 224.84375 150.464844 227.585938 155.9375 229.199219 L 155.136719 230.96875 C 149.5 229.195312 144.023438 226.292969 139.675781 222.265625 C 134.683594 217.917969 130.816406 212.441406 128.558594 206.324219 L 130.492188 205.679688 C 132.910156 211.636719 136.453125 216.792969 141.125 220.820312 Z M 140.964844 220.980469"/></g></g></g><path d="M 159.691406 209.585938 L 176.941406 209.585938 L 176.941406 226.835938 L 159.691406 226.835938 L 159.691406 209.585938"/><path d="M 168.0625 215.949219 C 167.84375 216.023438 167.605469 216.054688 167.355469 216.035156 C 166.367188 215.957031 165.628906 215.097656 165.707031 214.109375 C 165.898438 211.484375 167.636719 209.253906 170.128906 208.417969 C 172.617188 207.585938 175.347656 208.316406 177.09375 210.292969 C 177.75 211.03125 177.683594 212.171875 176.941406 212.820312 C 176.199219 213.476562 175.0625 213.410156 174.414062 212.664062 C 173.625 211.78125 172.390625 211.449219 171.269531 211.824219 C 170.148438 212.199219 169.371094 213.207031 169.277344 214.386719 C 169.226562 215.121094 168.722656 215.730469 168.0625 215.949219 Z M 168.0625 215.949219"/><path d="M 161.113281 213.453125 C 160.925781 213.441406 160.746094 213.394531 160.5625 213.308594 C 159.855469 212.96875 159.558594 212.121094 159.902344 211.414062 C 160.800781 209.527344 162.726562 208.378906 164.808594 208.480469 C 166.886719 208.578125 168.695312 209.90625 169.417969 211.871094 C 169.6875 212.605469 169.3125 213.429688 168.574219 213.695312 C 167.835938 213.96875 167.015625 213.589844 166.753906 212.851562 C 166.425781 211.972656 165.605469 211.371094 164.671875 211.324219 C 163.734375 211.28125 162.867188 211.800781 162.460938 212.644531 C 162.210938 213.171875 161.664062 213.476562 161.113281 213.453125 Z M 161.113281 213.453125"/><path fill="#FFF" d="M 163.207031 206.042969 L 168.222656 204.492188 L 169.773438 209.503906 L 164.757812 211.058594 L 163.207031 206.042969"/><path fill="#FFF" d="M 157.414062 206.375 L 165.480469 204.664062 L 166.726562 210.535156 L 158.660156 212.246094 L 157.414062 206.375"/></svg>