<svg xmlns="http://www.w3.org/2000/svg" xmlns:xlink="http://www.w3.org/1999/xlink" width="375" zoomAndPan="magnify" viewBox="0 0 375 374.999991" height="374.999991" preserveAspectRatio="xMidYMid meet" version="1.0"><defs><g><g id="id1"/></g><clipPath id="id2"><path d="M 89 102.910156 L 273.5625 102.910156 L 273.5625 271.886719 L 89 271.886719 Z M 89 102.910156 " clip-rule="nonzero"/></clipPath><clipPath id="id3"><path d="M 96 169.085938 L 116 169.085938 L 116 206.515625 L 96 206.515625 Z M 96 169.085938 " clip-rule="nonzero"/></clipPath><clipPath id="id4"><path d="M 100.167969 180 L 113.394531 180 L 113.394531 183.957031 L 100.167969 183.957031 Z M 100.167969 180 " clip-rule="nonzero"/></clipPath><clipPath id="id5"><path d="M 121.449219 171.050781 L 110.171875 183.585938 L 100.34375 174.742188 L 111.621094 162.207031 Z M 121.449219 171.050781 " clip-rule="nonzero"/></clipPath><clipPath id="id6"><path d="M 144.332031 182.4375 L 110.722656 219.800781 L 82.699219 194.59375 L 116.3125 157.230469 Z M 144.332031 182.4375 " clip-rule="nonzero"/></clipPath><clipPath id="id7"><path d="M 100.609375 168.085938 L 121.769531 168.085938 L 121.769531 183.957031 L 100.609375 183.957031 Z M 100.609375 168.085938 " clip-rule="nonzero"/></clipPath><clipPath id="id8"><path d="M 121.449219 171.050781 L 110.171875 183.585938 L 100.34375 174.742188 L 111.621094 162.207031 Z M 121.449219 171.050781 " clip-rule="nonzero"/></clipPath><clipPath id="id9"><path d="M 144.332031 182.4375 L 110.722656 219.800781 L 82.699219 194.59375 L 116.3125 157.230469 Z M 144.332031 182.4375 " clip-rule="nonzero"/></clipPath><clipPath id="id10"><path d="M 114.277344 168.085938 L 132.789062 168.085938 L 132.789062 183 L 114.277344 183 Z M 114.277344 168.085938 " clip-rule="nonzero"/></clipPath><clipPath id="id11"><path d="M 131.277344 182.8125 L 114.488281 181.242188 L 115.71875 168.074219 L 132.507812 169.644531 Z M 131.277344 182.8125 " clip-rule="nonzero"/></clipPath><clipPath id="id12"><path d="M 135.789062 207.972656 L 85.753906 203.292969 L 89.261719 165.765625 L 139.300781 170.445312 Z M 135.789062 207.972656 " clip-rule="nonzero"/></clipPath><clipPath id="id13"><path d="M 112 187.484375 L 117.484375 187.484375 L 117.484375 192.40625 L 112 192.40625 Z M 112 187.484375 " clip-rule="nonzero"/></clipPath><clipPath id="id14"><path d="M 113 182.816406 L 116.921875 182.816406 L 116.921875 190 L 113 190 Z M 113 182.816406 " clip-rule="nonzero"/></clipPath><clipPath id="id15"><path d="M 115 205 L 121 205 L 121 210.011719 L 115 210.011719 Z M 115 205 " clip-rule="nonzero"/></clipPath><clipPath id="id16"><path d="M 119.566406 173.375 L 152 173.375 L 152 203.351562 L 119.566406 203.351562 Z M 119.566406 173.375 " clip-rule="nonzero"/></clipPath><clipPath id="id17"><path d="M 119.734375 191.890625 L 146.011719 168.210938 L 156.195312 179.507812 L 129.914062 203.1875 Z M 119.734375 191.890625 " clip-rule="nonzero"/></clipPath><clipPath id="id18"><path d="M 111.8125 199.023438 L 145.953125 168.261719 L 156.136719 179.5625 L 121.992188 210.324219 Z M 111.8125 199.023438 " clip-rule="nonzero"/></clipPath><clipPath id="id19"><path d="M 111.8125 199.023438 L 145.953125 168.261719 L 156.136719 179.5625 L 121.992188 210.324219 Z M 111.8125 199.023438 " clip-rule="nonzero"/></clipPath><clipPath id="id20"><path d="M 118.242188 192.332031 L 129.703125 192.332031 L 129.703125 196.738281 L 118.242188 196.738281 Z M 118.242188 192.332031 " clip-rule="nonzero"/></clipPath><clipPath id="id21"><path d="M 109.695312 203.71875 L 120.917969 192.496094 L 129.566406 201.148438 L 118.34375 212.367188 Z M 109.695312 203.71875 " clip-rule="nonzero"/></clipPath><clipPath id="id22"><path d="M 88.992188 192.011719 L 121.957031 159.050781 L 146.738281 183.832031 L 113.773438 216.792969 Z M 88.992188 192.011719 " clip-rule="nonzero"/></clipPath><clipPath id="id23"><path d="M 109.425781 192.332031 L 129.261719 192.332031 L 129.261719 206.878906 L 109.425781 206.878906 Z M 109.425781 192.332031 " clip-rule="nonzero"/></clipPath><clipPath id="id24"><path d="M 109.695312 203.71875 L 120.917969 192.496094 L 129.566406 201.148438 L 118.34375 212.367188 Z M 109.695312 203.71875 " clip-rule="nonzero"/></clipPath><clipPath id="id25"><path d="M 88.992188 192.011719 L 121.957031 159.050781 L 146.738281 183.832031 L 113.773438 216.792969 Z M 88.992188 192.011719 " clip-rule="nonzero"/></clipPath></defs><g clip-path="url(#id2)"><path fill="rgb(0%, 0%, 0%)" d="M 89 187.402344 C 89 234.0625 100.40625 271.886719 147.003906 271.886719 C 193.601562 271.886719 273.5625 213.390625 273.5625 187.402344 C 273.5625 161.410156 193.601562 102.910156 147.003906 102.910156 C 100.40625 102.910156 89 140.738281 89 187.402344 " fill-opacity="1" fill-rule="nonzero"/></g><path fill="rgb(0%, 0%, 0%)" d="M 114.515625 189.335938 C 113.296875 189.117188 112.410156 188.007812 112.632812 186.789062 C 112.851562 185.570312 113.960938 184.683594 115.183594 184.90625 C 115.40625 184.90625 115.515625 185.015625 115.738281 185.015625 L 115.738281 189.117188 C 115.292969 189.335938 114.851562 189.335938 114.40625 189.226562 Z M 114.515625 189.335938 " fill-opacity="1" fill-rule="nonzero"/><g clip-path="url(#id3)"><path fill="rgb(100%, 100%, 100%)" d="M 115.847656 180.582031 L 115.847656 167.835938 C 106.417969 167.613281 97.980469 174.375 96.316406 183.90625 C 94.539062 194.4375 101.644531 204.410156 112.1875 206.183594 C 113.40625 206.40625 114.628906 206.515625 115.847656 206.40625 L 115.847656 193.660156 C 115.40625 193.660156 114.960938 193.660156 114.515625 193.550781 C 110.855469 192.996094 108.414062 189.558594 108.96875 186.011719 C 109.523438 182.796875 112.519531 180.46875 115.847656 180.582031 Z M 106.972656 180.914062 L 107.859375 181.359375 C 107.082031 183.132812 106.75 185.125 106.859375 187.011719 C 106.972656 189.003906 107.636719 191 108.636719 192.773438 L 107.746094 193.105469 C 106.636719 191.222656 105.972656 189.117188 105.859375 187.011719 C 105.75 184.90625 106.082031 182.796875 106.972656 180.804688 Z M 104.640625 179.804688 C 103.640625 182.132812 103.085938 184.683594 103.308594 187.230469 C 103.417969 189.667969 104.195312 192.109375 105.417969 194.214844 L 104.527344 194.65625 C 103.308594 192.441406 102.53125 189.890625 102.417969 187.34375 C 102.308594 184.574219 102.753906 181.910156 103.863281 179.363281 L 104.75 179.804688 Z M 99.867188 187.453125 C 99.976562 190.222656 100.867188 192.996094 102.199219 195.433594 L 101.3125 195.765625 C 99.976562 193.214844 99.089844 190.335938 98.980469 187.453125 C 98.757812 184.238281 99.3125 181.023438 100.644531 178.140625 L 101.53125 178.585938 C 100.3125 181.46875 99.757812 184.460938 99.976562 187.453125 Z M 99.867188 187.453125 " fill-opacity="1" fill-rule="nonzero"/></g><path fill="rgb(0%, 0%, 0%)" d="M 111.160156 187.765625 C 111.160156 186.839844 111.433594 186.125 111.980469 185.621094 C 112.53125 185.117188 113.332031 184.863281 114.378906 184.863281 C 115.375 184.863281 116.136719 185.117188 116.671875 185.621094 C 117.203125 186.125 117.472656 186.839844 117.472656 187.765625 C 117.472656 188.671875 117.195312 189.375 116.644531 189.886719 C 116.097656 190.394531 115.34375 190.652344 114.378906 190.652344 C 113.382812 190.652344 112.597656 190.398438 112.023438 189.898438 C 111.449219 189.394531 111.160156 188.683594 111.160156 187.765625 Z M 111.160156 187.765625 " fill-opacity="1" fill-rule="nonzero"/><g clip-path="url(#id4)"><g clip-path="url(#id5)"><g clip-path="url(#id6)"><path fill="rgb(100%, 100%, 100%)" d="M 112.730469 187.371094 C 113.132812 187.730469 113.164062 188.34375 112.800781 188.746094 C 112.441406 189.144531 111.832031 189.179688 111.429688 188.820312 C 107.816406 185.566406 102.320312 185.863281 99.070312 189.476562 C 95.8125 193.097656 96.101562 198.589844 99.714844 201.839844 C 100.117188 202.203125 100.148438 202.8125 99.785156 203.214844 C 99.421875 203.617188 98.8125 203.648438 98.414062 203.285156 C 94.316406 199.605469 93.835938 193.355469 97.050781 188.972656 L 93.277344 185.578125 L 91.039062 188.070312 C 90.675781 188.472656 90.0625 188.503906 89.664062 188.144531 C 89.261719 187.785156 89.230469 187.171875 89.59375 186.769531 L 95.304688 180.421875 C 95.664062 180.019531 96.277344 179.988281 96.679688 180.347656 C 97.078125 180.707031 97.109375 181.320312 96.75 181.722656 L 94.507812 184.210938 L 98.28125 187.609375 C 102.21875 183.875 108.5625 183.769531 112.660156 187.453125 Z M 112.730469 187.371094 " fill-opacity="1" fill-rule="nonzero"/></g></g></g><g clip-path="url(#id7)"><g clip-path="url(#id8)"><g clip-path="url(#id9)"><path fill="rgb(100%, 100%, 100%)" d="M 119.378906 191.605469 L 128.613281 199.914062 C 134.917969 193.226562 135.519531 182.710938 129.699219 175.292969 C 123.226562 167.144531 111.371094 165.789062 103.21875 172.269531 C 102.261719 173.007812 101.386719 173.820312 100.671875 174.777344 L 109.90625 183.085938 C 110.195312 182.761719 110.484375 182.441406 110.851562 182.191406 C 113.640625 179.902344 117.722656 180.371094 119.929688 183.085938 C 121.894531 185.582031 121.628906 189.269531 119.378906 191.605469 Z M 124.921875 184.960938 L 124.023438 185.316406 C 123.246094 183.597656 122.015625 182.054688 120.578125 180.90625 C 119.0625 179.6875 117.183594 178.871094 115.246094 178.4375 L 115.585938 177.578125 C 117.671875 178 119.632812 178.890625 121.230469 180.183594 C 122.828125 181.476562 124.136719 183.089844 125.003906 185.03125 Z M 127.242188 183.992188 C 126.207031 181.753906 124.722656 179.691406 122.730469 178.191406 C 120.894531 176.683594 118.621094 175.65625 116.300781 175.167969 L 116.558594 174.234375 C 118.960938 174.796875 121.3125 175.894531 123.230469 177.472656 C 125.308594 179.199219 126.949219 181.253906 128.070312 183.71875 L 127.171875 184.074219 Z M 124.8125 175.554688 C 122.734375 173.828125 120.148438 172.667969 117.515625 172.042969 L 117.851562 171.183594 C 120.566406 171.878906 123.234375 173.113281 125.394531 174.910156 C 127.867188 176.84375 129.832031 179.339844 131.054688 182.183594 L 130.152344 182.539062 C 128.859375 179.777344 127.054688 177.425781 124.742188 175.636719 Z M 124.8125 175.554688 " fill-opacity="1" fill-rule="nonzero"/></g></g></g><g clip-path="url(#id10)"><g clip-path="url(#id11)"><g clip-path="url(#id12)"><path fill="rgb(100%, 100%, 100%)" d="M 113.542969 193.417969 L 112.386719 205.78125 C 121.519531 206.851562 130.3125 201.058594 132.792969 191.960938 C 135.46875 181.910156 129.484375 171.585938 119.417969 168.910156 C 118.253906 168.582031 117.082031 168.363281 115.886719 168.363281 L 114.730469 180.726562 C 115.160156 180.769531 115.589844 180.808594 116.011719 180.957031 C 119.515625 181.824219 121.570312 185.378906 120.710938 188.769531 C 119.878906 191.839844 116.765625 193.828125 113.542969 193.417969 Z M 122.1875 193.898438 L 121.363281 193.386719 C 122.277344 191.738281 122.785156 189.832031 122.847656 187.992188 C 122.917969 186.050781 122.453125 184.054688 121.648438 182.242188 L 122.539062 182 C 123.441406 183.929688 123.898438 186.03125 123.816406 188.085938 C 123.734375 190.136719 123.21875 192.152344 122.175781 194.003906 Z M 124.34375 195.183594 C 125.527344 193.015625 126.296875 190.597656 126.3125 188.101562 C 126.425781 185.726562 125.894531 183.289062 124.898438 181.136719 L 125.800781 180.789062 C 126.785156 183.046875 127.304688 185.59375 127.183594 188.074219 C 127.039062 190.773438 126.367188 193.3125 125.058594 195.6875 L 124.238281 195.175781 Z M 129.667969 188.199219 C 129.8125 185.5 129.203125 182.730469 128.132812 180.246094 L 129.023438 180.003906 C 130.085938 182.597656 130.683594 185.472656 130.53125 188.28125 C 130.453125 191.417969 129.625 194.484375 128.070312 197.160156 L 127.25 196.652344 C 128.695312 193.964844 129.503906 191.113281 129.5625 188.1875 Z M 129.667969 188.199219 " fill-opacity="1" fill-rule="nonzero"/></g></g></g><path fill="rgb(0%, 0%, 0%)" d="M 115.074219 179.097656 C 110.601562 179.097656 106.972656 182.722656 106.972656 187.195312 C 106.972656 191.671875 110.601562 195.296875 115.074219 195.296875 C 119.546875 195.296875 123.175781 191.671875 123.175781 187.195312 C 123.175781 182.722656 119.546875 179.097656 115.074219 179.097656 " fill-opacity="1" fill-rule="nonzero"/><g clip-path="url(#id13)"><path fill="rgb(100%, 100%, 100%)" d="M 112.039062 187.988281 C 112.039062 187.847656 112.152344 187.734375 112.296875 187.734375 C 112.4375 187.734375 112.550781 187.847656 112.550781 187.988281 C 112.550781 189.269531 113.578125 190.292969 114.859375 190.292969 C 116.136719 190.292969 117.160156 189.269531 117.160156 187.988281 C 117.160156 187.847656 117.273438 187.734375 117.417969 187.734375 C 117.5625 187.734375 117.675781 187.847656 117.675781 187.988281 C 117.675781 189.4375 116.535156 190.632812 115.113281 190.773438 L 115.113281 192.109375 L 115.996094 192.109375 C 116.136719 192.109375 116.25 192.222656 116.25 192.367188 C 116.25 192.507812 116.136719 192.621094 115.996094 192.621094 L 113.746094 192.621094 C 113.605469 192.621094 113.488281 192.507812 113.488281 192.367188 C 113.488281 192.222656 113.605469 192.109375 113.746094 192.109375 L 114.628906 192.109375 L 114.628906 190.773438 C 113.207031 190.660156 112.066406 189.4375 112.066406 187.988281 Z M 112.039062 187.988281 " fill-opacity="1" fill-rule="nonzero"/></g><g clip-path="url(#id14)"><path fill="rgb(100%, 100%, 100%)" d="M 113.605469 186.910156 C 113.804688 186.910156 113.972656 186.738281 113.972656 186.539062 C 113.972656 186.339844 113.804688 186.171875 113.605469 186.171875 L 113.035156 186.171875 L 113.035156 185.574219 L 113.605469 185.574219 C 113.804688 185.574219 113.972656 185.402344 113.972656 185.203125 C 113.972656 185.003906 113.804688 184.835938 113.605469 184.835938 L 113.035156 184.835938 L 113.035156 184.605469 C 113.035156 183.613281 113.832031 182.816406 114.828125 182.816406 C 115.824219 182.816406 116.621094 183.613281 116.621094 184.605469 L 116.621094 184.835938 L 116.050781 184.835938 C 115.851562 184.835938 115.683594 185.003906 115.683594 185.203125 C 115.683594 185.402344 115.851562 185.574219 116.050781 185.574219 L 116.621094 185.574219 L 116.621094 186.171875 L 116.050781 186.171875 C 115.851562 186.171875 115.683594 186.339844 115.683594 186.539062 C 115.683594 186.738281 115.851562 186.910156 116.050781 186.910156 L 116.621094 186.910156 L 116.621094 187.988281 C 116.621094 188.984375 115.824219 189.78125 114.828125 189.78125 C 113.832031 189.78125 113.035156 188.984375 113.035156 187.988281 L 113.035156 186.910156 Z M 113.605469 186.910156 " fill-opacity="1" fill-rule="nonzero"/></g><path fill="rgb(0%, 0%, 0%)" d="M 119.589844 183.042969 L 133.464844 177.976562 L 130.914062 192.523438 Z M 119.589844 183.042969 " fill-opacity="1" fill-rule="nonzero"/><path fill="rgb(100%, 100%, 100%)" d="M 98.820312 177.34375 L 106.421875 177.34375 L 106.421875 184.949219 L 98.820312 184.949219 L 98.820312 177.34375 " fill-opacity="1" fill-rule="nonzero"/><path fill="rgb(100%, 100%, 100%)" d="M 98.355469 184.085938 L 105.960938 184.085938 L 105.960938 191.691406 L 98.355469 191.691406 L 98.355469 184.085938 " fill-opacity="1" fill-rule="nonzero"/><path fill="rgb(100%, 100%, 100%)" d="M 101.132812 177.34375 L 108.738281 177.34375 L 108.738281 184.949219 L 101.132812 184.949219 L 101.132812 177.34375 " fill-opacity="1" fill-rule="nonzero"/><path fill="rgb(100%, 100%, 100%)" d="M 100.394531 184.085938 L 108 184.085938 L 108 191.691406 L 100.394531 191.691406 L 100.394531 184.085938 " fill-opacity="1" fill-rule="nonzero"/><path fill="rgb(100%, 100%, 100%)" d="M 98.820312 189.195312 L 106.421875 189.195312 L 106.421875 196.800781 L 98.820312 196.800781 L 98.820312 189.195312 " fill-opacity="1" fill-rule="nonzero"/><path fill="rgb(100%, 100%, 100%)" d="M 101.132812 184.898438 L 108.738281 184.898438 L 108.738281 196.796875 L 101.132812 196.796875 L 101.132812 184.898438 " fill-opacity="1" fill-rule="nonzero"/><path fill="rgb(100%, 100%, 100%)" d="M 114.71875 193.769531 L 116.703125 193.769531 L 116.703125 205.988281 L 114.71875 205.988281 L 114.71875 193.769531 " fill-opacity="1" fill-rule="nonzero"/><path fill="rgb(100%, 100%, 100%)" d="M 115.535156 205.84375 L 116.195312 205.84375 L 116.195312 206.503906 L 115.535156 206.503906 L 115.535156 205.84375 " fill-opacity="1" fill-rule="nonzero"/><g clip-path="url(#id15)"><path fill="rgb(0%, 0%, 0%)" d="M 117.957031 205.511719 C 116.496094 205.511719 115.3125 206.695312 115.3125 208.160156 C 115.3125 209.617188 116.496094 210.804688 117.957031 210.804688 C 119.417969 210.804688 120.605469 209.617188 120.605469 208.160156 C 120.605469 206.695312 119.417969 205.511719 117.957031 205.511719 " fill-opacity="1" fill-rule="nonzero"/></g><path fill="rgb(0%, 0%, 0%)" d="M 118.28125 192.511719 C 118.347656 192.511719 118.414062 192.527344 118.480469 192.554688 C 118.738281 192.664062 118.859375 192.960938 118.75 193.21875 C 118.460938 193.90625 117.792969 194.351562 117.046875 194.351562 C 116.304688 194.351562 115.636719 193.90625 115.34375 193.21875 C 115.234375 192.960938 115.355469 192.660156 115.613281 192.554688 C 115.875 192.445312 116.171875 192.5625 116.28125 192.824219 C 116.410156 193.128906 116.714844 193.332031 117.046875 193.332031 C 117.382812 193.332031 117.683594 193.128906 117.8125 192.824219 C 117.894531 192.628906 118.085938 192.511719 118.28125 192.511719 Z M 118.28125 192.511719 " fill-opacity="1" fill-rule="nonzero"/><g clip-path="url(#id16)"><g clip-path="url(#id17)"><g clip-path="url(#id18)"><g clip-path="url(#id19)"><path fill="rgb(100%, 100%, 100%)" d="M 150.976562 173.835938 L 150.953125 173.8125 C 150.632812 173.738281 150.277344 173.914062 150.117188 174.199219 C 150.15625 174.320312 150.203125 174.4375 150.265625 174.546875 C 150.375 174.53125 150.476562 174.5 150.582031 174.472656 C 150.609375 174.523438 150.613281 174.585938 150.632812 174.640625 C 150.394531 174.746094 150.164062 174.859375 149.929688 174.972656 C 149.921875 174.957031 149.902344 174.921875 149.894531 174.90625 C 149.871094 174.882812 149.847656 174.859375 149.824219 174.835938 C 149.921875 174.777344 150.019531 174.710938 150.105469 174.636719 C 150.046875 174.523438 149.988281 174.414062 149.929688 174.300781 C 149.609375 174.222656 149.242188 174.398438 149.085938 174.6875 C 149.125 174.808594 149.167969 174.925781 149.234375 175.035156 C 149.34375 175.019531 149.453125 174.992188 149.558594 174.957031 C 149.570312 175.015625 149.582031 175.074219 149.601562 175.128906 C 149.375 175.242188 149.140625 175.351562 148.910156 175.464844 C 148.902344 175.441406 148.882812 175.402344 148.871094 175.382812 C 148.847656 175.363281 148.824219 175.34375 148.800781 175.320312 C 148.902344 175.261719 148.996094 175.195312 149.085938 175.121094 C 149.03125 175.023438 148.988281 174.917969 148.929688 174.824219 C 148.898438 174.765625 148.820312 174.773438 148.765625 174.765625 C 148.511719 174.765625 148.25 174.898438 148.105469 175.109375 C 148.085938 175.136719 148.0625 175.167969 148.078125 175.199219 C 148.105469 175.316406 148.15625 175.421875 148.21875 175.523438 C 148.328125 175.503906 148.4375 175.476562 148.542969 175.441406 C 148.546875 175.46875 148.550781 175.5 148.554688 175.53125 C 148.566406 175.5625 148.574219 175.589844 148.585938 175.621094 C 148.355469 175.730469 148.121094 175.84375 147.886719 175.957031 C 147.855469 175.90625 147.816406 175.859375 147.773438 175.816406 C 147.871094 175.757812 147.96875 175.691406 148.050781 175.613281 C 147.992188 175.507812 147.945312 175.390625 147.875 175.289062 C 147.777344 175.246094 147.660156 175.261719 147.554688 175.28125 C 147.339844 175.335938 147.140625 175.472656 147.035156 175.671875 C 147.070312 175.792969 147.117188 175.910156 147.179688 176.019531 C 147.292969 176.007812 147.394531 175.960938 147.503906 175.949219 C 147.523438 176.003906 147.53125 176.0625 147.554688 176.117188 C 147.316406 176.234375 147.078125 176.339844 146.84375 176.460938 C 146.808594 176.410156 146.769531 176.363281 146.726562 176.316406 C 146.824219 176.257812 146.917969 176.191406 147.003906 176.121094 C 146.949219 176.007812 146.890625 175.898438 146.835938 175.785156 C 146.585938 175.71875 146.308594 175.820312 146.125 175.992188 C 146.074219 176.046875 146.011719 176.101562 145.996094 176.175781 C 146.019531 176.296875 146.070312 176.410156 146.136719 176.511719 C 146.246094 176.511719 146.351562 176.46875 146.457031 176.4375 C 146.472656 176.5 146.488281 176.558594 146.507812 176.621094 C 146.285156 176.730469 146.058594 176.839844 145.832031 176.945312 C 145.800781 176.890625 145.761719 176.835938 145.71875 176.792969 C 145.816406 176.734375 145.90625 176.671875 145.996094 176.597656 C 145.9375 176.492188 145.890625 176.378906 145.824219 176.273438 C 145.761719 176.230469 145.671875 176.238281 145.59375 176.242188 C 145.367188 176.277344 145.140625 176.390625 145.015625 176.585938 C 145 176.613281 144.976562 176.640625 144.988281 176.671875 C 145.015625 176.789062 145.070312 176.890625 145.125 176.996094 C 145.234375 176.976562 145.34375 176.953125 145.449219 176.914062 C 145.460938 176.980469 145.476562 177.042969 145.503906 177.105469 C 145.304688 177.195312 145.109375 177.296875 144.90625 177.386719 C 144.753906 177.457031 144.59375 177.574219 144.570312 177.75 C 144.535156 177.980469 144.617188 178.21875 144.535156 178.441406 C 144.492188 178.5625 144.394531 178.648438 144.300781 178.726562 C 143.808594 179.15625 143.324219 179.597656 142.828125 180.023438 C 142.273438 180.503906 141.734375 181 141.175781 181.476562 C 140.777344 181.824219 140.386719 182.175781 139.992188 182.527344 C 139.445312 182.988281 138.914062 183.472656 138.375 183.949219 C 137.902344 184.351562 137.441406 184.765625 136.976562 185.183594 C 136.472656 185.613281 135.976562 186.050781 135.480469 186.492188 C 134.941406 186.957031 134.414062 187.429688 133.882812 187.902344 C 133.273438 188.417969 132.6875 188.957031 132.085938 189.480469 C 131.570312 189.921875 131.074219 190.382812 130.558594 190.824219 C 130.441406 190.917969 130.34375 191.046875 130.191406 191.074219 C 130.042969 191.113281 129.875 191.078125 129.765625 190.964844 C 129.601562 190.792969 129.539062 190.558594 129.480469 190.335938 C 129.355469 189.847656 129.191406 189.371094 128.980469 188.914062 C 128.996094 188.929688 129.035156 188.96875 129.050781 188.984375 C 129.089844 188.941406 129.078125 188.886719 129.074219 188.835938 L 129.058594 188.820312 C 129.085938 188.796875 129.117188 188.777344 129.144531 188.761719 C 129.152344 188.773438 129.171875 188.796875 129.179688 188.808594 C 129.277344 188.835938 129.371094 188.859375 129.464844 188.882812 C 129.472656 188.835938 129.46875 188.785156 129.445312 188.746094 C 129.359375 188.574219 129.261719 188.410156 129.15625 188.253906 C 129.132812 188.210938 129.089844 188.183594 129.042969 188.164062 C 129.023438 188.277344 128.960938 188.386719 128.988281 188.503906 C 128.960938 188.519531 128.933594 188.535156 128.910156 188.550781 C 128.886719 188.535156 128.867188 188.519531 128.839844 188.503906 C 128.832031 188.492188 128.8125 188.472656 128.804688 188.460938 C 128.792969 188.46875 128.769531 188.484375 128.757812 188.492188 C 128.765625 188.519531 128.769531 188.550781 128.777344 188.578125 C 128.601562 188.347656 128.40625 188.125 128.160156 187.96875 C 127.75 187.703125 127.234375 187.597656 126.75 187.699219 C 126.386719 187.773438 126.058594 187.957031 125.769531 188.183594 C 125.296875 188.558594 124.925781 189.042969 124.605469 189.546875 C 124.375 189.910156 124.167969 190.289062 123.988281 190.679688 C 123.78125 191.152344 123.515625 191.601562 123.164062 191.980469 C 122.785156 192.402344 122.3125 192.734375 121.796875 192.960938 C 121.425781 193.128906 121.027344 193.230469 120.640625 193.351562 C 119.847656 193.589844 119.046875 193.8125 118.273438 194.105469 C 117.375 194.445312 116.496094 194.867188 115.765625 195.5 C 115.1875 195.992188 114.726562 196.625 114.480469 197.34375 C 114.234375 198.035156 114.179688 198.78125 114.242188 199.507812 C 114.273438 199.824219 114.371094 200.132812 114.492188 200.429688 C 114.707031 200.953125 115.003906 201.441406 115.320312 201.910156 C 115.773438 202.578125 116.285156 203.210938 116.816406 203.820312 C 116.917969 203.9375 117.015625 204.054688 117.125 204.164062 C 117.082031 204.144531 117.039062 204.117188 116.996094 204.15625 C 117.136719 204.289062 117.261719 204.433594 117.386719 204.582031 C 117.425781 204.550781 117.410156 204.503906 117.394531 204.460938 C 117.695312 204.816406 118.019531 205.152344 118.34375 205.492188 C 119.035156 206.195312 119.761719 206.890625 120.613281 207.402344 C 121.011719 207.640625 121.445312 207.839844 121.910156 207.902344 C 122.59375 207.996094 123.300781 207.972656 123.972656 207.792969 C 124.496094 207.652344 124.992188 207.410156 125.429688 207.089844 C 126.191406 206.53125 126.773438 205.769531 127.25 204.964844 C 127.761719 204.09375 128.167969 203.164062 128.535156 202.222656 C 128.640625 201.9375 128.800781 201.675781 128.945312 201.40625 C 129.191406 200.957031 129.472656 200.515625 129.859375 200.167969 C 130.296875 199.765625 130.839844 199.496094 131.390625 199.28125 C 131.808594 199.128906 132.226562 198.980469 132.628906 198.792969 C 133.269531 198.492188 133.894531 198.125 134.378906 197.597656 C 134.707031 197.246094 134.953125 196.792969 134.980469 196.308594 C 135.003906 196.085938 134.925781 195.855469 134.753906 195.714844 C 134.5625 195.550781 134.296875 195.472656 134.046875 195.53125 C 133.726562 195.589844 133.429688 195.738281 133.132812 195.871094 C 132.757812 196.035156 132.359375 196.148438 131.953125 196.175781 C 131.800781 196.183594 131.644531 196.195312 131.496094 196.164062 C 131.121094 196.101562 130.738281 195.957031 130.496094 195.65625 C 130.285156 195.402344 130.230469 195.046875 130.3125 194.734375 C 130.382812 194.46875 130.511719 194.21875 130.703125 194.023438 C 131.132812 193.632812 131.554688 193.230469 131.984375 192.835938 C 132.246094 192.601562 132.5 192.359375 132.757812 192.121094 C 133.277344 191.625 133.820312 191.15625 134.335938 190.65625 C 134.625 190.398438 134.902344 190.128906 135.191406 189.875 C 135.691406 189.386719 136.21875 188.925781 136.726562 188.445312 C 137.191406 188.007812 137.667969 187.585938 138.132812 187.148438 C 138.542969 186.757812 138.96875 186.382812 139.378906 185.992188 C 139.777344 185.609375 140.191406 185.25 140.59375 184.871094 C 141.128906 184.359375 141.6875 183.871094 142.222656 183.355469 C 142.644531 182.96875 143.074219 182.585938 143.488281 182.1875 C 143.925781 181.78125 144.375 181.382812 144.804688 180.964844 C 145.085938 180.707031 145.371094 180.445312 145.65625 180.191406 C 146.09375 179.742188 146.625 179.382812 147.191406 179.113281 C 147.542969 178.941406 147.914062 178.808594 148.277344 178.664062 C 148.734375 178.476562 149.183594 178.242188 149.535156 177.886719 C 149.761719 177.667969 149.933594 177.394531 150.046875 177.101562 C 150.097656 176.984375 150.113281 176.835938 150.222656 176.753906 C 150.492188 176.558594 150.835938 176.617188 151.132812 176.523438 C 151.414062 176.4375 151.671875 176.25 151.804688 175.988281 C 151.953125 175.707031 152.007812 175.367188 151.902344 175.066406 C 151.820312 174.824219 151.644531 174.613281 151.414062 174.503906 C 151.273438 174.441406 151.113281 174.464844 150.972656 174.503906 C 150.953125 174.472656 150.9375 174.441406 150.921875 174.40625 C 150.898438 174.386719 150.875 174.371094 150.851562 174.351562 C 150.953125 174.289062 151.046875 174.222656 151.136719 174.148438 C 151.082031 174.042969 151.03125 173.9375 150.976562 173.835938 Z M 150.976562 173.835938 " fill-opacity="1" fill-rule="nonzero"/></g></g></g></g><path fill="rgb(100%, 100%, 100%)" d="M 121.453125 185.191406 C 121.464844 184.917969 121.535156 184.644531 121.667969 184.378906 C 122.179688 183.328125 123.441406 182.890625 124.492188 183.402344 C 127.285156 184.75 128.984375 187.621094 128.824219 190.714844 C 128.660156 193.808594 126.675781 196.488281 123.753906 197.550781 C 122.65625 197.949219 121.433594 197.382812 121.046875 196.285156 C 120.644531 195.1875 121.214844 193.972656 122.308594 193.582031 C 123.617188 193.101562 124.519531 191.886719 124.59375 190.496094 C 124.664062 189.101562 123.894531 187.816406 122.644531 187.199219 C 121.859375 186.828125 121.410156 186.015625 121.453125 185.191406 Z M 121.453125 185.191406 " fill-opacity="1" fill-rule="nonzero"/><path fill="rgb(100%, 100%, 100%)" d="M 123.503906 186.441406 C 123.386719 186.328125 123.296875 186.1875 123.226562 186.027344 C 122.960938 185.386719 123.257812 184.65625 123.898438 184.386719 C 125.59375 183.671875 127.535156 184.039062 128.851562 185.320312 C 130.164062 186.605469 130.582031 188.535156 129.910156 190.253906 C 129.65625 190.898438 128.929688 191.222656 128.289062 190.964844 C 127.640625 190.714844 127.320312 189.984375 127.578125 189.34375 C 127.875 188.574219 127.6875 187.695312 127.09375 187.121094 C 126.503906 186.539062 125.628906 186.378906 124.867188 186.699219 C 124.394531 186.898438 123.855469 186.78125 123.503906 186.441406 Z M 123.503906 186.441406 " fill-opacity="1" fill-rule="nonzero"/><path fill="rgb(100%, 100%, 100%)" d="M 123.367188 186.0625 C 123.429688 185.796875 123.550781 185.542969 123.726562 185.304688 C 124.421875 184.367188 125.742188 184.167969 126.683594 184.867188 C 129.183594 186.703125 130.324219 189.839844 129.59375 192.851562 C 128.867188 195.863281 126.421875 198.128906 123.355469 198.632812 C 122.203125 198.828125 121.109375 198.046875 120.925781 196.894531 C 120.734375 195.742188 121.515625 194.648438 122.667969 194.46875 C 124.039062 194.238281 125.148438 193.210938 125.476562 191.855469 C 125.804688 190.5 125.285156 189.09375 124.167969 188.257812 C 123.464844 187.746094 123.171875 186.863281 123.367188 186.0625 Z M 123.367188 186.0625 " fill-opacity="1" fill-rule="nonzero"/><path fill="rgb(100%, 100%, 100%)" d="M 122.417969 185.230469 C 122.300781 185.117188 122.207031 184.980469 122.136719 184.820312 C 121.871094 184.179688 122.171875 183.445312 122.808594 183.179688 C 124.503906 182.460938 126.445312 182.828125 127.761719 184.113281 C 129.074219 185.394531 129.492188 187.328125 128.820312 189.042969 C 128.570312 189.691406 127.839844 190.011719 127.199219 189.757812 C 126.554688 189.507812 126.234375 188.777344 126.488281 188.136719 C 126.789062 187.363281 126.601562 186.488281 126.007812 185.910156 C 125.414062 185.332031 124.539062 185.171875 123.777344 185.488281 C 123.304688 185.691406 122.765625 185.574219 122.417969 185.230469 Z M 122.417969 185.230469 " fill-opacity="1" fill-rule="nonzero"/><g clip-path="url(#id20)"><g clip-path="url(#id21)"><g clip-path="url(#id22)"><path fill="rgb(100%, 100%, 100%)" d="M 118.539062 189.023438 C 118.183594 188.664062 118.183594 188.097656 118.539062 187.746094 C 118.894531 187.390625 119.460938 187.390625 119.816406 187.746094 C 123.011719 190.941406 128.121094 190.941406 131.3125 187.75 C 134.503906 184.558594 134.5 179.449219 131.304688 176.253906 C 130.953125 175.898438 130.953125 175.332031 131.304688 174.976562 C 131.660156 174.621094 132.230469 174.621094 132.582031 174.976562 C 136.203125 178.597656 136.351562 184.417969 133.160156 188.320312 L 136.496094 191.65625 L 138.695312 189.457031 C 139.050781 189.101562 139.617188 189.105469 139.972656 189.460938 C 140.328125 189.8125 140.328125 190.382812 139.972656 190.738281 L 134.371094 196.339844 C 134.015625 196.695312 133.445312 196.695312 133.089844 196.339844 C 132.738281 195.984375 132.738281 195.414062 133.089844 195.0625 L 135.289062 192.863281 L 131.953125 189.523438 C 128.121094 192.789062 122.234375 192.570312 118.613281 188.949219 Z M 118.539062 189.023438 " fill-opacity="1" fill-rule="nonzero"/></g></g></g><g clip-path="url(#id23)"><g clip-path="url(#id24)"><g clip-path="url(#id25)"><path fill="rgb(100%, 100%, 100%)" d="M 112.574219 184.761719 L 104.410156 176.59375 C 98.242188 182.480469 97.179688 192.203125 102.222656 199.371094 C 107.832031 207.253906 118.761719 209.105469 126.636719 203.503906 C 127.5625 202.863281 128.410156 202.15625 129.121094 201.304688 L 120.953125 193.140625 C 120.671875 193.421875 120.386719 193.707031 120.03125 193.917969 C 117.335938 195.90625 113.578125 195.265625 111.65625 192.636719 C 109.953125 190.222656 110.375 186.816406 112.574219 184.761719 Z M 107.117188 190.648438 L 107.964844 190.363281 C 108.605469 191.996094 109.671875 193.488281 110.949219 194.625 C 112.296875 195.832031 114 196.683594 115.777344 197.179688 L 115.421875 197.960938 C 113.503906 197.464844 111.730469 196.539062 110.3125 195.261719 C 108.890625 193.984375 107.753906 192.421875 107.042969 190.578125 Z M 104.914062 191.425781 C 105.769531 193.554688 107.046875 195.542969 108.820312 197.035156 C 110.453125 198.527344 112.515625 199.589844 114.640625 200.160156 L 114.359375 201.011719 C 112.160156 200.371094 110.027344 199.234375 108.324219 197.671875 C 106.480469 195.96875 105.058594 193.980469 104.132812 191.640625 L 104.988281 191.355469 Z M 106.765625 199.375 C 108.613281 201.078125 110.953125 202.289062 113.367188 203 L 113.011719 203.78125 C 110.527344 202.996094 108.113281 201.71875 106.199219 199.941406 C 103.996094 198.027344 102.292969 195.613281 101.296875 192.914062 L 102.148438 192.632812 C 103.214844 195.257812 104.777344 197.53125 106.835938 199.304688 Z M 106.765625 199.375 " fill-opacity="1" fill-rule="nonzero"/></g></g></g><path fill="rgb(100%, 100%, 100%)" d="M 115.019531 194.351562 L 122.625 194.351562 L 122.625 201.957031 L 115.019531 201.957031 L 115.019531 194.351562 " fill-opacity="1" fill-rule="nonzero"/><path fill="rgb(100%, 100%, 100%)" d="M 118.710938 197.160156 C 118.613281 197.191406 118.511719 197.203125 118.398438 197.195312 C 117.964844 197.160156 117.636719 196.78125 117.671875 196.347656 C 117.757812 195.191406 118.523438 194.207031 119.621094 193.839844 C 120.71875 193.472656 121.921875 193.792969 122.691406 194.664062 C 122.980469 194.992188 122.953125 195.492188 122.625 195.777344 C 122.296875 196.070312 121.796875 196.039062 121.511719 195.710938 C 121.164062 195.320312 120.621094 195.175781 120.125 195.339844 C 119.628906 195.503906 119.289062 195.949219 119.246094 196.46875 C 119.222656 196.792969 119.003906 197.0625 118.710938 197.160156 Z M 118.710938 197.160156 " fill-opacity="1" fill-rule="nonzero"/><path fill="rgb(100%, 100%, 100%)" d="M 115.648438 196.058594 C 115.566406 196.054688 115.484375 196.03125 115.40625 195.996094 C 115.09375 195.84375 114.960938 195.472656 115.113281 195.160156 C 115.511719 194.328125 116.359375 193.820312 117.277344 193.867188 C 118.191406 193.910156 118.992188 194.496094 119.308594 195.359375 C 119.425781 195.683594 119.261719 196.046875 118.9375 196.164062 C 118.613281 196.285156 118.25 196.117188 118.132812 195.792969 C 117.988281 195.40625 117.628906 195.140625 117.214844 195.121094 C 116.804688 195.101562 116.421875 195.328125 116.242188 195.703125 C 116.132812 195.933594 115.890625 196.070312 115.648438 196.058594 Z M 115.648438 196.058594 " fill-opacity="1" fill-rule="nonzero"/><path fill="rgb(0%, 0%, 0%)" d="M 116.570312 192.792969 L 118.78125 192.109375 L 119.464844 194.316406 L 117.253906 195.003906 L 116.570312 192.792969 " fill-opacity="1" fill-rule="nonzero"/><path fill="rgb(0%, 0%, 0%)" d="M 114.015625 192.9375 L 117.574219 192.183594 L 118.121094 194.773438 L 114.566406 195.527344 L 114.015625 192.9375 " fill-opacity="1" fill-rule="nonzero"/><g fill="rgb(100%, 100%, 100%)" fill-opacity="1"><g transform="translate(145.012509, 196.491241)"><g><path d="M 14.875 -13.65625 L 14.875 0 L 13.109375 0 L 13.109375 -2.484375 C 12.617188 -1.660156 11.953125 -1.019531 11.109375 -0.5625 C 10.265625 -0.101562 9.296875 0.125 8.203125 0.125 C 6.421875 0.125 5.015625 -0.367188 3.984375 -1.359375 C 2.953125 -2.359375 2.4375 -3.816406 2.4375 -5.734375 L 2.4375 -13.65625 L 4.28125 -13.65625 L 4.28125 -5.921875 C 4.28125 -4.484375 4.632812 -3.390625 5.34375 -2.640625 C 6.050781 -1.898438 7.066406 -1.53125 8.390625 -1.53125 C 9.816406 -1.53125 10.945312 -1.96875 11.78125 -2.84375 C 12.613281 -3.71875 13.03125 -4.929688 13.03125 -6.484375 L 13.03125 -13.65625 Z M 14.875 -13.65625 "/></g></g></g><g fill="rgb(100%, 100%, 100%)" fill-opacity="1"><g transform="translate(162.481559, 196.491241)"><g><path d="M 2.5625 -13.65625 L 4.40625 -13.65625 L 4.40625 0 L 2.5625 0 Z M 3.515625 -16.640625 C 3.128906 -16.640625 2.804688 -16.769531 2.546875 -17.03125 C 2.285156 -17.289062 2.15625 -17.597656 2.15625 -17.953125 C 2.15625 -18.304688 2.285156 -18.609375 2.546875 -18.859375 C 2.804688 -19.117188 3.128906 -19.25 3.515625 -19.25 C 3.890625 -19.25 4.207031 -19.125 4.46875 -18.875 C 4.726562 -18.625 4.859375 -18.328125 4.859375 -17.984375 C 4.859375 -17.609375 4.726562 -17.289062 4.46875 -17.03125 C 4.207031 -16.769531 3.890625 -16.640625 3.515625 -16.640625 Z M 3.515625 -16.640625 "/></g></g></g><g fill="rgb(100%, 100%, 100%)" fill-opacity="1"><g transform="translate(169.463988, 196.491241)"><g><path d="M 9.765625 -0.828125 C 9.410156 -0.515625 8.976562 -0.273438 8.46875 -0.109375 C 7.957031 0.046875 7.425781 0.125 6.875 0.125 C 5.59375 0.125 4.601562 -0.21875 3.90625 -0.90625 C 3.21875 -1.601562 2.875 -2.582031 2.875 -3.84375 L 2.875 -12.09375 L 0.4375 -12.09375 L 0.4375 -13.65625 L 2.875 -13.65625 L 2.875 -16.640625 L 4.71875 -16.640625 L 4.71875 -13.65625 L 8.875 -13.65625 L 8.875 -12.09375 L 4.71875 -12.09375 L 4.71875 -3.9375 C 4.71875 -3.125 4.921875 -2.503906 5.328125 -2.078125 C 5.734375 -1.660156 6.316406 -1.453125 7.078125 -1.453125 C 7.460938 -1.453125 7.832031 -1.507812 8.1875 -1.625 C 8.539062 -1.75 8.847656 -1.925781 9.109375 -2.15625 Z M 9.765625 -0.828125 "/></g></g></g><g fill="rgb(100%, 100%, 100%)" fill-opacity="1"><g transform="translate(180.00252, 196.491241)"><g><path d="M 7.34375 -13.75 C 9.125 -13.75 10.488281 -13.300781 11.4375 -12.40625 C 12.394531 -11.519531 12.875 -10.203125 12.875 -8.453125 L 12.875 0 L 11.109375 0 L 11.109375 -2.125 C 10.691406 -1.414062 10.082031 -0.863281 9.28125 -0.46875 C 8.476562 -0.0703125 7.519531 0.125 6.40625 0.125 C 4.882812 0.125 3.671875 -0.234375 2.765625 -0.953125 C 1.867188 -1.679688 1.421875 -2.644531 1.421875 -3.84375 C 1.421875 -5 1.835938 -5.929688 2.671875 -6.640625 C 3.515625 -7.347656 4.859375 -7.703125 6.703125 -7.703125 L 11.03125 -7.703125 L 11.03125 -8.53125 C 11.03125 -9.707031 10.703125 -10.601562 10.046875 -11.21875 C 9.390625 -11.832031 8.425781 -12.140625 7.15625 -12.140625 C 6.289062 -12.140625 5.460938 -12 4.671875 -11.71875 C 3.878906 -11.4375 3.195312 -11.039062 2.625 -10.53125 L 1.796875 -11.90625 C 2.484375 -12.5 3.3125 -12.953125 4.28125 -13.265625 C 5.25 -13.585938 6.269531 -13.75 7.34375 -13.75 Z M 6.703125 -1.328125 C 7.734375 -1.328125 8.617188 -1.5625 9.359375 -2.03125 C 10.109375 -2.507812 10.664062 -3.195312 11.03125 -4.09375 L 11.03125 -6.328125 L 6.75 -6.328125 C 4.414062 -6.328125 3.25 -5.515625 3.25 -3.890625 C 3.25 -3.097656 3.550781 -2.472656 4.15625 -2.015625 C 4.757812 -1.554688 5.609375 -1.328125 6.703125 -1.328125 Z M 6.703125 -1.328125 "/></g></g></g><g fill="rgb(100%, 100%, 100%)" fill-opacity="1"><g transform="translate(195.31714, 196.491241)"><g><path d="M 4.328125 -10.984375 C 4.765625 -11.898438 5.410156 -12.585938 6.265625 -13.046875 C 7.117188 -13.515625 8.179688 -13.75 9.453125 -13.75 L 9.453125 -11.96875 L 9 -11.984375 C 7.570312 -11.984375 6.445312 -11.539062 5.625 -10.65625 C 4.8125 -9.78125 4.40625 -8.546875 4.40625 -6.953125 L 4.40625 0 L 2.5625 0 L 2.5625 -13.65625 L 4.328125 -13.65625 Z M 4.328125 -10.984375 "/></g></g></g><g fill="rgb(100%, 100%, 100%)" fill-opacity="1"><g transform="translate(205.725896, 196.491241)"><g><path d="M 9.609375 -13.75 C 10.878906 -13.75 12.035156 -13.457031 13.078125 -12.875 C 14.117188 -12.300781 14.929688 -11.484375 15.515625 -10.421875 C 16.109375 -9.367188 16.40625 -8.171875 16.40625 -6.828125 C 16.40625 -5.460938 16.109375 -4.25 15.515625 -3.1875 C 14.929688 -2.132812 14.125 -1.316406 13.09375 -0.734375 C 12.0625 -0.160156 10.898438 0.125 9.609375 0.125 C 8.492188 0.125 7.488281 -0.101562 6.59375 -0.5625 C 5.707031 -1.019531 4.976562 -1.6875 4.40625 -2.5625 L 4.40625 5.03125 L 2.5625 5.03125 L 2.5625 -13.65625 L 4.328125 -13.65625 L 4.328125 -10.953125 C 4.890625 -11.847656 5.625 -12.535156 6.53125 -13.015625 C 7.4375 -13.503906 8.460938 -13.75 9.609375 -13.75 Z M 9.46875 -1.5 C 10.425781 -1.5 11.289062 -1.71875 12.0625 -2.15625 C 12.84375 -2.601562 13.453125 -3.234375 13.890625 -4.046875 C 14.335938 -4.859375 14.5625 -5.785156 14.5625 -6.828125 C 14.5625 -7.867188 14.335938 -8.789062 13.890625 -9.59375 C 13.453125 -10.394531 12.84375 -11.019531 12.0625 -11.46875 C 11.289062 -11.914062 10.425781 -12.140625 9.46875 -12.140625 C 8.5 -12.140625 7.628906 -11.914062 6.859375 -11.46875 C 6.085938 -11.019531 5.484375 -10.394531 5.046875 -9.59375 C 4.609375 -8.789062 4.390625 -7.867188 4.390625 -6.828125 C 4.390625 -5.785156 4.609375 -4.859375 5.046875 -4.046875 C 5.484375 -3.234375 6.085938 -2.601562 6.859375 -2.15625 C 7.628906 -1.71875 8.5 -1.5 9.46875 -1.5 Z M 9.46875 -1.5 "/></g></g></g><g fill="rgb(100%, 100%, 100%)" fill-opacity="1"><g transform="translate(223.324733, 196.491241)"><g><path d="M 7.34375 -13.75 C 9.125 -13.75 10.488281 -13.300781 11.4375 -12.40625 C 12.394531 -11.519531 12.875 -10.203125 12.875 -8.453125 L 12.875 0 L 11.109375 0 L 11.109375 -2.125 C 10.691406 -1.414062 10.082031 -0.863281 9.28125 -0.46875 C 8.476562 -0.0703125 7.519531 0.125 6.40625 0.125 C 4.882812 0.125 3.671875 -0.234375 2.765625 -0.953125 C 1.867188 -1.679688 1.421875 -2.644531 1.421875 -3.84375 C 1.421875 -5 1.835938 -5.929688 2.671875 -6.640625 C 3.515625 -7.347656 4.859375 -7.703125 6.703125 -7.703125 L 11.03125 -7.703125 L 11.03125 -8.53125 C 11.03125 -9.707031 10.703125 -10.601562 10.046875 -11.21875 C 9.390625 -11.832031 8.425781 -12.140625 7.15625 -12.140625 C 6.289062 -12.140625 5.460938 -12 4.671875 -11.71875 C 3.878906 -11.4375 3.195312 -11.039062 2.625 -10.53125 L 1.796875 -11.90625 C 2.484375 -12.5 3.3125 -12.953125 4.28125 -13.265625 C 5.25 -13.585938 6.269531 -13.75 7.34375 -13.75 Z M 6.703125 -1.328125 C 7.734375 -1.328125 8.617188 -1.5625 9.359375 -2.03125 C 10.109375 -2.507812 10.664062 -3.195312 11.03125 -4.09375 L 11.03125 -6.328125 L 6.75 -6.328125 C 4.414062 -6.328125 3.25 -5.515625 3.25 -3.890625 C 3.25 -3.097656 3.550781 -2.472656 4.15625 -2.015625 C 4.757812 -1.554688 5.609375 -1.328125 6.703125 -1.328125 Z M 6.703125 -1.328125 "/></g></g></g><g fill="rgb(100%, 100%, 100%)" fill-opacity="1"><g transform="translate(238.639353, 196.491241)"><g><path d="M 4.328125 -10.984375 C 4.765625 -11.898438 5.410156 -12.585938 6.265625 -13.046875 C 7.117188 -13.515625 8.179688 -13.75 9.453125 -13.75 L 9.453125 -11.96875 L 9 -11.984375 C 7.570312 -11.984375 6.445312 -11.539062 5.625 -10.65625 C 4.8125 -9.78125 4.40625 -8.546875 4.40625 -6.953125 L 4.40625 0 L 2.5625 0 L 2.5625 -13.65625 L 4.328125 -13.65625 Z M 4.328125 -10.984375 "/></g></g></g><g fill="rgb(100%, 100%, 100%)" fill-opacity="1"><g transform="translate(249.048109, 196.491241)"><g><path d="M 9.765625 -0.828125 C 9.410156 -0.515625 8.976562 -0.273438 8.46875 -0.109375 C 7.957031 0.046875 7.425781 0.125 6.875 0.125 C 5.59375 0.125 4.601562 -0.21875 3.90625 -0.90625 C 3.21875 -1.601562 2.875 -2.582031 2.875 -3.84375 L 2.875 -12.09375 L 0.4375 -12.09375 L 0.4375 -13.65625 L 2.875 -13.65625 L 2.875 -16.640625 L 4.71875 -16.640625 L 4.71875 -13.65625 L 8.875 -13.65625 L 8.875 -12.09375 L 4.71875 -12.09375 L 4.71875 -3.9375 C 4.71875 -3.125 4.921875 -2.503906 5.328125 -2.078125 C 5.734375 -1.660156 6.316406 -1.453125 7.078125 -1.453125 C 7.460938 -1.453125 7.832031 -1.507812 8.1875 -1.625 C 8.539062 -1.75 8.847656 -1.925781 9.109375 -2.15625 Z M 9.765625 -0.828125 "/></g></g></g></svg>