<?xml version="1.0" encoding="utf-8"?>
<!-- Generator: Adobe Illustrator 24.2.0, SVG Export Plug-In . SVG Version: 6.00 Build 0)  -->
<svg version="1.1" id="Layer_1" xmlns="http://www.w3.org/2000/svg" xmlns:xlink="http://www.w3.org/1999/xlink" x="0px" y="0px"
	 viewBox="0 0 1000 1000" style="enable-background:new 0 0 1000 1000;" xml:space="preserve">
<style type="text/css">
	.st0{fill-rule:evenodd;clip-rule:evenodd;}
	.st1{fill-rule:evenodd;clip-rule:evenodd;fill:#C23B33;}
	.st2{fill-rule:evenodd;clip-rule:evenodd;fill:#FFFFFF;}
	.st3{fill:#F32735;}
	.st4{fill:none;stroke:#C23B33;stroke-width:0.4252;stroke-miterlimit:10;}
	.st5{fill:#FFFFFF;}
	.st6{fill:none;stroke:#000000;stroke-width:0.5669;stroke-miterlimit:22.9256;}
	.st7{fill:#000003;}
</style>
<g>
	<path class="st0" d="M496.9,663.4c3.5,0.2,6.4-0.9,6.4-0.9c28.4-9.1,64.7-32.4,64.7-32.4c70.6-46.1,124.9-126.9,124.9-126.9
		c24-29.8,0.5-75.6,0.5-75.6l-27.2-61.2l-68.1-133.8c0,0-8-14-24.4-23.2c-16.4-9.2-60.8-29.2-68.2-33.1c-7.6-4-9-4-16.7,0
		c-7.5,3.9-51.9,23.8-68.2,33.1c-16.4,9.2-24.4,23.2-24.4,23.2L328,366.4l-27.2,61.2c0,0-23.4,45.8,0.5,75.6
		c0,0,54.3,80.8,124.9,126.9c0,0,36.3,23.2,64.7,32.4C490.9,662.5,493.4,663.6,496.9,663.4"/>
	<path class="st1" d="M489.6,188c0,0,5.9-1,13.4,1.3c7.5,2.3,55.3,26.1,59.7,29c4.4,2.8,20.7,16.5,25.6,24.8
		c4.9,8.3,41.4,70,69.2,126.1c27.8,56.2,29.9,71.9,29.9,71.9s17.8,39.4-8.4,65.1c-26.2,25.7-31.1,59.7-107.1,114.3
		c-76,54.6,12.8-21.8,12.8-21.8s35.8-40.8,48-60.3c12.2-19.6,20.3-39.6,23.4-47.5c3.1-7.9,6-14.8,7.4-24.3
		c1.4-9.5-10.2-63.6-19.7-91.3c-9.5-27.7-6.3-11.3-6.9-14.3c-0.6-3-6.9-3.6-12.5-10.4c-5.7-6.9-46.8-26.8-52.5-29.5
		c-5.7-2.7-56.3-27-69.5-44.1c0,0-0.7-5.6,7.1-9.1c0,0,14.2-12.7-1.2-4.2c0,0-13,8.8-25.9,19.1c-13,10.3-29.5,21.5-64.8,38.8
		c-35.4,17.3-53.7,39.5-53.7,39.5l-6.2,6.5c0,0-5.5,4.7-3.1-2.3c2.4-7-1.8-15.8-3.6-3.6c0,0-8,23.5-11.4,45.8
		c-3.4,22.3-6.2,46.2-0.5,76.9c0,0-2.7,1.2-4.5-1.9c-1.8-3.1-10.7-11.1-4,0.2c6.7,11.2,9.3,13.5,10.4,15.3c1.1,1.8,12.8,46,72.7,102
		c0,0,54.6,48.5,13.7,22.3c0,0-56.8-49-67.8-62.2c-10.9-13.2-36.2-35.8-45.2-50.4c-9-14.6-15.2-36.9-9.3-51.5
		c5.9-14.6,23.1-58.9,23.1-58.9L365,315l31.3-56.9c0,0,13.4-21.9,20.8-25.8c0,0,28.3-22.6,37.8-26.9c9.5-4.3,18-9,18-9
		S483.6,190.1,489.6,188"/>
	<path class="st2" d="M494.6,630.3c19.9,1,47.2-15.4,48-18.6c0.8-3.2-0.2-8.7-0.2-8.7c1.5-9.6,5.4-3,5.5,0.8c0.1,3.8,2,2.5,2,2.5
		c4.9-2.4,25-26.9,25-26.9c12.9-13.5,14-30.3,14-30.3c0.8-18.8,2.8-35.6,2.8-35.6c2.5-22.1,12.3-38.9,15.7-43.7
		c3.4-4.8,5.9-16.6,5.9-16.6c7.8-28.1-3.6-56.6-7.4-66c-3.9-9.4-5.8-13.6-5.8-13.6s1-15.2-1-23.3c-1.9-8.1-5.5-10.7-12.6-13.6
		c-7.1-2.9-30.1-17.1-34.3-18.4c-4.2-1.3-20.4-6.8-38.8-7.4c-5.7-0.2-11.7-0.3-17.4-0.3c-5.7,0-11.7,0.1-17.4,0.3
		c-18.4,0.6-34.6,6.1-38.8,7.4c-4.2,1.3-27.2,15.5-34.3,18.4c-7.1,2.9-10.7,5.5-12.6,13.6c-1.9,8.1-1,23.3-1,23.3s-1.9,4.2-5.8,13.6
		c-3.9,9.4-15.2,37.8-7.4,66c0,0,2.5,11.9,5.9,16.6c3.4,4.8,13.2,21.6,15.7,43.7c0,0,2,16.8,2.8,35.6c0,0,1.1,16.8,14,30.3
		c0,0,20.1,24.5,25,26.9c0,0,1.9,1.3,2-2.5c0.1-3.8,4-10.3,5.5-0.8c0,0-1,5.5-0.2,8.7C450,614.9,474.6,631.3,494.6,630.3"/>
	<path d="M618.7,719.9h23.2h9c2.2,0,3.9,0.1,5.2,0.2c1.3,0.1,2.2,0.2,2.9,0.4c0.6,0.2,1.4,0.4,2.2,0.7c1.7,0.5,3.2,1.4,4.5,2.7
		c1.3,1.3,2.3,2.8,3,4.4c0.5,1.3,0.9,3.1,1.1,5.5c0.2,2.4,0.3,6.3,0.3,11.7v20.8c0,2.8,0,5-0.1,6.8c-0.1,1.8-0.2,3.3-0.3,4.6
		c-0.2,1.3-0.4,2.4-0.7,3.3c-0.3,0.9-0.7,1.7-1.1,2.5c-1.2,2.2-2.7,3.8-4.5,4.8c-1.9,1-4.5,1.6-7.9,1.8c-0.8,0.2-5.6,0.4-14.3,0.5
		V826h-22.4V719.9z M642.8,773c2.1,0,3.4-0.4,4-1.3c0.5-0.8,0.8-2.8,0.8-6v-20.6c0-1.8-0.1-3.2-0.2-4.3c-0.1-1.1-0.3-1.8-0.6-2.4
		c-0.3-0.5-0.8-0.9-1.4-1c-0.6-0.2-1.4-0.2-2.5-0.2h-1.9V773H642.8z"/>
	<path d="M726.3,719.9h23.2h9c2.2,0,3.9,0.1,5.2,0.2c1.3,0.1,2.2,0.2,2.9,0.4c0.6,0.2,1.4,0.4,2.2,0.7c1.7,0.5,3.2,1.4,4.4,2.7
		c1.3,1.3,2.3,2.8,3,4.4c0.5,1.3,0.9,3.1,1.1,5.5c0.2,2.4,0.3,6.3,0.3,11.7v20.8c0,2.8,0,5-0.1,6.8c-0.1,1.8-0.2,3.3-0.3,4.6
		c-0.2,1.3-0.4,2.4-0.7,3.3c-0.3,0.9-0.7,1.7-1.1,2.5c-1.2,2.2-2.7,3.8-4.5,4.8c-1.9,1-4.5,1.6-7.9,1.8c-0.8,0.2-5.6,0.4-14.3,0.5
		V826h-22.4V719.9z M750.5,773c2.1,0,3.4-0.4,4-1.3c0.5-0.8,0.8-2.8,0.8-6v-20.6c0-1.8-0.1-3.2-0.2-4.3c-0.1-1.1-0.3-1.8-0.6-2.4
		c-0.3-0.5-0.8-0.9-1.4-1c-0.6-0.2-1.4-0.2-2.5-0.2h-1.9V773H750.5z"/>
	<polygon points="782.1,719.9 816.9,719.9 816.9,737.2 804.5,737.2 804.5,758.9 816.9,758.9 816.9,776.2 804.5,776.2 804.5,808.3 
		816.9,808.3 816.9,826 782.1,826 	"/>
	<polygon points="162.3,720.1 162.3,806.6 177.5,806.6 177.5,825.4 141.2,825.4 141.2,720.1 	"/>
	<polygon points="843.6,720.1 843.6,806.6 858.8,806.6 858.8,825.4 822.5,825.4 822.5,720.1 	"/>
	<path d="M215.5,825.4l-1.7-15.4h-13.2l-1.5,15.4H180l13.9-105.4h28.7l13.8,105.4H215.5z M202.6,791.7h9.3l-4.7-45.9L202.6,791.7z"
		/>
	<path d="M313.2,778.9v27.8c0,13.1-6.5,19.6-19.6,19.6h-12.9c-13.1,0-19.6-6.5-19.6-19.6v-68c0-13.1,6.5-19.6,19.6-19.6h12.6
		c13.1,0,19.6,6.5,19.6,19.6v24.7h-20.8V741c0-2.6-1.2-3.8-3.8-3.8H286c-2.6,0-3.8,1.2-3.8,3.8v63.5c0,2.6,1.2,3.8,3.8,3.8h2.7
		c2.6,0,3.8-1.2,3.8-3.8v-25.6H313.2z"/>
	<path d="M352.1,825.4l-1.7-15.4h-13.2l-1.5,15.4h-19.1l13.9-105.4h28.7L373,825.4H352.1z M339.1,791.7h9.3l-4.7-45.9L339.1,791.7z"
		/>
	<path d="M427,787.3v19.4c0,13.1-6.5,19.6-19.6,19.6h-11.7c-13.1,0-19.6-6.5-19.6-19.6v-22.4h20.6v20.5c0,2.6,1.2,3.8,3.8,3.8h2
		c2.6,0,3.8-1.2,3.8-3.8v-12.6c0-3.3-1.1-5-3.6-6.8L384.6,772c-6.5-4.7-8.4-9-8.4-16.6v-16.7c0-13.1,6.5-19.6,19.6-19.6h11.4
		c13.1,0,19.6,6.5,19.6,19.6V758h-20.6v-17.3c0-2.6-1.2-3.8-3.8-3.8h-1.7c-2.6,0-3.8,1.2-3.8,3.8v9.9c0,3.3,1.1,5,3.6,6.8l18.1,13.4
		C425.1,775.4,427,779.5,427,787.3"/>
	<path d="M465.1,825.4l-1.7-15.4h-13.2l-1.5,15.4h-19.1l13.8-105.4h28.8L486,825.4H465.1z M452.1,791.7h9.3l-4.7-45.9L452.1,791.7z"
		/>
	<path d="M703.3,825.4l-1.7-15.4h-13.2l-1.5,15.4h-19.1l13.8-105.4h28.8l13.8,105.4H703.3z M690.3,791.7h9.3l-4.7-45.9L690.3,791.7z
		"/>
	<rect x="495.8" y="719.6" class="st3" width="111.7" height="107.2"/>
	<rect x="495.8" y="719.6" class="st4" width="111.7" height="107.2"/>
	<path class="st5" d="M522.7,739.6h13.6c3,0,5.4,0,7.3,0.1c1.9,0.1,3.4,0.2,4.5,0.4c1.1,0.2,2,0.5,2.6,0.9c0.6,0.4,1.2,0.9,1.8,1.6
		c0.5,0.6,1,1.3,1.3,2c0.3,0.7,0.6,1.6,0.8,2.6c0.2,1,0.3,2.3,0.4,3.9c0.1,1.6,0.1,3.5,0.1,5.8v33c0,2.3,0,4.2-0.1,5.7
		c-0.1,1.5-0.2,2.8-0.4,3.8c-0.2,1-0.5,1.9-0.9,2.5c-0.4,0.6-0.9,1.3-1.5,1.9c-0.6,0.6-1.4,1.1-2.4,1.6c-1,0.5-2,0.8-3,0.9
		c-0.5,0.1-0.9,0.1-1.3,0.2c-0.4,0-0.9,0.1-1.7,0.1c-0.8,0-1.9,0-3.4,0.1c-1.5,0-3.5,0-6.1,0h-11.7V739.6z M540.9,755.9v-2.1
		c0-0.5,0-0.9-0.1-1.2c0-0.3-0.1-0.5-0.1-0.6c0-0.1-0.1-0.3-0.2-0.4c-0.3-0.8-1.2-1.2-2.5-1.2h-0.6c-0.2,0-0.5,0-0.8,0.1v44.9h1.1
		c0.7,0,1.3,0,1.7-0.2c0.4-0.1,0.7-0.4,0.9-0.9c0.2-0.5,0.3-1.3,0.4-2.4c0-1.1,0.1-2.7,0.1-4.8V755.9z"/>
	<polygon class="st5" points="559.1,739.6 581.1,739.6 581.1,750.5 573.2,750.5 573.2,764.2 581.1,764.2 581.1,775.1 573.2,775.1 
		573.2,795.4 581.1,795.4 581.1,806.5 559.1,806.5 	"/>
	<path class="st6" d="M415.9,430.6c-2.6-2.1-5-4.4-6.6-7.4c-1.2-2.3-2.6-4.7-2.1-7.5c0.4-2.2,1.2-4.3,2.2-6.3
		c1.7-3.5,4.1-6.4,7.4-8.5c2.4-1.5,5.1-2.3,7.8-2.5c9.7-0.8,17.6,3.3,24.7,9.6c3.4,3,6.7,6.1,9.8,9.5c2,2.2,3.8,4.7,6.2,6.5
		c0.8,0.6,0.6,2.2-0.3,2.6c-5.2,1.9-10,4.8-15.4,6.4c-6,1.8-12.2,2.8-18.5,2.5c-5.2-0.2-10-1.4-14.4-4.4
		C416.5,430.8,416.2,430.7,415.9,430.6L415.9,430.6z"/>
	<path d="M479.2,454.7c-0.2,0.3-0.3,0.5-0.5,0.9c-0.9-1.2-0.6-2.3-0.5-3.3c0.2-3.5,0.2-7.1,0.6-10.6c0.4-3,0.3-6.1,0.4-9.2
		c0.1-2.8,0.2-5.7,0.1-8.5c-0.1-3,0.2-6-0.4-9.2c-0.4-2.1-0.1-4.1-0.8-6.2c-0.3-0.8-0.2-1.7-1.2-2.5c-1.3-0.9-1.1-2.2-2-3.2
		c-1.5-2.3-2.8-4.6-4.8-6.7c0-0.4-0.1-0.9,0.8-0.6c1.5,1.5,3.4,3,4.7,4.6c2,2.4,3.3,5,4.2,7.6c1.6,4.6,1.5,9.2,1.8,13.7
		c0.3,5.5,0.3,10.9,0,16.3c-0.2,3.1-0.8,6.2-1.2,9.2C479.9,449.6,479.6,452.1,479.2,454.7"/>
	<path class="st0" d="M437.5,411.4c4.6,0,8.4,3.8,8.4,8.4c0,4.6-3.8,8.4-8.4,8.4c-4.6,0-8.4-3.8-8.4-8.4
		C429.1,415.2,432.9,411.4,437.5,411.4"/>
	<path class="st0" d="M477.8,385.2c0,0-3.2,7.9-12.4-1.4c-9.2-9.2-22.6-35.4-45.1-32.7c0,0-14.4-6.5-23,44.6c0,0-7.7-31.6,18.7-55.2
		c0,0,14.2-9.7,33.4,5.2l26.4,25C475.8,370.7,482.8,381.3,477.8,385.2"/>
	<path class="st7" d="M417,443.3c0.6-0.3,1-1.2,1.9-0.9c1,0.3,0.9,1.3,0.9,2c0.2,6.1,2.5,11.7,5.2,17.2c0.7,1.4,1.4,2.6,1.2,4.3
		c-0.9,8.2-1.9,16.5-3.5,24.6c-1.2,6.1-2.5,12.2-2.9,18.4c-0.3,3.4-0.5,6.8-0.2,10.2c0.2,2.6,0.5,5.3,2.5,7.4c0.2,0.4,0.6,0.7,1,0.9
		c2.8,1.9,5.9,2.6,9.4,3.1c4.9,0.6,9.6-0.4,14.3-0.9c8.1-0.9,16.2-1.8,24.4-1.4c2,0.1,3.9,0.6,5.6,1.9c3.9,3.1,8.1,5.8,13,7.4
		c5.7,1.8,11.3,1.5,16.7-1c4.2-1.9,7.8-4.5,11.5-7c0.9-0.6,1.7-1.5,3.1-1.4c5,0,10.1,0,15.1,0.5c5,0.5,9.9,1.1,14.8,1.7
		c5.1,0.6,10.3,0.7,15.2-1c1-0.3,1.9-0.7,2.6-1.4c3.2-2.1,4.2-5.1,4.4-8.6c0.2-3.9,0.2-7.8-0.2-11.7c-0.7-6-1.8-12-3.1-17.9
		c-0.7-3.4-1.1-6.8-1.6-10.3c-0.4-3-0.7-5.9-1.2-8.9c-0.4-2.3-0.6-4.7-0.3-7c2.1-4.3,4-8.7,5.4-13.2c0.7-2.3,0.9-4.6,2-6.8
		c0.3-0.6,0.4-1.4,1.3-1.4c0.9,0,1.1,0.8,1.3,1.5c0.8,2.6,1.2,5.3,1,8c-0.2,2.9-1.1,5.7-1.9,8.5c-1,3.7-2.2,7.4-1.8,11.2
		c0.4,3.1,1.2,6,2.1,9c1.1,3.7,2.1,7.4,2.6,11.3c0.9,6.7,1.7,13.3,1.9,20c0.1,4.4,0,8.8-1.1,13.1c-1,3.9-2.4,7.7-4.8,11.1
		c-3.4,4.8-7.8,8.4-13.7,10.5c-4.9,1.7-10,2.2-15.2,2.1c-7.4-0.2-14.8-1.1-22.1-2.3c-8.6-1.4-17.3-2.6-26-3.3
		c-3.8-0.3-7.6,0.3-11.4,0.8c-9.3,1.2-18.5,2.7-27.7,3.9c-7.1,0.9-14.2,1.4-21.4,0.3c-8.6-1.4-15.2-5.5-19.7-12.4
		c-0.2-0.3-0.4-0.5-0.7-0.8c-1.8-2.8-3-5.8-3.8-8.9c-0.9-3.5-1.5-7-1.4-10.6c0.1-3.5,0.3-6.9,0.5-10.4c0.2-4.9,0.9-9.8,1.6-14.6
		c0.5-3.2,1.5-6.3,2.3-9.5c0.9-3.6,2.3-7.2,2.2-10.9c0-3.8-1.2-7.3-2.2-10.9c-0.8-2.6-1.4-5.3-1.6-8c-0.2-2.1,0.6-4.2,1.2-6.2
		C416.1,444,416.5,443.6,417,443.3"/>
	<path d="M448.2,567.9c1.4-2.6,2.9-5.2,4.2-7.8c1.6-3.2,4.6-5,8.2-6.1c6.2-1.9,12.6-2.5,19.1-3c6.5-0.5,13-0.6,19.5-0.5
		c8.4,0.1,16.9,0.6,25.1,2.3c3.6,0.7,7.3,1.5,10.1,3.9c2.2,1.8,3.1,4.4,4.4,6.7c0.9,1.5,1.7,3,2.5,4.5c0.3,0.4,0.3,0.7-0.1,1
		c-0.4,0.3-0.8,0.1-1.2-0.2c-1-0.7-2-1.4-2.9-2.2c-5.6-4.7-12-8.1-19.5-9.8c-5.3-1.2-40.2-1-44.3-0.3c-4.7,0.8-9,2.4-13.1,4.6
		c-3.7,1.9-6.8,4.5-9.9,7c-0.4,0.3-0.7,0.6-1.1,0.8C448.2,569.2,447.7,569,448.2,567.9"/>
	<path class="st6" d="M576.6,430.6c2.6-2.1,5-4.4,6.6-7.4c1.2-2.3,2.6-4.7,2.1-7.5c-0.4-2.2-1.2-4.3-2.2-6.3
		c-1.7-3.5-4.1-6.4-7.4-8.5c-2.4-1.5-5.1-2.3-7.8-2.5c-9.7-0.8-17.6,3.3-24.7,9.6c-3.4,3-6.7,6.1-9.8,9.5c-2,2.2-3.8,4.7-6.2,6.5
		c-0.8,0.6-0.6,2.2,0.3,2.6c5.2,1.9,10,4.8,15.4,6.4c6,1.8,12.2,2.8,18.5,2.5c5.2-0.2,10-1.4,14.4-4.4
		C576,430.8,576.3,430.7,576.6,430.6L576.6,430.6z"/>
	<path class="st0" d="M555,411.4c-4.6,0-8.4,3.8-8.4,8.4c0,4.6,3.8,8.4,8.4,8.4c4.6,0,8.4-3.8,8.4-8.4
		C563.4,415.2,559.6,411.4,555,411.4"/>
	<path class="st0" d="M514.7,385.2c0,0,3.2,7.9,12.4-1.4c9.2-9.2,22.6-35.4,45.1-32.7c0,0,14.4-6.5,23,44.6c0,0,7.7-31.6-18.7-55.2
		c0,0-14.2-9.7-33.4,5.2l-26.4,25C516.7,370.7,509.7,381.3,514.7,385.2"/>
	<path d="M513.9,454.7c0.2,0.3,0.3,0.5,0.5,0.9c0.9-1.2,0.6-2.3,0.5-3.3c-0.2-3.5-0.2-7.1-0.6-10.6c-0.4-3-0.3-6.1-0.4-9.2
		c-0.1-2.8-0.2-5.7-0.1-8.5c0.1-3-0.2-6,0.4-9.2c0.4-2.1,0.1-4.1,0.8-6.2c0.3-0.8,0.2-1.7,1.2-2.5c1.3-0.9,1.1-2.2,2-3.2
		c1.5-2.3,2.8-4.6,4.8-6.7c0-0.4,0.1-0.9-0.8-0.6c-1.6,1.5-3.4,3-4.7,4.6c-2,2.4-3.3,5-4.2,7.6c-1.6,4.6-1.5,9.2-1.8,13.7
		c-0.3,5.5-0.3,10.9,0,16.3c0.2,3.1,0.8,6.2,1.2,9.2C513.1,449.6,513.5,452.1,513.9,454.7"/>
	<path class="st6" d="M463.6,433.3c0,0,2.5,4.6-11.4,16"/>
	<path class="st6" d="M530.3,433.3c0,0-2.5,4.6,11.4,16"/>
	<path class="st6" d="M464,569.7c0,0,16.8,1.7,19.2-0.7c2.5-2.5,4.5-4.4,10.4-4.4c5.9,0,8.8,1.9,11.3,4.4c2.5,2.5,19.2,0.7,19.2,0.7
		"/>
	<path class="st6" d="M461.4,487.9c0,0-17.5,24.6-3.8,32.4c0,0,9.2,3.5,20.1,1.8c0,0,3.5,1,4.2,4.4c0,0,4.9,7.5,15.7,8.8
		c10.8-1.3,15.6-8.8,15.6-8.8c0.7-3.3,4.2-4.4,4.2-4.4c10.9,1.8,20.1-1.8,20.1-1.8c13.6-7.9-3.8-32.4-3.8-32.4"/>
	<path class="st6" d="M478.4,482.5c0,0-8.1,22.8-4.8,40"/>
	<path class="st6" d="M516.4,482.5c0,0,8.1,22.8,4.8,40"/>
</g>
</svg>
