<?xml version="1.0" encoding="utf-8"?>
<!-- Generator: Adobe Illustrator 26.2.0, SVG Export Plug-In . SVG Version: 6.00 Build 0)  -->
<svg version="1.1" id="Calque_1" xmlns="http://www.w3.org/2000/svg" xmlns:xlink="http://www.w3.org/1999/xlink" x="0px" y="0px"
	 viewBox="0 0 595.28 841.89" style="enable-background:new 0 0 595.28 841.89;" xml:space="preserve">
<style type="text/css">
	.st0{fill:#E30613;}
</style>
<path d="M128.56,228.12l-15.34-22.32l5.92-3.68c0.48-0.3,1.12-0.19,1.47,0.25l13.2,16.39l8.64-12.96h11.95l-15.34,22.32V249h-10.51
	V228.12z M136.41,246.98v-19.37l13.61-19.8h-5.9l-9.79,14.47h-1.01l-9.79-14.47h-5.9l13.61,19.8v19.37H136.41z M119.06,208.6h4.1
	l0.29,0.36h-4.18L119.06,208.6z M119.99,210.04h4.1l0.29,0.36h-4.18L119.99,210.04z M121,211.48h4.1l0.29,0.36h-4.18L121,211.48z
	 M122.01,212.92h4.03l0.29,0.36h-4.1L122.01,212.92z M122.94,214.29h4.03l0.29,0.36h-4.1L122.94,214.29z M123.95,215.73h3.96
	l0.29,0.36h-4.03L123.95,215.73z M124.96,217.17h3.96l0.29,0.36h-4.03L124.96,217.17z M125.97,218.61h3.89l0.29,0.36h-3.96
	L125.97,218.61z M126.91,220.05h3.96l0.29,0.36h-3.96L126.91,220.05z M127.91,221.49h3.89l0.29,0.36h-3.96L127.91,221.49z
	 M128.85,222.93h3.96l0.29,0.36h-3.96L128.85,222.93z M129.93,224.37h3.82l0.29,0.36h-3.89L129.93,224.37z M130.87,225.81h3.89
	l0.29,0.36h-3.96L130.87,225.81z M131.87,227.25h3.67l0.14,0.36h-3.74L131.87,227.25z M131.95,228.69h3.74v0.29h-3.74V228.69z
	 M131.95,230.06h3.74v0.36h-3.74V230.06z M131.95,231.5h3.74v0.36h-3.74V231.5z M131.95,232.94h3.74v0.36h-3.74V232.94z
	 M131.95,234.38h3.74v0.36h-3.74V234.38z M131.95,235.82h3.74v0.36h-3.74V235.82z M131.95,237.26h3.74v0.36h-3.74V237.26z
	 M131.95,238.7h3.74v0.36h-3.74V238.7z M131.95,240.14h3.74v0.36h-3.74V240.14z M131.95,241.58h3.74v0.36h-3.74V241.58z
	 M131.95,243.02h3.74v0.36h-3.74V243.02z M131.95,244.39h3.74v0.36h-3.74V244.39z M131.95,245.83h3.74v0.36h-3.74V245.83z"/>
<path d="M158.8,205.8h10.51v27.07c0,5.76,2.74,7.78,6.41,7.78c4.03,0,6.55-2.02,6.55-7.78V205.8h10.58v28.66
	c0,10.23-7.63,15.99-17.14,15.99c-9.87,0-16.92-6.05-16.92-15.99V205.8z M175.72,248.42c7.99,0,14.47-5.04,14.47-13.97v-26.64
	l-5.26,4.18v20.88c0,7.27-3.53,9.79-9.22,9.79c-5.18,0-9.07-2.52-9.07-9.79v-25.06h-5.18v26.64
	C161.46,243.17,167.44,248.42,175.72,248.42z M162.19,223.8h3.74v0.36h-3.74V223.8z M162.19,225.24h3.74v0.36h-3.74V225.24z
	 M162.19,226.68h3.74v0.36h-3.74V226.68z M162.19,228.12h3.74v0.36h-3.74V228.12z M162.19,229.56h3.74v0.36h-3.74V229.56z
	 M162.19,231h3.74v0.36h-3.74V231z M162.19,232.44h3.74v0.36h-3.74V232.44z M162.19,233.88h3.74l0.07,0.36h-3.82V233.88z
	 M162.19,235.32H166l0.14,0.36h-3.96V235.32z M162.33,236.76h3.96l0.14,0.36h-4.03L162.33,236.76z M162.62,238.2h4.18l0.14,0.36
	h-4.25L162.62,238.2z M163.05,239.64h4.39l0.36,0.36h-4.68L163.05,239.64z M163.7,241.08h4.97l0.43,0.36h-5.18L163.7,241.08z
	 M170.83,242.52l0.86,0.36h-6.84l-0.29-0.36H170.83z M185.73,243.96l-0.43,0.36h-19.08l-0.36-0.36H185.73z M183.79,245.4l-0.58,0.36
	h-14.98l-0.5-0.36H183.79z M180.91,246.84l-1.37,0.36h-7.7l-1.3-0.36H180.91z M180.91,242.52h6.05l-0.29,0.36h-6.7L180.91,242.52z
	 M182.99,241.08h4.82l-0.14,0.36h-5.04L182.99,241.08z M184.15,239.64h4.39L188.4,240h-4.54L184.15,239.64z M184.79,238.2h4.25
	l-0.14,0.36h-4.25L184.79,238.2z M185.3,236.76h4.03l-0.14,0.36h-4.03L185.3,236.76z M185.51,235.32h3.96l-0.07,0.36h-3.96
	L185.51,235.32z M185.59,233.88h3.89v0.36h-3.89V233.88z M185.66,223.8h3.82v0.36h-3.82V223.8z M185.66,225.24h3.82v0.36h-3.82
	V225.24z M185.66,226.68h3.82v0.36h-3.82V226.68z M185.66,228.12h3.82v0.36h-3.82V228.12z M185.66,229.56h3.82v0.36h-3.82V229.56z
	 M185.66,231h3.82v0.36h-3.82V231z M185.66,232.44h3.82v0.36h-3.82V232.44z"/>
<path d="M199.77,205.8h11.16l16.78,25.63V205.8h10.51V249H227.2l-16.85-25.63V249h-10.58V205.8z M207.69,246.98v-30.46h1.08
	l20.09,30.46h6.7v-39.17h-5.18v30.1h-1.3l-19.8-30.1h-6.84v38.45L207.69,246.98z M204.3,208.6h4.54l0.29,0.36h-4.61L204.3,208.6z
	 M205.31,210.04h4.46l0.29,0.36h-4.54L205.31,210.04z M206.25,211.48h4.46l0.29,0.36h-4.54L206.25,211.48z M207.26,212.92h4.39
	l0.29,0.36h-4.46L207.26,212.92z M208.19,214.37h4.39l0.29,0.36h-4.46L208.19,214.37z M209.2,215.81h4.32l0.29,0.36h-4.39
	L209.2,215.81z M210.14,217.25h4.39l0.29,0.36h-4.46L210.14,217.25z M211.07,218.69h4.39l0.29,0.36h-4.46L211.07,218.69z
	 M212.08,220.13h4.32l0.29,0.36h-4.39L212.08,220.13z M213.02,221.57h4.32l0.29,0.36h-4.39L213.02,221.57z M213.95,223.01h4.32
	l0.29,0.36h-4.39L213.95,223.01z M214.89,224.45h4.39l0.29,0.36h-4.46L214.89,224.45z M215.83,225.89h4.39l0.29,0.36h-4.46
	L215.83,225.89z M216.76,227.33h4.39l0.29,0.36h-4.46L216.76,227.33z M217.77,228.77h4.32l0.29,0.36h-4.39L217.77,228.77z
	 M218.71,230.21h4.32l0.29,0.36h-4.39L218.71,230.21z M219.64,231.65h4.32l0.29,0.36h-4.39L219.64,231.65z M220.58,233.09h4.39
	l0.29,0.36h-4.46L220.58,233.09z M225.91,234.53l0.29,0.36h-4.46l-0.22-0.36H225.91z M226.84,235.97l0.29,0.36h-4.39l-0.22-0.36
	H226.84z M227.78,237.41l0.29,0.36h-4.39l-0.22-0.36H227.78z M228.86,238.85l0.29,0.36h-4.54l-0.22-0.36H228.86z M229.87,240.29
	l0.36,0.36h-4.68l-0.22-0.36H229.87z M230.95,241.73l0.36,0.36h-4.82l-0.22-0.36H230.95z M232.03,243.17l0.29,0.36h-4.9l-0.22-0.36
	H232.03z M233.11,244.61l0.36,0.36h-5.04l-0.22-0.36H233.11z M234.11,245.9l0.36,0.36h-5.26L229,245.9H234.11z"/>
<path d="M245.13,205.8h10.58V249h-10.58V205.8z M253.05,246.98V209.9l-5.26-2.09v39.17H253.05z M248.51,209.9h3.82v0.36h-3.82V209.9
	z M248.51,211.34h3.82v0.36h-3.82V211.34z M248.51,212.78h3.82v0.36h-3.82V212.78z M248.51,214.22h3.82v0.36h-3.82V214.22z
	 M248.51,215.66h3.82v0.36h-3.82V215.66z M248.51,217.1h3.82v0.36h-3.82V217.1z M248.51,218.54h3.82v0.36h-3.82V218.54z
	 M248.51,219.98h3.82v0.36h-3.82V219.98z M248.51,221.42h3.82v0.36h-3.82V221.42z M248.51,222.86h3.82v0.36h-3.82V222.86z
	 M248.51,224.3h3.82v0.36h-3.82V224.3z M248.51,225.74h3.82v0.36h-3.82V225.74z M248.51,227.18h3.82v0.36h-3.82V227.18z
	 M248.51,228.62h3.82v0.36h-3.82V228.62z"/>
<path d="M286.31,204.36c13.61,0,23.26,10.37,23.26,23.11c0,6.05-2.16,11.45-5.83,15.55l7.27,6.7h-13.47l-1.37-1.3
	c-2.95,1.3-6.26,2.02-9.86,2.02c-13.61,0-23.26-10.22-23.26-22.97S272.7,204.36,286.31,204.36z M286.31,248.42
	c5.04,0,7.99-1.22,10.22-2.52l2.45,2.23h7.34l-5.76-5.26c4.1-4.54,6.34-9.79,6.34-15.41c0-1.66-0.14-3.24-0.5-4.75
	c-2.02-9.29-9.72-16.06-20.09-16.06c-10.37,0-18.15,6.77-20.16,16.06c-0.36,1.51-0.43,3.1-0.43,4.75
	C265.72,239.06,274.29,248.42,286.31,248.42z M266.51,225.6h3.82l-0.07,0.36h-3.82L266.51,225.6z M266.44,227.04h3.82v0.36h-3.82
	V227.04z M266.44,228.48h3.82l0.07,0.36h-3.82L266.44,228.48z M266.73,224.16h3.89l-0.14,0.36h-3.89L266.73,224.16z M266.58,229.92
	h3.82l0.07,0.36h-3.82L266.58,229.92z M266.73,231.36h3.96l0.14,0.36h-3.96L266.73,231.36z M266.94,222.72h3.96l-0.14,0.36h-3.89
	L266.94,222.72z M267.09,232.8h3.96l0.14,0.36h-4.03L267.09,232.8z M267.52,234.24h4.1l0.14,0.36h-4.18L267.52,234.24z
	 M268.02,235.68h4.32l0.22,0.36h-4.32L268.02,235.68z M268.67,237.12h4.61l0.36,0.36h-4.75L268.67,237.12z M269.54,238.56h5.04
	l0.36,0.36h-5.18L269.54,238.56z M276.09,240l0.43,0.36h-5.76l-0.29-0.36H276.09z M271.7,222.72c1.87-6.12,7.2-10.73,14.62-10.73
	c7.42,0,12.75,4.61,14.62,10.73c0.43,1.51,0.72,3.1,0.72,4.75c0,4.54-1.87,9-4.97,11.74l-6.19-5.76h-6.91l8.64,8.35
	c-0.79,0.29-2.95,0.58-5.9,0.58c-9.22,0-15.34-6.62-15.34-14.91C270.98,225.81,271.26,224.23,271.7,222.72z M278.39,241.44
	l0.79,0.36h-7.13l-0.36-0.36H278.39z M282.35,242.88l3.96,0.29l4.32-0.29h8.79l0.36,0.36h-26.14l-0.43-0.36H282.35z M286.31,240.5
	c0.5,0,1.01,0,1.51-0.07l-6.05-8.71h9.86l4.54,4.25c1.8-2.3,2.81-5.26,2.81-8.5c0-7.27-5.04-13.18-12.67-13.18
	c-7.63,0-12.67,5.9-12.67,13.18C273.64,234.67,278.68,240.5,286.31,240.5z M300.93,244.32l0.36,0.36h-25.63l-0.5-0.36H300.93z
	 M295.02,245.76l-0.79,0.36h-15.77l-0.86-0.36H295.02z M289.77,247.2l-3.46,0.43l-4.54-0.43H289.77z M290.2,234.24l0.36,0.36h-4.82
	l-0.36-0.36H290.2z M291.71,235.68l0.36,0.36h-4.82l-0.43-0.36H291.71z M293.3,237.12l0.36,0.36h-4.9l-0.43-0.36H293.3z
	 M294.88,238.56l0.36,0.36h-4.97l-0.43-0.36H294.88z M301.87,240l-0.29,0.36h-9.79l-0.43-0.36H301.87z M300.79,241.44l-0.29,0.36
	h-7.2l-0.43-0.36H300.79z M302.51,245.76l-0.07-0.07l0.58,0.43h-5.11l-0.43-0.36H302.51z M298.27,238.56h4.54l-0.29,0.36h-4.61
	L298.27,238.56z M299.35,237.12h4.25l-0.22,0.36h-4.32L299.35,237.12z M304.1,247.13l-0.07-0.07l0.58,0.43h-5.11l-0.43-0.36H304.1z
	 M300.21,235.68h4.18l-0.22,0.36h-4.18L300.21,235.68z M300.93,234.24h4.03l-0.22,0.36h-3.96L300.93,234.24z M301.43,232.8h3.96
	l-0.14,0.36h-3.89L301.43,232.8z M301.65,222.72h3.96l0.14,0.36h-3.96L301.65,222.72z M301.87,231.36h3.89l-0.07,0.36h-3.89
	L301.87,231.36z M302.01,224.16h3.89l0.07,0.36h-3.82L302.01,224.16z M302.15,229.92h3.89l-0.14,0.36h-3.82L302.15,229.92z
	 M302.23,225.6h3.82l0.07,0.36h-3.82L302.23,225.6z M302.37,228.48h3.82l-0.07,0.36h-3.82L302.37,228.48z M302.37,227.04h3.82v0.36
	h-3.82V227.04z"/>
<path class="st0" d="M327.8,241.44c3.1,0,5.18,1.87,5.18,4.97s-2.09,4.97-5.18,4.97c-3.1,0-5.18-1.87-5.18-4.97
	S324.7,241.44,327.8,241.44z"/>
</svg>
